STARTFONT 2.1
COMMENT
COMMENT Converted from OpenType font "KH-Dot-Kagurazaka-12.ttf" by "otf2bdf 3.0".
COMMENT
FONT -FreeType-KH Dot kagurazaka 12-Medium-R-Normal--12-90-100-100-P-128-ISO10646-1
SIZE 9 100 100
FONTBOUNDINGBOX 13 13 0 -2
STARTPROPERTIES 19
FOUNDRY "FreeType"
FAMILY_NAME "KH Dot kagurazaka 12"
WEIGHT_NAME "Medium"
SLANT "R"
SETWIDTH_NAME "Normal"
ADD_STYLE_NAME ""
PIXEL_SIZE 12
POINT_SIZE 90
RESOLUTION_X 100
RESOLUTION_Y 100
SPACING "P"
AVERAGE_WIDTH 128
CHARSET_REGISTRY "ISO10646"
CHARSET_ENCODING "1"
FONT_ASCENT 11
FONT_DESCENT 1
COPYRIGHT "Copyright (c) Keitarou Hiraki, Font Silo. 1990-2015"
_OTF_FONTFILE "KH-Dot-Kagurazaka-12.ttf"
_OTF_PSNAME "KH-Dot-kagurazaka-12"
ENDPROPERTIES
CHARS 7199
STARTCHAR 0020
ENCODING 32
SWIDTH 560 0
DWIDTH 7 0
BBX 0 0 0 0
BITMAP
ENDCHAR
STARTCHAR 0021
ENCODING 33
SWIDTH 560 0
DWIDTH 7 0
BBX 2 10 2 -1
BITMAP
80
C0
80
80
80
00
00
00
C0
C0
ENDCHAR
STARTCHAR 0022
ENCODING 34
SWIDTH 560 0
DWIDTH 7 0
BBX 5 3 0 7
BITMAP
D8
48
90
ENDCHAR
STARTCHAR 0023
ENCODING 35
SWIDTH 560 0
DWIDTH 7 0
BBX 5 10 0 -1
BITMAP
10
58
70
D0
58
70
50
D0
50
40
ENDCHAR
STARTCHAR 0024
ENCODING 36
SWIDTH 560 0
DWIDTH 7 0
BBX 5 12 0 -2
BITMAP
20
70
A8
A8
A0
70
28
A8
A8
A8
70
20
ENDCHAR
STARTCHAR 0025
ENCODING 37
SWIDTH 560 0
DWIDTH 7 0
BBX 5 10 0 -1
BITMAP
E0
A8
E8
10
20
40
B8
B8
A8
38
ENDCHAR
STARTCHAR 0026
ENCODING 38
SWIDTH 560 0
DWIDTH 7 0
BBX 5 10 0 -1
BITMAP
60
90
90
60
58
A8
B8
90
98
68
ENDCHAR
STARTCHAR 0027
ENCODING 39
SWIDTH 560 0
DWIDTH 7 0
BBX 2 3 2 7
BITMAP
C0
40
80
ENDCHAR
STARTCHAR 0028
ENCODING 40
SWIDTH 560 0
DWIDTH 7 0
BBX 3 11 2 -1
BITMAP
20
40
40
80
80
80
80
C0
40
40
20
ENDCHAR
STARTCHAR 0029
ENCODING 41
SWIDTH 560 0
DWIDTH 7 0
BBX 3 11 1 -1
BITMAP
80
40
40
20
20
20
20
60
40
40
80
ENDCHAR
STARTCHAR 002A
ENCODING 42
SWIDTH 560 0
DWIDTH 7 0
BBX 5 7 0 1
BITMAP
20
A8
70
70
A8
A8
20
ENDCHAR
STARTCHAR 002B
ENCODING 43
SWIDTH 560 0
DWIDTH 7 0
BBX 5 6 0 2
BITMAP
20
20
F8
20
20
20
ENDCHAR
STARTCHAR 002C
ENCODING 44
SWIDTH 560 0
DWIDTH 7 0
BBX 2 3 2 -2
BITMAP
C0
40
80
ENDCHAR
STARTCHAR 002D
ENCODING 45
SWIDTH 560 0
DWIDTH 7 0
BBX 5 1 0 5
BITMAP
F8
ENDCHAR
STARTCHAR 002E
ENCODING 46
SWIDTH 560 0
DWIDTH 7 0
BBX 2 2 2 -1
BITMAP
C0
C0
ENDCHAR
STARTCHAR 002F
ENCODING 47
SWIDTH 560 0
DWIDTH 7 0
BBX 5 11 0 -1
BITMAP
08
08
10
10
20
20
40
40
40
80
80
ENDCHAR
STARTCHAR 0030
ENCODING 48
SWIDTH 560 0
DWIDTH 7 0
BBX 5 10 0 -1
BITMAP
20
50
88
88
88
88
88
88
50
20
ENDCHAR
STARTCHAR 0031
ENCODING 49
SWIDTH 560 0
DWIDTH 7 0
BBX 3 10 1 -1
BITMAP
40
C0
40
40
40
40
40
40
40
E0
ENDCHAR
STARTCHAR 0032
ENCODING 50
SWIDTH 560 0
DWIDTH 7 0
BBX 5 10 0 -1
BITMAP
70
88
88
08
30
40
80
80
88
F8
ENDCHAR
STARTCHAR 0033
ENCODING 51
SWIDTH 560 0
DWIDTH 7 0
BBX 5 10 0 -1
BITMAP
70
88
88
08
30
08
88
88
88
70
ENDCHAR
STARTCHAR 0034
ENCODING 52
SWIDTH 560 0
DWIDTH 7 0
BBX 5 10 0 -1
BITMAP
10
30
30
50
50
90
98
F8
10
38
ENDCHAR
STARTCHAR 0035
ENCODING 53
SWIDTH 560 0
DWIDTH 7 0
BBX 5 10 0 -1
BITMAP
F0
80
80
F0
88
08
88
88
88
70
ENDCHAR
STARTCHAR 0036
ENCODING 54
SWIDTH 560 0
DWIDTH 7 0
BBX 5 10 0 -1
BITMAP
70
88
88
80
F0
88
88
88
88
70
ENDCHAR
STARTCHAR 0037
ENCODING 55
SWIDTH 560 0
DWIDTH 7 0
BBX 5 10 0 -1
BITMAP
F8
88
10
10
20
20
40
40
40
40
ENDCHAR
STARTCHAR 0038
ENCODING 56
SWIDTH 560 0
DWIDTH 7 0
BBX 5 10 0 -1
BITMAP
70
88
88
88
70
88
88
88
88
70
ENDCHAR
STARTCHAR 0039
ENCODING 57
SWIDTH 560 0
DWIDTH 7 0
BBX 5 10 0 -1
BITMAP
70
88
88
88
78
08
88
88
88
70
ENDCHAR
STARTCHAR 003A
ENCODING 58
SWIDTH 560 0
DWIDTH 7 0
BBX 2 8 2 -1
BITMAP
C0
C0
00
00
00
00
C0
C0
ENDCHAR
STARTCHAR 003B
ENCODING 59
SWIDTH 560 0
DWIDTH 7 0
BBX 2 9 2 -2
BITMAP
C0
C0
00
00
00
00
C0
40
80
ENDCHAR
STARTCHAR 003C
ENCODING 60
SWIDTH 560 0
DWIDTH 7 0
BBX 4 9 1 0
BITMAP
10
20
40
80
80
40
60
20
10
ENDCHAR
STARTCHAR 003D
ENCODING 61
SWIDTH 560 0
DWIDTH 7 0
BBX 5 3 0 4
BITMAP
F8
00
F8
ENDCHAR
STARTCHAR 003E
ENCODING 62
SWIDTH 560 0
DWIDTH 7 0
BBX 4 9 1 0
BITMAP
80
40
20
10
10
20
40
40
80
ENDCHAR
STARTCHAR 003F
ENCODING 63
SWIDTH 560 0
DWIDTH 7 0
BBX 5 10 0 -1
BITMAP
70
88
88
10
20
20
20
00
60
60
ENDCHAR
STARTCHAR 0040
ENCODING 64
SWIDTH 560 0
DWIDTH 7 0
BBX 5 10 0 -1
BITMAP
70
88
E8
A8
A8
A8
B0
F0
88
70
ENDCHAR
STARTCHAR 0041
ENCODING 65
SWIDTH 560 0
DWIDTH 7 0
BBX 5 10 0 -1
BITMAP
20
50
88
88
88
F8
88
88
88
D8
ENDCHAR
STARTCHAR 0042
ENCODING 66
SWIDTH 560 0
DWIDTH 7 0
BBX 5 10 0 -1
BITMAP
F0
48
48
48
70
48
48
48
48
F0
ENDCHAR
STARTCHAR 0043
ENCODING 67
SWIDTH 560 0
DWIDTH 7 0
BBX 5 10 0 -1
BITMAP
28
58
88
80
80
80
88
88
48
30
ENDCHAR
STARTCHAR 0044
ENCODING 68
SWIDTH 560 0
DWIDTH 7 0
BBX 5 10 0 -1
BITMAP
E0
50
48
48
48
48
48
48
50
E0
ENDCHAR
STARTCHAR 0045
ENCODING 69
SWIDTH 560 0
DWIDTH 7 0
BBX 5 10 0 -1
BITMAP
F8
48
40
50
70
50
50
40
48
F8
ENDCHAR
STARTCHAR 0046
ENCODING 70
SWIDTH 560 0
DWIDTH 7 0
BBX 5 10 0 -1
BITMAP
F8
48
40
50
70
50
50
40
40
E0
ENDCHAR
STARTCHAR 0047
ENCODING 71
SWIDTH 560 0
DWIDTH 7 0
BBX 5 10 0 -1
BITMAP
28
58
88
80
B8
88
88
88
58
28
ENDCHAR
STARTCHAR 0048
ENCODING 72
SWIDTH 560 0
DWIDTH 7 0
BBX 5 10 0 -1
BITMAP
D8
88
88
88
F8
88
88
88
88
D8
ENDCHAR
STARTCHAR 0049
ENCODING 73
SWIDTH 560 0
DWIDTH 7 0
BBX 3 10 1 -1
BITMAP
E0
40
40
40
40
40
40
40
40
E0
ENDCHAR
STARTCHAR 004A
ENCODING 74
SWIDTH 560 0
DWIDTH 7 0
BBX 5 10 0 -1
BITMAP
38
10
10
10
10
10
D0
D0
90
60
ENDCHAR
STARTCHAR 004B
ENCODING 75
SWIDTH 560 0
DWIDTH 7 0
BBX 5 10 0 -1
BITMAP
D8
88
90
A0
C0
A0
B0
90
88
D8
ENDCHAR
STARTCHAR 004C
ENCODING 76
SWIDTH 560 0
DWIDTH 7 0
BBX 5 10 0 -1
BITMAP
E0
40
40
40
40
40
48
48
48
F8
ENDCHAR
STARTCHAR 004D
ENCODING 77
SWIDTH 560 0
DWIDTH 7 0
BBX 5 10 0 -1
BITMAP
88
88
D8
A8
A8
A8
A8
88
88
D8
ENDCHAR
STARTCHAR 004E
ENCODING 78
SWIDTH 560 0
DWIDTH 7 0
BBX 5 10 0 -1
BITMAP
98
C8
C8
A8
A8
98
98
98
88
C8
ENDCHAR
STARTCHAR 004F
ENCODING 79
SWIDTH 560 0
DWIDTH 7 0
BBX 5 10 0 -1
BITMAP
70
88
88
88
88
88
88
88
88
70
ENDCHAR
STARTCHAR 0050
ENCODING 80
SWIDTH 560 0
DWIDTH 7 0
BBX 5 10 0 -1
BITMAP
F0
48
48
48
70
40
40
40
40
E0
ENDCHAR
STARTCHAR 0051
ENCODING 81
SWIDTH 560 0
DWIDTH 7 0
BBX 5 11 0 -2
BITMAP
70
88
88
88
88
A8
A8
A8
98
70
08
ENDCHAR
STARTCHAR 0052
ENCODING 82
SWIDTH 560 0
DWIDTH 7 0
BBX 5 10 0 -1
BITMAP
F0
48
48
48
70
48
48
48
48
D8
ENDCHAR
STARTCHAR 0053
ENCODING 83
SWIDTH 560 0
DWIDTH 7 0
BBX 5 10 0 -1
BITMAP
68
98
88
80
70
08
88
88
C8
B0
ENDCHAR
STARTCHAR 0054
ENCODING 84
SWIDTH 560 0
DWIDTH 7 0
BBX 5 10 0 -1
BITMAP
F8
A8
A8
20
20
20
20
20
20
70
ENDCHAR
STARTCHAR 0055
ENCODING 85
SWIDTH 560 0
DWIDTH 7 0
BBX 5 10 0 -1
BITMAP
D8
88
88
88
88
88
88
88
88
70
ENDCHAR
STARTCHAR 0056
ENCODING 86
SWIDTH 560 0
DWIDTH 7 0
BBX 5 10 0 -1
BITMAP
D8
88
88
88
50
50
50
50
20
20
ENDCHAR
STARTCHAR 0057
ENCODING 87
SWIDTH 560 0
DWIDTH 7 0
BBX 5 10 0 -1
BITMAP
D8
88
88
88
A8
A8
E8
D8
88
88
ENDCHAR
STARTCHAR 0058
ENCODING 88
SWIDTH 560 0
DWIDTH 7 0
BBX 5 10 0 -1
BITMAP
D8
88
50
50
20
50
50
50
88
D8
ENDCHAR
STARTCHAR 0059
ENCODING 89
SWIDTH 560 0
DWIDTH 7 0
BBX 5 10 0 -1
BITMAP
D8
88
50
50
20
20
20
20
20
70
ENDCHAR
STARTCHAR 005A
ENCODING 90
SWIDTH 560 0
DWIDTH 7 0
BBX 5 10 0 -1
BITMAP
F8
88
10
10
20
40
40
40
88
F8
ENDCHAR
STARTCHAR 005B
ENCODING 91
SWIDTH 560 0
DWIDTH 7 0
BBX 3 11 2 -1
BITMAP
E0
80
80
80
80
80
80
80
80
80
E0
ENDCHAR
STARTCHAR 005C
ENCODING 92
SWIDTH 560 0
DWIDTH 7 0
BBX 5 10 0 -1
BITMAP
D8
88
50
F8
20
F8
E0
20
20
20
ENDCHAR
STARTCHAR 005D
ENCODING 93
SWIDTH 560 0
DWIDTH 7 0
BBX 3 11 1 -1
BITMAP
E0
20
20
20
20
20
20
20
20
20
E0
ENDCHAR
STARTCHAR 005E
ENCODING 94
SWIDTH 560 0
DWIDTH 7 0
BBX 5 3 0 7
BITMAP
20
50
88
ENDCHAR
STARTCHAR 005F
ENCODING 95
SWIDTH 560 0
DWIDTH 7 0
BBX 5 1 0 -1
BITMAP
F8
ENDCHAR
STARTCHAR 0060
ENCODING 96
SWIDTH 560 0
DWIDTH 7 0
BBX 2 3 2 7
BITMAP
C0
80
40
ENDCHAR
STARTCHAR 0061
ENCODING 97
SWIDTH 560 0
DWIDTH 7 0
BBX 5 8 0 -1
BITMAP
70
C8
08
78
88
88
98
68
ENDCHAR
STARTCHAR 0062
ENCODING 98
SWIDTH 560 0
DWIDTH 7 0
BBX 5 11 0 -1
BITMAP
80
80
80
B0
C8
88
88
88
88
C8
B0
ENDCHAR
STARTCHAR 0063
ENCODING 99
SWIDTH 560 0
DWIDTH 7 0
BBX 5 8 0 -1
BITMAP
70
88
80
80
88
88
88
70
ENDCHAR
STARTCHAR 0064
ENCODING 100
SWIDTH 560 0
DWIDTH 7 0
BBX 7 11 0 -1
BITMAP
18
08
08
68
98
88
88
88
88
98
6E
ENDCHAR
STARTCHAR 0065
ENCODING 101
SWIDTH 560 0
DWIDTH 7 0
BBX 5 8 0 -1
BITMAP
70
88
88
F8
80
80
88
70
ENDCHAR
STARTCHAR 0066
ENCODING 102
SWIDTH 560 0
DWIDTH 7 0
BBX 4 11 1 -1
BITMAP
30
50
40
F0
40
40
40
40
40
40
E0
ENDCHAR
STARTCHAR 0067
ENCODING 103
SWIDTH 560 0
DWIDTH 7 0
BBX 5 10 0 -2
BITMAP
08
70
88
88
70
40
40
B8
88
70
ENDCHAR
STARTCHAR 0068
ENCODING 104
SWIDTH 560 0
DWIDTH 7 0
BBX 5 11 0 -1
BITMAP
80
80
80
B0
C8
88
88
88
88
88
D8
ENDCHAR
STARTCHAR 0069
ENCODING 105
SWIDTH 560 0
DWIDTH 7 0
BBX 3 11 1 -1
BITMAP
C0
40
00
C0
40
40
40
40
40
40
E0
ENDCHAR
STARTCHAR 006A
ENCODING 106
SWIDTH 560 0
DWIDTH 7 0
BBX 4 12 0 -2
BITMAP
30
10
00
30
10
10
10
10
10
D0
90
60
ENDCHAR
STARTCHAR 006B
ENCODING 107
SWIDTH 560 0
DWIDTH 7 0
BBX 5 11 0 -1
BITMAP
C0
40
40
58
48
50
60
50
50
48
D8
ENDCHAR
STARTCHAR 006C
ENCODING 108
SWIDTH 560 0
DWIDTH 7 0
BBX 3 11 1 -1
BITMAP
C0
40
40
40
40
40
40
40
40
40
E0
ENDCHAR
STARTCHAR 006D
ENCODING 109
SWIDTH 560 0
DWIDTH 7 0
BBX 5 8 0 -1
BITMAP
F0
A8
A8
A8
A8
A8
A8
A8
ENDCHAR
STARTCHAR 006E
ENCODING 110
SWIDTH 560 0
DWIDTH 7 0
BBX 5 8 0 -1
BITMAP
B0
C8
88
88
88
88
88
D8
ENDCHAR
STARTCHAR 006F
ENCODING 111
SWIDTH 560 0
DWIDTH 7 0
BBX 5 8 0 -1
BITMAP
70
88
88
88
88
88
88
70
ENDCHAR
STARTCHAR 0070
ENCODING 112
SWIDTH 560 0
DWIDTH 7 0
BBX 5 9 0 -2
BITMAP
B0
C8
88
88
C8
C8
B0
80
C0
ENDCHAR
STARTCHAR 0071
ENCODING 113
SWIDTH 560 0
DWIDTH 7 0
BBX 5 9 0 -2
BITMAP
68
98
88
88
88
98
68
08
18
ENDCHAR
STARTCHAR 0072
ENCODING 114
SWIDTH 560 0
DWIDTH 7 0
BBX 5 8 0 -1
BITMAP
D8
68
40
40
40
40
40
E0
ENDCHAR
STARTCHAR 0073
ENCODING 115
SWIDTH 560 0
DWIDTH 7 0
BBX 5 8 0 -1
BITMAP
68
98
80
70
78
08
C8
B0
ENDCHAR
STARTCHAR 0074
ENCODING 116
SWIDTH 560 0
DWIDTH 7 0
BBX 5 10 0 -1
BITMAP
20
20
F8
20
20
20
20
20
28
18
ENDCHAR
STARTCHAR 0075
ENCODING 117
SWIDTH 560 0
DWIDTH 7 0
BBX 5 8 0 -1
BITMAP
D8
88
88
88
88
88
98
68
ENDCHAR
STARTCHAR 0076
ENCODING 118
SWIDTH 560 0
DWIDTH 7 0
BBX 5 8 0 -1
BITMAP
D8
88
88
50
50
50
20
20
ENDCHAR
STARTCHAR 0077
ENCODING 119
SWIDTH 560 0
DWIDTH 7 0
BBX 5 8 0 -1
BITMAP
D8
88
88
A8
A8
A8
D8
88
ENDCHAR
STARTCHAR 0078
ENCODING 120
SWIDTH 560 0
DWIDTH 7 0
BBX 5 8 0 -1
BITMAP
D8
88
50
20
70
50
88
D8
ENDCHAR
STARTCHAR 0079
ENCODING 121
SWIDTH 560 0
DWIDTH 7 0
BBX 5 9 0 -2
BITMAP
D8
88
50
50
60
20
20
40
C0
ENDCHAR
STARTCHAR 007A
ENCODING 122
SWIDTH 560 0
DWIDTH 7 0
BBX 5 8 0 -1
BITMAP
F8
88
10
20
40
40
88
F8
ENDCHAR
STARTCHAR 007B
ENCODING 123
SWIDTH 560 0
DWIDTH 7 0
BBX 5 11 0 -1
BITMAP
18
20
20
20
C0
20
20
20
20
20
18
ENDCHAR
STARTCHAR 007C
ENCODING 124
SWIDTH 560 0
DWIDTH 7 0
BBX 1 11 2 -1
BITMAP
80
80
80
80
80
80
80
80
80
80
80
ENDCHAR
STARTCHAR 007D
ENCODING 125
SWIDTH 560 0
DWIDTH 7 0
BBX 5 11 0 -1
BITMAP
C0
20
20
20
18
20
20
20
20
20
C0
ENDCHAR
STARTCHAR 00A0
ENCODING 160
SWIDTH 560 0
DWIDTH 7 0
BBX 0 0 0 0
BITMAP
ENDCHAR
STARTCHAR 00A2
ENCODING 162
SWIDTH 1040 0
DWIDTH 13 0
BBX 8 11 2 -2
BITMAP
0C
0C
3E
4D
99
98
98
98
5A
3C
20
ENDCHAR
STARTCHAR 00A3
ENCODING 163
SWIDTH 1040 0
DWIDTH 13 0
BBX 11 12 1 -2
BITMAP
1F00
2080
20C0
1000
FF80
1000
0C00
6C00
6C00
9C20
9620
61C0
ENDCHAR
STARTCHAR 00A5
ENCODING 165
SWIDTH 560 0
DWIDTH 7 0
BBX 5 10 0 -1
BITMAP
D8
88
50
F8
20
F8
E0
20
20
20
ENDCHAR
STARTCHAR 00A7
ENCODING 167
SWIDTH 1040 0
DWIDTH 13 0
BBX 7 13 3 -2
BITMAP
7C
82
86
70
5C
82
82
74
74
1C
C2
82
7C
ENDCHAR
STARTCHAR 00A8
ENCODING 168
SWIDTH 1040 0
DWIDTH 13 0
BBX 6 2 3 9
BITMAP
DC
DC
ENDCHAR
STARTCHAR 00AC
ENCODING 172
SWIDTH 1040 0
DWIDTH 13 0
BBX 9 5 2 1
BITMAP
FF80
0080
0080
0080
0080
ENDCHAR
STARTCHAR 00B0
ENCODING 176
SWIDTH 1040 0
DWIDTH 13 0
BBX 4 4 0 7
BITMAP
60
90
90
60
ENDCHAR
STARTCHAR 00B1
ENCODING 177
SWIDTH 1040 0
DWIDTH 13 0
BBX 10 10 1 0
BITMAP
0C00
0C00
0C00
FFC0
0C00
0C00
0C00
0C00
0000
FFC0
ENDCHAR
STARTCHAR 00B4
ENCODING 180
SWIDTH 1040 0
DWIDTH 13 0
BBX 4 2 4 9
BITMAP
30
F0
ENDCHAR
STARTCHAR 00B6
ENCODING 182
SWIDTH 1040 0
DWIDTH 13 0
BBX 8 12 2 -2
BITMAP
7F
F9
F9
F9
79
19
19
19
19
19
19
19
ENDCHAR
STARTCHAR 00D7
ENCODING 215
SWIDTH 1040 0
DWIDTH 13 0
BBX 8 8 2 1
BITMAP
81
42
2C
18
2C
42
C3
81
ENDCHAR
STARTCHAR 00F7
ENCODING 247
SWIDTH 1040 0
DWIDTH 13 0
BBX 9 10 2 0
BITMAP
1C00
1C00
0000
0000
FF80
0000
0000
1C00
1C00
1C00
ENDCHAR
STARTCHAR 0391
ENCODING 913
SWIDTH 1040 0
DWIDTH 13 0
BBX 10 10 1 -1
BITMAP
0C00
0C00
1600
1600
2100
3F00
4080
4080
4080
E1C0
ENDCHAR
STARTCHAR 0392
ENCODING 914
SWIDTH 1040 0
DWIDTH 13 0
BBX 9 10 2 -1
BITMAP
FE00
4100
4100
7E00
4100
4080
4080
4080
4100
FE00
ENDCHAR
STARTCHAR 0393
ENCODING 915
SWIDTH 1040 0
DWIDTH 13 0
BBX 9 10 2 -1
BITMAP
FF80
4080
4000
4000
4000
4000
4000
4000
4000
F800
ENDCHAR
STARTCHAR 0394
ENCODING 916
SWIDTH 1040 0
DWIDTH 13 0
BBX 10 10 1 -1
BITMAP
0C00
0C00
1600
1600
2100
2100
4180
4080
4080
FFC0
ENDCHAR
STARTCHAR 0395
ENCODING 917
SWIDTH 1040 0
DWIDTH 13 0
BBX 9 10 2 -1
BITMAP
FF80
4080
4200
7E00
4200
4200
4280
4080
4080
FF80
ENDCHAR
STARTCHAR 0396
ENCODING 918
SWIDTH 1040 0
DWIDTH 13 0
BBX 9 10 2 -1
BITMAP
FF00
8200
0C00
0C00
1800
2000
2080
2080
4080
FF80
ENDCHAR
STARTCHAR 0397
ENCODING 919
SWIDTH 1040 0
DWIDTH 13 0
BBX 10 10 1 -1
BITMAP
E1C0
4080
4080
7F80
4080
4080
4080
4080
4080
E1C0
ENDCHAR
STARTCHAR 0398
ENCODING 920
SWIDTH 1040 0
DWIDTH 13 0
BBX 9 10 2 -1
BITMAP
3E00
4100
8080
A280
BE80
A280
A280
8080
4100
3E00
ENDCHAR
STARTCHAR 0399
ENCODING 921
SWIDTH 1040 0
DWIDTH 13 0
BBX 4 10 4 -1
BITMAP
F0
60
60
60
60
60
60
60
60
F0
ENDCHAR
STARTCHAR 039A
ENCODING 922
SWIDTH 1040 0
DWIDTH 13 0
BBX 9 10 2 -1
BITMAP
EF80
4200
4C00
7800
4C00
4200
4200
4200
4100
E380
ENDCHAR
STARTCHAR 039B
ENCODING 923
SWIDTH 1040 0
DWIDTH 13 0
BBX 10 10 1 -1
BITMAP
0C00
0C00
1600
1600
2100
2100
4180
4080
4080
E1C0
ENDCHAR
STARTCHAR 039C
ENCODING 924
SWIDTH 1040 0
DWIDTH 13 0
BBX 10 10 1 -1
BITMAP
C0C0
6180
6180
5680
5680
4C80
4C80
4C80
4C80
E1C0
ENDCHAR
STARTCHAR 039D
ENCODING 925
SWIDTH 1040 0
DWIDTH 13 0
BBX 10 10 1 -1
BITMAP
C7C0
6080
5080
5080
4C80
4680
4680
4680
4180
E080
ENDCHAR
STARTCHAR 039E
ENCODING 926
SWIDTH 1040 0
DWIDTH 13 0
BBX 9 10 2 -1
BITMAP
FF80
8080
0000
4100
7F00
4100
4100
0000
8080
FF80
ENDCHAR
STARTCHAR 039F
ENCODING 927
SWIDTH 1040 0
DWIDTH 13 0
BBX 9 10 2 -1
BITMAP
3E00
4100
8080
8080
8080
8080
8080
8080
4100
3E00
ENDCHAR
STARTCHAR 03A0
ENCODING 928
SWIDTH 1040 0
DWIDTH 13 0
BBX 9 10 2 -1
BITMAP
FF80
4100
4100
4100
4100
4100
4100
4100
4100
E380
ENDCHAR
STARTCHAR 03A1
ENCODING 929
SWIDTH 1040 0
DWIDTH 13 0
BBX 9 10 2 -1
BITMAP
FF00
4080
4080
4080
7F00
4000
4000
4000
4000
E000
ENDCHAR
STARTCHAR 03A3
ENCODING 931
SWIDTH 1040 0
DWIDTH 13 0
BBX 9 10 2 -1
BITMAP
FF80
4080
2000
1800
0C00
1800
2080
2080
4080
FF80
ENDCHAR
STARTCHAR 03A4
ENCODING 932
SWIDTH 1040 0
DWIDTH 13 0
BBX 10 10 1 -1
BITMAP
FFC0
8C40
8C40
0C00
0C00
0C00
0C00
0C00
0C00
1E00
ENDCHAR
STARTCHAR 03A5
ENCODING 933
SWIDTH 1040 0
DWIDTH 13 0
BBX 10 10 1 -1
BITMAP
6180
9640
0C00
0C00
0C00
0C00
0C00
0C00
0C00
1E00
ENDCHAR
STARTCHAR 03A6
ENCODING 934
SWIDTH 1040 0
DWIDTH 13 0
BBX 8 10 2 -1
BITMAP
3C
18
7E
99
99
99
9F
7E
18
3C
ENDCHAR
STARTCHAR 03A7
ENCODING 935
SWIDTH 1040 0
DWIDTH 13 0
BBX 10 10 1 -1
BITMAP
E1C0
4080
2100
1600
0C00
1600
2700
2100
4080
E1C0
ENDCHAR
STARTCHAR 03A8
ENCODING 936
SWIDTH 1040 0
DWIDTH 13 0
BBX 10 10 1 -1
BITMAP
1E00
CCC0
AD40
2D00
2D00
1E00
1C00
0C00
0C00
1E00
ENDCHAR
STARTCHAR 03A9
ENCODING 937
SWIDTH 1040 0
DWIDTH 13 0
BBX 9 10 2 -1
BITMAP
3E00
4100
8080
8080
8080
4100
6200
2200
A280
E380
ENDCHAR
STARTCHAR 03B1
ENCODING 945
SWIDTH 1040 0
DWIDTH 13 0
BBX 9 7 2 -1
BITMAP
1C80
2280
4300
8F00
8C00
9C00
6300
ENDCHAR
STARTCHAR 03B2
ENCODING 946
SWIDTH 1040 0
DWIDTH 13 0
BBX 8 11 3 -2
BITMAP
1E
31
32
5C
42
42
46
44
B8
80
80
ENDCHAR
STARTCHAR 03B3
ENCODING 947
SWIDTH 1040 0
DWIDTH 13 0
BBX 8 8 3 -2
BITMAP
73
9C
18
38
30
30
40
40
ENDCHAR
STARTCHAR 03B4
ENCODING 948
SWIDTH 1040 0
DWIDTH 13 0
BBX 8 10 3 -1
BITMAP
1C
33
18
34
42
42
82
82
84
78
ENDCHAR
STARTCHAR 03B5
ENCODING 949
SWIDTH 1040 0
DWIDTH 13 0
BBX 8 7 3 -1
BITMAP
3E
41
3C
7C
40
82
7C
ENDCHAR
STARTCHAR 03B6
ENCODING 950
SWIDTH 1040 0
DWIDTH 13 0
BBX 7 11 3 -2
BITMAP
38
46
38
30
40
80
80
80
78
04
78
ENDCHAR
STARTCHAR 03B7
ENCODING 951
SWIDTH 1040 0
DWIDTH 13 0
BBX 7 8 3 -2
BITMAP
DC
32
42
46
44
84
98
18
ENDCHAR
STARTCHAR 03B8
ENCODING 952
SWIDTH 1040 0
DWIDTH 13 0
BBX 7 10 3 -1
BITMAP
1C
32
42
7E
42
84
84
84
98
70
ENDCHAR
STARTCHAR 03B9
ENCODING 953
SWIDTH 1040 0
DWIDTH 13 0
BBX 6 7 4 -1
BITMAP
60
60
80
84
84
88
70
ENDCHAR
STARTCHAR 03BA
ENCODING 954
SWIDTH 1040 0
DWIDTH 13 0
BBX 7 7 3 -1
BITMAP
46
58
70
98
98
9A
9C
ENDCHAR
STARTCHAR 03BB
ENCODING 955
SWIDTH 1040 0
DWIDTH 13 0
BBX 8 10 3 -1
BITMAP
70
18
18
18
18
34
44
44
84
83
ENDCHAR
STARTCHAR 03BC
ENCODING 956
SWIDTH 1040 0
DWIDTH 13 0
BBX 9 8 2 -2
BITMAP
2100
2100
4200
4200
4200
4E80
B900
8000
ENDCHAR
STARTCHAR 03BD
ENCODING 957
SWIDTH 1040 0
DWIDTH 13 0
BBX 8 7 3 -1
BITMAP
81
42
44
48
58
F0
80
ENDCHAR
STARTCHAR 03BE
ENCODING 958
SWIDTH 1040 0
DWIDTH 13 0
BBX 7 11 3 -2
BITMAP
3C
40
3E
40
7E
80
80
80
78
04
F8
ENDCHAR
STARTCHAR 03BF
ENCODING 959
SWIDTH 1040 0
DWIDTH 13 0
BBX 7 7 3 -1
BITMAP
3C
42
82
86
84
84
78
ENDCHAR
STARTCHAR 03C0
ENCODING 960
SWIDTH 1040 0
DWIDTH 13 0
BBX 10 8 1 -1
BITMAP
0040
7F80
9600
2600
2E00
2C00
4C80
4700
ENDCHAR
STARTCHAR 03C1
ENCODING 961
SWIDTH 1040 0
DWIDTH 13 0
BBX 7 8 3 -2
BITMAP
3C
42
42
46
44
B8
80
80
ENDCHAR
STARTCHAR 03C3
ENCODING 963
SWIDTH 1040 0
DWIDTH 13 0
BBX 8 8 3 -1
BITMAP
01
3E
58
84
84
84
98
70
ENDCHAR
STARTCHAR 03C4
ENCODING 964
SWIDTH 1040 0
DWIDTH 13 0
BBX 9 8 2 -1
BITMAP
0080
7F00
9800
1800
3800
2000
2200
1C00
ENDCHAR
STARTCHAR 03C5
ENCODING 965
SWIDTH 1040 0
DWIDTH 13 0
BBX 7 7 3 -1
BITMAP
44
42
42
84
84
98
70
ENDCHAR
STARTCHAR 03C6
ENCODING 966
SWIDTH 1040 0
DWIDTH 13 0
BBX 8 11 3 -2
BITMAP
04
04
18
7E
99
99
BB
B2
7C
40
40
ENDCHAR
STARTCHAR 03C7
ENCODING 967
SWIDTH 1040 0
DWIDTH 13 0
BBX 8 8 3 -2
BITMAP
72
9A
1C
18
38
58
99
86
ENDCHAR
STARTCHAR 03C8
ENCODING 968
SWIDTH 1040 0
DWIDTH 13 0
BBX 8 11 3 -2
BITMAP
04
04
18
9A
59
B1
B7
B6
78
40
40
ENDCHAR
STARTCHAR 03C9
ENCODING 969
SWIDTH 1040 0
DWIDTH 13 0
BBX 9 7 2 -1
BITMAP
2100
4080
8C80
8880
9880
9900
6E00
ENDCHAR
STARTCHAR 0401
ENCODING 1025
SWIDTH 1040 0
DWIDTH 13 0
BBX 9 12 2 -1
BITMAP
6E00
2200
FF80
4080
4100
7F00
4100
4000
4080
4080
4080
FF80
ENDCHAR
STARTCHAR 0410
ENCODING 1040
SWIDTH 1040 0
DWIDTH 13 0
BBX 10 10 1 -1
BITMAP
0C00
0C00
1600
1600
2100
3F00
4080
4080
4080
E1C0
ENDCHAR
STARTCHAR 0411
ENCODING 1041
SWIDTH 1040 0
DWIDTH 13 0
BBX 9 10 2 -1
BITMAP
FF00
4100
4000
7E00
4100
4080
4080
4080
4100
FE00
ENDCHAR
STARTCHAR 0412
ENCODING 1042
SWIDTH 1040 0
DWIDTH 13 0
BBX 9 10 2 -1
BITMAP
FE00
4100
4100
7E00
4100
4080
4080
4080
4100
FE00
ENDCHAR
STARTCHAR 0413
ENCODING 1043
SWIDTH 1040 0
DWIDTH 13 0
BBX 8 10 2 -1
BITMAP
FF
41
40
40
40
40
40
40
40
F8
ENDCHAR
STARTCHAR 0414
ENCODING 1044
SWIDTH 1040 0
DWIDTH 13 0
BBX 9 11 2 -2
BITMAP
7F80
2100
2100
2100
2100
2100
2100
2100
4100
FF80
8080
ENDCHAR
STARTCHAR 0415
ENCODING 1045
SWIDTH 1040 0
DWIDTH 13 0
BBX 9 10 2 -1
BITMAP
FF80
4080
4100
7F00
4100
4000
4080
4080
4080
FF80
ENDCHAR
STARTCHAR 0416
ENCODING 1046
SWIDTH 1040 0
DWIDTH 13 0
BBX 10 10 1 -1
BITMAP
DEC0
4C80
2D00
3F00
2D00
4C80
4C80
4C80
4C80
DEC0
ENDCHAR
STARTCHAR 0417
ENCODING 1047
SWIDTH 1040 0
DWIDTH 13 0
BBX 8 10 2 -1
BITMAP
7E
81
81
3E
02
01
81
81
C2
3C
ENDCHAR
STARTCHAR 0418
ENCODING 1048
SWIDTH 1040 0
DWIDTH 13 0
BBX 10 10 1 -1
BITMAP
E1C0
4080
4180
4680
4C80
5080
7080
6080
4080
E1C0
ENDCHAR
STARTCHAR 0419
ENCODING 1049
SWIDTH 1040 0
DWIDTH 13 0
BBX 10 12 1 -1
BITMAP
2100
1E00
E1C0
4080
4180
4680
4C80
5080
7080
6080
4080
E1C0
ENDCHAR
STARTCHAR 041A
ENCODING 1050
SWIDTH 1040 0
DWIDTH 13 0
BBX 9 10 2 -1
BITMAP
E300
4C80
4C00
7800
4C00
4200
4200
4200
4100
E380
ENDCHAR
STARTCHAR 041B
ENCODING 1051
SWIDTH 1040 0
DWIDTH 13 0
BBX 10 10 1 -1
BITMAP
1FC0
0C80
0C80
0C80
0C80
0C80
DC80
D080
9080
61C0
ENDCHAR
STARTCHAR 041C
ENCODING 1052
SWIDTH 1040 0
DWIDTH 13 0
BBX 12 10 0 -1
BITMAP
6060
2040
30C0
2B40
2B40
4620
4620
4620
4020
E070
ENDCHAR
STARTCHAR 041D
ENCODING 1053
SWIDTH 1040 0
DWIDTH 13 0
BBX 10 10 1 -1
BITMAP
E1C0
4080
4080
7F80
4080
4080
4080
4080
4080
E1C0
ENDCHAR
STARTCHAR 041E
ENCODING 1054
SWIDTH 1040 0
DWIDTH 13 0
BBX 9 10 2 -1
BITMAP
3E00
4100
8080
8080
8080
8080
8080
8080
4100
3E00
ENDCHAR
STARTCHAR 041F
ENCODING 1055
SWIDTH 1040 0
DWIDTH 13 0
BBX 9 10 2 -1
BITMAP
FF80
4100
4100
4100
4100
4100
4100
4100
4100
E380
ENDCHAR
STARTCHAR 0420
ENCODING 1056
SWIDTH 1040 0
DWIDTH 13 0
BBX 9 10 2 -1
BITMAP
FF00
4080
4080
4080
7F00
4000
4000
4000
4000
F800
ENDCHAR
STARTCHAR 0421
ENCODING 1057
SWIDTH 1040 0
DWIDTH 13 0
BBX 9 10 2 -1
BITMAP
3E00
4180
4080
8000
8000
8000
C080
4080
4180
3E00
ENDCHAR
STARTCHAR 0422
ENCODING 1058
SWIDTH 1040 0
DWIDTH 13 0
BBX 10 10 1 -1
BITMAP
FFC0
8C40
8C40
0C00
0C00
0C00
0C00
0C00
0C00
1E00
ENDCHAR
STARTCHAR 0423
ENCODING 1059
SWIDTH 1040 0
DWIDTH 13 0
BBX 9 10 2 -1
BITMAP
E380
4100
2100
2200
1A00
1C00
1C00
0C00
5800
6000
ENDCHAR
STARTCHAR 0424
ENCODING 1060
SWIDTH 1040 0
DWIDTH 13 0
BBX 8 10 2 -1
BITMAP
3C
18
7E
99
99
99
9F
7E
18
3C
ENDCHAR
STARTCHAR 0425
ENCODING 1061
SWIDTH 1040 0
DWIDTH 13 0
BBX 10 10 1 -1
BITMAP
E1C0
4080
2100
1600
0C00
1600
2700
2100
4080
E1C0
ENDCHAR
STARTCHAR 0426
ENCODING 1062
SWIDTH 1040 0
DWIDTH 13 0
BBX 9 11 2 -2
BITMAP
E380
4100
4100
4100
4100
4100
4100
4100
4100
FF80
0080
ENDCHAR
STARTCHAR 0427
ENCODING 1063
SWIDTH 1040 0
DWIDTH 13 0
BBX 9 10 2 -1
BITMAP
E380
4100
4100
4100
4300
3D00
3D00
0100
0100
0380
ENDCHAR
STARTCHAR 0428
ENCODING 1064
SWIDTH 1040 0
DWIDTH 13 0
BBX 12 10 0 -1
BITMAP
EF70
4620
4620
4620
4620
4620
4620
4620
4620
FFF0
ENDCHAR
STARTCHAR 0429
ENCODING 1065
SWIDTH 1040 0
DWIDTH 13 0
BBX 12 11 0 -2
BITMAP
EF70
4620
4620
4620
4620
4620
4620
4620
4620
FFF0
0010
ENDCHAR
STARTCHAR 042A
ENCODING 1066
SWIDTH 1040 0
DWIDTH 13 0
BBX 9 10 2 -1
BITMAP
F800
9800
1800
1F00
1880
1880
1880
1880
1880
3F00
ENDCHAR
STARTCHAR 042B
ENCODING 1067
SWIDTH 1040 0
DWIDTH 13 0
BBX 11 10 1 -1
BITMAP
E0E0
4040
4040
7C40
4640
4640
4640
4640
4640
FCE0
ENDCHAR
STARTCHAR 042C
ENCODING 1068
SWIDTH 1040 0
DWIDTH 13 0
BBX 9 10 2 -1
BITMAP
E000
4000
4000
7E00
4100
4080
4080
4080
4100
FE00
ENDCHAR
STARTCHAR 042D
ENCODING 1069
SWIDTH 1040 0
DWIDTH 13 0
BBX 8 10 3 -1
BITMAP
7C
82
01
73
9D
01
81
81
82
7C
ENDCHAR
STARTCHAR 042E
ENCODING 1070
SWIDTH 1040 0
DWIDTH 13 0
BBX 10 10 1 -1
BITMAP
E700
4C80
5040
7040
5040
5040
5040
5040
4C80
E700
ENDCHAR
STARTCHAR 042F
ENCODING 1071
SWIDTH 1040 0
DWIDTH 13 0
BBX 10 10 1 -1
BITMAP
1FC0
2080
2080
2080
1F80
1080
1080
1080
2080
C1C0
ENDCHAR
STARTCHAR 0430
ENCODING 1072
SWIDTH 1040 0
DWIDTH 13 0
BBX 7 7 3 -1
BITMAP
78
04
7C
84
84
9C
76
ENDCHAR
STARTCHAR 0431
ENCODING 1073
SWIDTH 1040 0
DWIDTH 13 0
BBX 7 11 3 -1
BITMAP
02
3C
40
80
B8
C4
82
82
82
44
38
ENDCHAR
STARTCHAR 0432
ENCODING 1074
SWIDTH 1040 0
DWIDTH 13 0
BBX 8 7 2 -1
BITMAP
FE
41
7E
41
41
41
FE
ENDCHAR
STARTCHAR 0433
ENCODING 1075
SWIDTH 1040 0
DWIDTH 13 0
BBX 8 7 2 -1
BITMAP
FF
41
40
40
40
40
F8
ENDCHAR
STARTCHAR 0434
ENCODING 1076
SWIDTH 1040 0
DWIDTH 13 0
BBX 8 8 2 -2
BITMAP
7F
22
22
22
22
42
FF
81
ENDCHAR
STARTCHAR 0435
ENCODING 1077
SWIDTH 1040 0
DWIDTH 13 0
BBX 7 7 3 -1
BITMAP
7C
82
FE
80
80
82
7C
ENDCHAR
STARTCHAR 0436
ENCODING 1078
SWIDTH 1040 0
DWIDTH 13 0
BBX 10 7 1 -1
BITMAP
DEC0
4C80
3F00
7C80
4C80
4C80
DEC0
ENDCHAR
STARTCHAR 0437
ENCODING 1079
SWIDTH 1040 0
DWIDTH 13 0
BBX 7 7 3 -1
BITMAP
7C
82
3C
BE
82
82
7C
ENDCHAR
STARTCHAR 0438
ENCODING 1080
SWIDTH 1040 0
DWIDTH 13 0
BBX 9 7 2 -1
BITMAP
E180
4300
4D00
4900
5900
6100
C380
ENDCHAR
STARTCHAR 0439
ENCODING 1081
SWIDTH 1040 0
DWIDTH 13 0
BBX 9 10 2 -1
BITMAP
2200
1C00
0000
E180
4300
4D00
4900
5900
6100
C380
ENDCHAR
STARTCHAR 043A
ENCODING 1082
SWIDTH 1040 0
DWIDTH 13 0
BBX 9 7 2 -1
BITMAP
E300
4C80
7800
4C00
4C00
4200
EF80
ENDCHAR
STARTCHAR 043B
ENCODING 1083
SWIDTH 1040 0
DWIDTH 13 0
BBX 9 7 2 -1
BITMAP
3F80
1900
1900
D900
D900
9900
6380
ENDCHAR
STARTCHAR 043C
ENCODING 1084
SWIDTH 1040 0
DWIDTH 13 0
BBX 9 7 2 -1
BITMAP
C180
6300
5D00
5D00
5D00
4100
E380
ENDCHAR
STARTCHAR 043D
ENCODING 1085
SWIDTH 1040 0
DWIDTH 13 0
BBX 9 7 2 -1
BITMAP
E380
4100
7F00
4100
4100
4100
E380
ENDCHAR
STARTCHAR 043E
ENCODING 1086
SWIDTH 1040 0
DWIDTH 13 0
BBX 7 7 3 -1
BITMAP
7C
82
82
82
82
82
7C
ENDCHAR
STARTCHAR 043F
ENCODING 1087
SWIDTH 1040 0
DWIDTH 13 0
BBX 9 7 2 -1
BITMAP
FF80
4100
4100
4100
4100
4100
E380
ENDCHAR
STARTCHAR 0440
ENCODING 1088
SWIDTH 1040 0
DWIDTH 13 0
BBX 8 8 2 -2
BITMAP
DE
61
41
61
61
5E
40
E0
ENDCHAR
STARTCHAR 0441
ENCODING 1089
SWIDTH 1040 0
DWIDTH 13 0
BBX 7 7 3 -1
BITMAP
7A
86
80
82
82
82
7C
ENDCHAR
STARTCHAR 0442
ENCODING 1090
SWIDTH 1040 0
DWIDTH 13 0
BBX 8 7 2 -1
BITMAP
FF
99
18
18
18
18
3C
ENDCHAR
STARTCHAR 0443
ENCODING 1091
SWIDTH 1040 0
DWIDTH 13 0
BBX 9 8 2 -2
BITMAP
E380
4100
2200
2400
1C00
0C00
5800
6000
ENDCHAR
STARTCHAR 0444
ENCODING 1092
SWIDTH 1040 0
DWIDTH 13 0
BBX 10 12 1 -2
BITMAP
0C00
1C00
0C00
0C00
6D80
9E40
8C40
8E40
9E40
6D80
0C00
1E00
ENDCHAR
STARTCHAR 0445
ENCODING 1093
SWIDTH 1040 0
DWIDTH 13 0
BBX 8 7 2 -1
BITMAP
EF
42
3C
2C
2C
42
EF
ENDCHAR
STARTCHAR 0446
ENCODING 1094
SWIDTH 1040 0
DWIDTH 13 0
BBX 9 8 2 -2
BITMAP
E380
4100
4100
4100
4100
4100
FF80
0080
ENDCHAR
STARTCHAR 0447
ENCODING 1095
SWIDTH 1040 0
DWIDTH 13 0
BBX 9 7 2 -1
BITMAP
E380
4100
4300
7F00
3D00
0100
0380
ENDCHAR
STARTCHAR 0448
ENCODING 1096
SWIDTH 1040 0
DWIDTH 13 0
BBX 10 7 1 -1
BITMAP
DDC0
4C80
4C80
4C80
4C80
4C80
FFC0
ENDCHAR
STARTCHAR 0449
ENCODING 1097
SWIDTH 1040 0
DWIDTH 13 0
BBX 10 8 1 -2
BITMAP
DDC0
4C80
4C80
4C80
4C80
4C80
FFC0
0040
ENDCHAR
STARTCHAR 044A
ENCODING 1098
SWIDTH 1040 0
DWIDTH 13 0
BBX 9 7 2 -1
BITMAP
F800
9800
1F00
1880
1880
1880
3F00
ENDCHAR
STARTCHAR 044B
ENCODING 1099
SWIDTH 1040 0
DWIDTH 13 0
BBX 9 7 2 -1
BITMAP
E380
4100
7900
4D00
4D00
4D00
FB80
ENDCHAR
STARTCHAR 044C
ENCODING 1100
SWIDTH 1040 0
DWIDTH 13 0
BBX 7 7 3 -1
BITMAP
F0
40
7C
42
42
42
FC
ENDCHAR
STARTCHAR 044D
ENCODING 1101
SWIDTH 1040 0
DWIDTH 13 0
BBX 7 7 3 -1
BITMAP
7C
82
5E
7E
32
82
7C
ENDCHAR
STARTCHAR 044E
ENCODING 1102
SWIDTH 1040 0
DWIDTH 13 0
BBX 9 7 2 -1
BITMAP
EF00
5880
7880
5880
5880
5880
EF00
ENDCHAR
STARTCHAR 044F
ENCODING 1103
SWIDTH 1040 0
DWIDTH 13 0
BBX 8 7 2 -1
BITMAP
7F
82
7E
7A
1A
22
CF
ENDCHAR
STARTCHAR 0451
ENCODING 1105
SWIDTH 1040 0
DWIDTH 13 0
BBX 7 10 3 -1
BITMAP
DC
44
00
7C
82
FE
80
80
82
7C
ENDCHAR
STARTCHAR 2000
ENCODING 8192
SWIDTH 1040 0
DWIDTH 13 0
BBX 0 0 0 0
BITMAP
ENDCHAR
STARTCHAR 2001
ENCODING 8193
SWIDTH 1040 0
DWIDTH 13 0
BBX 0 0 0 0
BITMAP
ENDCHAR
STARTCHAR 2002
ENCODING 8194
SWIDTH 1040 0
DWIDTH 13 0
BBX 0 0 0 0
BITMAP
ENDCHAR
STARTCHAR 2003
ENCODING 8195
SWIDTH 1040 0
DWIDTH 13 0
BBX 0 0 0 0
BITMAP
ENDCHAR
STARTCHAR 2004
ENCODING 8196
SWIDTH 1040 0
DWIDTH 13 0
BBX 0 0 0 0
BITMAP
ENDCHAR
STARTCHAR 2005
ENCODING 8197
SWIDTH 1040 0
DWIDTH 13 0
BBX 0 0 0 0
BITMAP
ENDCHAR
STARTCHAR 2006
ENCODING 8198
SWIDTH 1040 0
DWIDTH 13 0
BBX 0 0 0 0
BITMAP
ENDCHAR
STARTCHAR 2007
ENCODING 8199
SWIDTH 1040 0
DWIDTH 13 0
BBX 0 0 0 0
BITMAP
ENDCHAR
STARTCHAR 2008
ENCODING 8200
SWIDTH 1040 0
DWIDTH 13 0
BBX 0 0 0 0
BITMAP
ENDCHAR
STARTCHAR 2009
ENCODING 8201
SWIDTH 1040 0
DWIDTH 13 0
BBX 0 0 0 0
BITMAP
ENDCHAR
STARTCHAR 200A
ENCODING 8202
SWIDTH 1040 0
DWIDTH 13 0
BBX 0 0 0 0
BITMAP
ENDCHAR
STARTCHAR 200B
ENCODING 8203
SWIDTH 560 0
DWIDTH 7 0
BBX 0 0 0 0
BITMAP
ENDCHAR
STARTCHAR 200C
ENCODING 8204
SWIDTH 560 0
DWIDTH 7 0
BBX 0 0 0 0
BITMAP
ENDCHAR
STARTCHAR 200D
ENCODING 8205
SWIDTH 560 0
DWIDTH 7 0
BBX 0 0 0 0
BITMAP
ENDCHAR
STARTCHAR 200E
ENCODING 8206
SWIDTH 560 0
DWIDTH 7 0
BBX 0 0 0 0
BITMAP
ENDCHAR
STARTCHAR 200F
ENCODING 8207
SWIDTH 560 0
DWIDTH 7 0
BBX 0 0 0 0
BITMAP
ENDCHAR
STARTCHAR 2010
ENCODING 8208
SWIDTH 1040 0
DWIDTH 13 0
BBX 5 1 4 5
BITMAP
F8
ENDCHAR
STARTCHAR 2015
ENCODING 8213
SWIDTH 1040 0
DWIDTH 13 0
BBX 13 1 0 5
BITMAP
FFF8
ENDCHAR
STARTCHAR 2016
ENCODING 8214
SWIDTH 1040 0
DWIDTH 13 0
BBX 5 13 4 -2
BITMAP
88
88
88
88
88
88
88
88
88
88
88
88
88
ENDCHAR
STARTCHAR 2018
ENCODING 8216
SWIDTH 1040 0
DWIDTH 13 0
BBX 2 4 10 7
BITMAP
40
80
80
C0
ENDCHAR
STARTCHAR 2019
ENCODING 8217
SWIDTH 1040 0
DWIDTH 13 0
BBX 2 4 1 7
BITMAP
C0
40
40
80
ENDCHAR
STARTCHAR 201C
ENCODING 8220
SWIDTH 1040 0
DWIDTH 13 0
BBX 4 4 8 7
BITMAP
50
A0
A0
F0
ENDCHAR
STARTCHAR 201D
ENCODING 8221
SWIDTH 1040 0
DWIDTH 13 0
BBX 4 4 1 7
BITMAP
F0
50
50
A0
ENDCHAR
STARTCHAR 2020
ENCODING 8224
SWIDTH 1040 0
DWIDTH 13 0
BBX 8 13 2 -2
BITMAP
18
3C
18
5A
FF
5A
3C
3C
38
18
18
18
18
ENDCHAR
STARTCHAR 2021
ENCODING 8225
SWIDTH 1040 0
DWIDTH 13 0
BBX 8 13 2 -2
BITMAP
18
3C
5A
FF
5A
3C
3C
5A
5B
FF
5A
3C
18
ENDCHAR
STARTCHAR 2025
ENCODING 8229
SWIDTH 1040 0
DWIDTH 13 0
BBX 11 2 1 4
BITMAP
C060
C060
ENDCHAR
STARTCHAR 2026
ENCODING 8230
SWIDTH 1040 0
DWIDTH 13 0
BBX 13 2 0 4
BITMAP
C718
C718
ENDCHAR
STARTCHAR 2030
ENCODING 8240
SWIDTH 1040 0
DWIDTH 13 0
BBX 13 13 0 -2
BITMAP
6020
9040
9080
9300
9600
6800
1E30
3348
5348
5348
9348
1348
0E30
ENDCHAR
STARTCHAR 2032
ENCODING 8242
SWIDTH 1040 0
DWIDTH 13 0
BBX 4 4 0 7
BITMAP
30
20
40
80
ENDCHAR
STARTCHAR 2033
ENCODING 8243
SWIDTH 1040 0
DWIDTH 13 0
BBX 7 4 0 7
BITMAP
3E
28
50
A0
ENDCHAR
STARTCHAR 203B
ENCODING 8251
SWIDTH 1040 0
DWIDTH 13 0
BBX 11 11 1 -1
BITMAP
8E20
4E40
2080
1100
CE60
CE60
1100
3180
2080
4E40
8E20
ENDCHAR
STARTCHAR 203E
ENCODING 8254
SWIDTH 560 0
DWIDTH 7 0
BBX 5 1 0 9
BITMAP
F8
ENDCHAR
STARTCHAR 2103
ENCODING 8451
SWIDTH 1040 0
DWIDTH 13 0
BBX 11 12 0 -1
BITMAP
6000
9000
9740
68C0
1040
1000
1000
1020
1020
1020
0840
0780
ENDCHAR
STARTCHAR 2116
ENCODING 8470
SWIDTH 1040 0
DWIDTH 13 0
BBX 12 10 0 -1
BITMAP
8800
8800
C800
A8C0
AB20
AB20
AB20
9B20
8B20
88D0
ENDCHAR
STARTCHAR 2121
ENCODING 8481
SWIDTH 1040 0
DWIDTH 13 0
BBX 12 10 0 -1
BITMAP
F800
2000
2000
2F40
2840
2F40
2840
2840
2840
2F70
ENDCHAR
STARTCHAR 212B
ENCODING 8491
SWIDTH 1040 0
DWIDTH 13 0
BBX 11 12 1 -1
BITMAP
0E00
1100
1100
0E00
0E00
1100
1100
2080
2080
3F80
4040
E0E0
ENDCHAR
STARTCHAR 2160
ENCODING 8544
SWIDTH 1040 0
DWIDTH 13 0
BBX 4 11 4 -1
BITMAP
F0
60
60
60
60
60
60
60
60
60
F0
ENDCHAR
STARTCHAR 2161
ENCODING 8545
SWIDTH 1040 0
DWIDTH 13 0
BBX 7 11 3 -1
BITMAP
FE
44
44
44
44
44
44
44
44
44
FE
ENDCHAR
STARTCHAR 2162
ENCODING 8546
SWIDTH 1040 0
DWIDTH 13 0
BBX 10 11 2 -1
BITMAP
FFC0
4C80
4C80
4C80
4C80
4C80
4C80
4C80
4C80
4C80
FFC0
ENDCHAR
STARTCHAR 2163
ENCODING 8547
SWIDTH 1040 0
DWIDTH 13 0
BBX 10 11 2 -1
BITMAP
FDC0
5880
5880
5880
4D00
4D00
4D00
4E00
4200
4200
E200
ENDCHAR
STARTCHAR 2164
ENCODING 8548
SWIDTH 1040 0
DWIDTH 13 0
BBX 8 11 2 -1
BITMAP
EF
42
42
42
2C
2C
2C
28
18
18
18
ENDCHAR
STARTCHAR 2165
ENCODING 8549
SWIDTH 1040 0
DWIDTH 13 0
BBX 10 11 1 -1
BITMAP
EFC0
4680
4680
4680
2C80
2C80
2C80
3080
1080
1080
11C0
ENDCHAR
STARTCHAR 2166
ENCODING 8550
SWIDTH 1040 0
DWIDTH 13 0
BBX 12 11 0 -1
BITMAP
EFF0
46A0
46A0
46A0
28A0
28A0
28A0
30A0
10A0
10A0
13F0
ENDCHAR
STARTCHAR 2167
ENCODING 8551
SWIDTH 1040 0
DWIDTH 13 0
BBX 12 11 0 -1
BITMAP
DFF0
8EA0
8EA0
56A0
56A0
56A0
26A0
26A0
26A0
26A0
2FF0
ENDCHAR
STARTCHAR 2168
ENCODING 8552
SWIDTH 1040 0
DWIDTH 13 0
BBX 10 11 2 -1
BITMAP
FDC0
5880
4D00
4D00
4200
4200
4D00
4D00
4D00
5880
FDC0
ENDCHAR
STARTCHAR 2169
ENCODING 8553
SWIDTH 1040 0
DWIDTH 13 0
BBX 8 11 2 -1
BITMAP
EF
42
2C
2C
18
18
2C
2C
2C
42
EF
ENDCHAR
STARTCHAR 2190
ENCODING 8592
SWIDTH 1040 0
DWIDTH 13 0
BBX 13 6 0 2
BITMAP
2000
4000
FFF8
4000
2000
2000
ENDCHAR
STARTCHAR 2191
ENCODING 8593
SWIDTH 1040 0
DWIDTH 13 0
BBX 6 13 3 -2
BITMAP
30
78
B4
30
30
30
30
30
30
30
30
30
30
ENDCHAR
STARTCHAR 2192
ENCODING 8594
SWIDTH 1040 0
DWIDTH 13 0
BBX 13 6 0 2
BITMAP
0020
0010
FFF8
0010
0020
0020
ENDCHAR
STARTCHAR 2193
ENCODING 8595
SWIDTH 1040 0
DWIDTH 13 0
BBX 6 13 3 -2
BITMAP
30
30
30
30
30
30
30
30
30
30
B4
78
30
ENDCHAR
STARTCHAR 21D2
ENCODING 8658
SWIDTH 1040 0
DWIDTH 13 0
BBX 11 8 1 1
BITMAP
0100
0080
FFC0
0020
FFC0
0080
0180
0100
ENDCHAR
STARTCHAR 21D4
ENCODING 8660
SWIDTH 1040 0
DWIDTH 13 0
BBX 11 8 1 1
BITMAP
1100
2080
7FC0
8020
7FC0
2080
3180
1100
ENDCHAR
STARTCHAR 2200
ENCODING 8704
SWIDTH 1040 0
DWIDTH 13 0
BBX 12 13 0 -2
BITMAP
8010
8010
4020
4020
3FC0
2040
1080
1080
1900
0B00
0B00
0600
0600
ENDCHAR
STARTCHAR 2202
ENCODING 8706
SWIDTH 1040 0
DWIDTH 13 0
BBX 8 11 2 -2
BITMAP
1E
21
01
39
4D
42
82
82
8C
8C
78
ENDCHAR
STARTCHAR 2203
ENCODING 8707
SWIDTH 1040 0
DWIDTH 13 0
BBX 9 9 2 0
BITMAP
FF80
0080
0080
FF80
0080
0080
0080
0080
FF80
ENDCHAR
STARTCHAR 2207
ENCODING 8711
SWIDTH 1040 0
DWIDTH 13 0
BBX 11 10 1 -1
BITMAP
FFE0
7FC0
2040
3080
1080
1D00
1D00
0D00
0E00
0600
ENDCHAR
STARTCHAR 2208
ENCODING 8712
SWIDTH 1040 0
DWIDTH 13 0
BBX 9 8 2 1
BITMAP
7F80
8000
8000
FF80
8000
8000
FF80
7F80
ENDCHAR
STARTCHAR 220B
ENCODING 8715
SWIDTH 1040 0
DWIDTH 13 0
BBX 9 8 2 1
BITMAP
FF00
0080
0080
FF80
0080
0080
FF80
FF00
ENDCHAR
STARTCHAR 2211
ENCODING 8721
SWIDTH 1040 0
DWIDTH 13 0
BBX 9 10 2 -1
BITMAP
FF80
6080
3880
1C00
1C00
3800
2080
6080
C080
FF80
ENDCHAR
STARTCHAR 2212
ENCODING 8722
SWIDTH 1040 0
DWIDTH 13 0
BBX 10 1 1 5
BITMAP
FFC0
ENDCHAR
STARTCHAR 221A
ENCODING 8730
SWIDTH 1040 0
DWIDTH 13 0
BBX 11 13 0 -2
BITMAP
03E0
0300
0300
0600
0600
4600
4800
6800
E800
A800
1000
1000
1000
ENDCHAR
STARTCHAR 221D
ENCODING 8733
SWIDTH 1040 0
DWIDTH 13 0
BBX 12 7 0 1
BITMAP
30E0
4B10
8600
8600
4B10
5320
30E0
ENDCHAR
STARTCHAR 221E
ENCODING 8734
SWIDTH 1040 0
DWIDTH 13 0
BBX 12 7 0 1
BITMAP
30C0
4B20
8610
8610
4B20
5340
30C0
ENDCHAR
STARTCHAR 221F
ENCODING 8735
SWIDTH 1040 0
DWIDTH 13 0
BBX 10 10 2 0
BITMAP
8000
8000
8000
8000
8000
8000
8000
8000
8000
FFC0
ENDCHAR
STARTCHAR 2220
ENCODING 8736
SWIDTH 1040 0
DWIDTH 13 0
BBX 10 9 1 0
BITMAP
0080
0100
0600
0C00
1000
2000
6000
4000
FFC0
ENDCHAR
STARTCHAR 2227
ENCODING 8743
SWIDTH 1040 0
DWIDTH 13 0
BBX 12 13 0 -2
BITMAP
0600
0600
0B00
0B00
1080
1080
2040
2040
6060
4020
4020
8010
8010
ENDCHAR
STARTCHAR 2228
ENCODING 8744
SWIDTH 1040 0
DWIDTH 13 0
BBX 12 13 0 -2
BITMAP
8010
8010
4020
4020
2040
2040
1080
1080
1900
0B00
0B00
0600
0600
ENDCHAR
STARTCHAR 2229
ENCODING 8745
SWIDTH 1040 0
DWIDTH 13 0
BBX 8 11 2 -1
BITMAP
3C
42
81
81
81
81
81
81
81
81
81
ENDCHAR
STARTCHAR 222A
ENCODING 8746
SWIDTH 1040 0
DWIDTH 13 0
BBX 8 11 2 -1
BITMAP
81
81
81
81
81
81
81
81
81
42
3C
ENDCHAR
STARTCHAR 222B
ENCODING 8747
SWIDTH 1040 0
DWIDTH 13 0
BBX 4 13 4 -2
BITMAP
60
B0
B0
80
60
60
60
60
70
30
B0
B0
60
ENDCHAR
STARTCHAR 222C
ENCODING 8748
SWIDTH 1040 0
DWIDTH 13 0
BBX 8 13 2 -2
BITMAP
63
AD
8C
8C
CE
42
42
63
63
21
21
AD
CE
ENDCHAR
STARTCHAR 222E
ENCODING 8750
SWIDTH 1040 0
DWIDTH 13 0
BBX 6 13 3 -2
BITMAP
30
58
58
40
78
B4
B4
78
78
18
58
58
30
ENDCHAR
STARTCHAR 2234
ENCODING 8756
SWIDTH 1040 0
DWIDTH 13 0
BBX 9 9 2 0
BITMAP
1C00
1C00
0000
0000
0000
0000
C180
C180
C180
ENDCHAR
STARTCHAR 2235
ENCODING 8757
SWIDTH 1040 0
DWIDTH 13 0
BBX 9 9 2 0
BITMAP
C180
C180
0000
0000
0000
0000
1C00
1C00
1C00
ENDCHAR
STARTCHAR 223D
ENCODING 8765
SWIDTH 1040 0
DWIDTH 13 0
BBX 13 7 0 1
BITMAP
3060
4890
8308
8608
4890
50A0
3060
ENDCHAR
STARTCHAR 2252
ENCODING 8786
SWIDTH 1040 0
DWIDTH 13 0
BBX 9 10 2 0
BITMAP
6000
6000
0000
FF80
0000
FF80
0000
0300
0300
0300
ENDCHAR
STARTCHAR 2260
ENCODING 8800
SWIDTH 1040 0
DWIDTH 13 0
BBX 9 9 2 0
BITMAP
0200
0200
FF80
0C00
1800
FF80
E000
2000
2000
ENDCHAR
STARTCHAR 2261
ENCODING 8801
SWIDTH 1040 0
DWIDTH 13 0
BBX 9 6 2 2
BITMAP
FF80
0000
FF80
0000
FF80
FF80
ENDCHAR
STARTCHAR 2266
ENCODING 8806
SWIDTH 1040 0
DWIDTH 13 0
BBX 9 10 2 0
BITMAP
0380
1C00
E000
1C00
0380
0000
FF80
FF80
0000
FF80
ENDCHAR
STARTCHAR 2267
ENCODING 8807
SWIDTH 1040 0
DWIDTH 13 0
BBX 9 10 2 0
BITMAP
E000
1C00
0380
1C00
E000
0000
FF80
FF80
0000
FF80
ENDCHAR
STARTCHAR 226A
ENCODING 8810
SWIDTH 1040 0
DWIDTH 13 0
BBX 9 10 2 0
BITMAP
0C80
1900
2200
4C00
9800
4C00
2200
3B00
1900
0C80
ENDCHAR
STARTCHAR 226B
ENCODING 8811
SWIDTH 1040 0
DWIDTH 13 0
BBX 9 10 2 0
BITMAP
9800
4C00
2200
1900
0C80
1900
2200
4400
4C00
9800
ENDCHAR
STARTCHAR 2282
ENCODING 8834
SWIDTH 1040 0
DWIDTH 13 0
BBX 9 8 2 1
BITMAP
3F80
4000
8000
8000
8000
4000
7F80
3F80
ENDCHAR
STARTCHAR 2283
ENCODING 8835
SWIDTH 1040 0
DWIDTH 13 0
BBX 9 8 2 1
BITMAP
FE00
0100
0080
0080
0080
0100
FF00
FE00
ENDCHAR
STARTCHAR 2286
ENCODING 8838
SWIDTH 1040 0
DWIDTH 13 0
BBX 9 9 2 0
BITMAP
7F80
8000
8000
8000
8000
7F80
7F80
0000
FF80
ENDCHAR
STARTCHAR 2287
ENCODING 8839
SWIDTH 1040 0
DWIDTH 13 0
BBX 9 9 2 0
BITMAP
FF00
0080
0080
0080
0080
FF00
FF00
0000
FF80
ENDCHAR
STARTCHAR 22A5
ENCODING 8869
SWIDTH 1040 0
DWIDTH 13 0
BBX 10 10 1 0
BITMAP
0C00
0C00
0C00
0C00
0C00
0C00
0C00
0C00
0C00
FFC0
ENDCHAR
STARTCHAR 22BF
ENCODING 8895
SWIDTH 1040 0
DWIDTH 13 0
BBX 9 9 2 0
BITMAP
0080
0180
0280
0C80
1880
2080
4080
4080
FF80
ENDCHAR
STARTCHAR 2312
ENCODING 8978
SWIDTH 1040 0
DWIDTH 13 0
BBX 11 3 1 6
BITMAP
1F00
60C0
8020
ENDCHAR
STARTCHAR 2460
ENCODING 9312
SWIDTH 1040 0
DWIDTH 13 0
BBX 13 13 0 -2
BITMAP
0F80
3060
4610
4E10
8608
8608
8608
8608
C618
4610
4F10
3060
0F80
ENDCHAR
STARTCHAR 2461
ENCODING 9313
SWIDTH 1040 0
DWIDTH 13 0
BBX 13 13 0 -2
BITMAP
0F80
3060
4710
4890
8888
8308
8608
8808
C898
4890
4F90
3060
0F80
ENDCHAR
STARTCHAR 2462
ENCODING 9314
SWIDTH 1040 0
DWIDTH 13 0
BBX 13 13 0 -2
BITMAP
0F80
3060
4710
4890
8088
8708
8088
8888
C898
4890
4710
3060
0F80
ENDCHAR
STARTCHAR 2463
ENCODING 9315
SWIDTH 1040 0
DWIDTH 13 0
BBX 13 13 0 -2
BITMAP
0F80
3060
4310
4710
8B08
8B08
9308
9FC8
DF10
4310
4790
3060
0F80
ENDCHAR
STARTCHAR 2464
ENCODING 9316
SWIDTH 1040 0
DWIDTH 13 0
BBX 13 13 0 -2
BITMAP
0F80
3060
4F90
4810
8808
8F08
8888
8088
C898
4890
4710
3060
0F80
ENDCHAR
STARTCHAR 2465
ENCODING 9317
SWIDTH 1040 0
DWIDTH 13 0
BBX 13 13 0 -2
BITMAP
0F80
3060
4710
4890
8808
8F08
8888
8888
C898
4890
4710
3060
0F80
ENDCHAR
STARTCHAR 2466
ENCODING 9318
SWIDTH 1040 0
DWIDTH 13 0
BBX 13 13 0 -2
BITMAP
0F80
3060
4010
4F90
8888
8308
8308
8608
C618
4610
4610
3060
0F80
ENDCHAR
STARTCHAR 2467
ENCODING 9319
SWIDTH 1040 0
DWIDTH 13 0
BBX 13 13 0 -2
BITMAP
0F80
3060
4710
4890
8888
8708
8888
8888
C898
4890
4710
3060
0F80
ENDCHAR
STARTCHAR 2468
ENCODING 9320
SWIDTH 1040 0
DWIDTH 13 0
BBX 13 13 0 -2
BITMAP
0F80
3060
4710
4890
8888
8888
8788
8088
C898
4890
4710
3060
0F80
ENDCHAR
STARTCHAR 2469
ENCODING 9321
SWIDTH 1040 0
DWIDTH 13 0
BBX 13 13 0 -2
BITMAP
0F80
3060
4890
5B50
8B48
8B48
8B48
8B48
CB58
4B50
5E90
3060
0F80
ENDCHAR
STARTCHAR 246A
ENCODING 9322
SWIDTH 1040 0
DWIDTH 13 0
BBX 13 13 0 -2
BITMAP
0F80
3060
4890
5B90
8888
8888
8888
8888
C898
4890
5FD0
3060
0F80
ENDCHAR
STARTCHAR 246B
ENCODING 9323
SWIDTH 1040 0
DWIDTH 13 0
BBX 13 13 0 -2
BITMAP
0F80
3060
4890
5B50
8B48
8848
8888
8B08
CB50
4B50
5BD0
3060
0F80
ENDCHAR
STARTCHAR 246C
ENCODING 9324
SWIDTH 1040 0
DWIDTH 13 0
BBX 13 13 0 -2
BITMAP
0F80
3060
4890
5B50
8848
8888
8848
8B48
CB58
4B50
5890
3060
0F80
ENDCHAR
STARTCHAR 246D
ENCODING 9325
SWIDTH 1040 0
DWIDTH 13 0
BBX 13 13 0 -2
BITMAP
0F80
3060
4850
58D0
8B48
8B48
8B48
8BE8
CBD8
4850
5ED0
3060
0F80
ENDCHAR
STARTCHAR 246E
ENCODING 9326
SWIDTH 1040 0
DWIDTH 13 0
BBX 13 13 0 -2
BITMAP
0F80
3060
4BD0
5B10
8B08
8B88
8B48
8848
CB50
4B50
5890
3060
0F80
ENDCHAR
STARTCHAR 246F
ENCODING 9327
SWIDTH 1040 0
DWIDTH 13 0
BBX 13 13 0 -2
BITMAP
0F80
3060
4890
5B50
8B08
8B88
8B48
8B48
CB50
4B50
5890
3060
0F80
ENDCHAR
STARTCHAR 2470
ENCODING 9328
SWIDTH 1040 0
DWIDTH 13 0
BBX 13 13 0 -2
BITMAP
0F80
3060
4BD0
5B50
8B48
8848
8888
8888
CB90
4B10
5B10
3060
0F80
ENDCHAR
STARTCHAR 2471
ENCODING 9329
SWIDTH 1040 0
DWIDTH 13 0
BBX 13 13 0 -2
BITMAP
0F80
3060
4890
5B50
8B48
8888
8B48
8B48
CB50
4B50
5890
3060
0F80
ENDCHAR
STARTCHAR 2472
ENCODING 9330
SWIDTH 1040 0
DWIDTH 13 0
BBX 13 13 0 -2
BITMAP
0F80
3060
4890
5B50
8B48
8B48
88C8
8848
CB50
4B50
5890
3060
0F80
ENDCHAR
STARTCHAR 2473
ENCODING 9331
SWIDTH 1040 0
DWIDTH 13 0
BBX 13 13 0 -2
BITMAP
0F80
3060
4E90
5350
9348
8748
8B48
9348
D358
5350
5E90
3060
0F80
ENDCHAR
STARTCHAR 2581
ENCODING 9601
SWIDTH 1040 0
DWIDTH 13 0
BBX 5 11 0 -1
BITMAP
80
80
40
40
20
20
10
10
10
08
08
ENDCHAR
STARTCHAR 2582
ENCODING 9602
SWIDTH 1040 0
DWIDTH 13 0
BBX 5 3 0 7
BITMAP
40
A8
10
ENDCHAR
STARTCHAR 2583
ENCODING 9603
SWIDTH 1040 0
DWIDTH 13 0
BBX 1 11 2 -1
BITMAP
80
80
80
80
00
00
80
80
80
80
80
ENDCHAR
STARTCHAR 25A0
ENCODING 9632
SWIDTH 1040 0
DWIDTH 13 0
BBX 13 13 0 -2
BITMAP
FFF8
FFF8
FFF8
FFF8
FFF8
FFF8
FFF8
FFF8
FFF8
FFF8
FFF8
FFF8
FFF8
ENDCHAR
STARTCHAR 25A1
ENCODING 9633
SWIDTH 1040 0
DWIDTH 13 0
BBX 13 13 0 -2
BITMAP
FFF8
8008
8008
8008
8008
8008
8008
8008
8008
8008
8008
8008
FFF8
ENDCHAR
STARTCHAR 25B2
ENCODING 9650
SWIDTH 1040 0
DWIDTH 13 0
BBX 12 11 0 -1
BITMAP
0600
0600
0F00
0F00
1F80
1F80
3FC0
3FC0
3FC0
7FE0
FFF0
ENDCHAR
STARTCHAR 25B3
ENCODING 9651
SWIDTH 1040 0
DWIDTH 13 0
BBX 12 11 0 -1
BITMAP
0600
0600
0B00
0B00
1080
1080
2040
2040
2040
4020
FFF0
ENDCHAR
STARTCHAR 25BC
ENCODING 9660
SWIDTH 1040 0
DWIDTH 13 0
BBX 12 11 0 -1
BITMAP
FFF0
7FE0
3FC0
3FC0
1F80
1F80
0F00
0F00
0F00
0600
0600
ENDCHAR
STARTCHAR 25BD
ENCODING 9661
SWIDTH 1040 0
DWIDTH 13 0
BBX 12 11 0 -1
BITMAP
FFF0
4020
2040
2040
1080
1080
0B00
0B00
0B00
0600
0600
ENDCHAR
STARTCHAR 25C6
ENCODING 9670
SWIDTH 1040 0
DWIDTH 13 0
BBX 13 13 0 -2
BITMAP
0700
0F80
1FC0
3FE0
7FF0
FFF8
FFF8
7FF0
7FE0
3FE0
1FC0
0F80
0700
ENDCHAR
STARTCHAR 25C7
ENCODING 9671
SWIDTH 1040 0
DWIDTH 13 0
BBX 13 13 0 -2
BITMAP
0700
0880
1040
2020
4010
8008
8008
4010
6020
2020
1040
0880
0700
ENDCHAR
STARTCHAR 25CB
ENCODING 9675
SWIDTH 1040 0
DWIDTH 13 0
BBX 13 13 0 -2
BITMAP
0F80
3060
4010
4010
8008
8008
8008
8008
C018
4010
4010
3060
0F80
ENDCHAR
STARTCHAR 25CE
ENCODING 9678
SWIDTH 1040 0
DWIDTH 13 0
BBX 13 13 0 -2
BITMAP
0F80
3060
4010
4F90
9048
9048
9048
9048
DFD8
4F90
4010
3060
0F80
ENDCHAR
STARTCHAR 25CF
ENCODING 9679
SWIDTH 1040 0
DWIDTH 13 0
BBX 13 13 0 -2
BITMAP
0F80
3FE0
7FF0
7FF0
FFF8
FFF8
FFF8
FFF8
FFF0
7FF0
7FF0
3FE0
0F80
ENDCHAR
STARTCHAR 25EF
ENCODING 9711
SWIDTH 1040 0
DWIDTH 13 0
BBX 13 13 0 -2
BITMAP
0F80
3060
4010
4010
8008
8008
8008
8008
C018
4010
4010
3060
0F80
ENDCHAR
STARTCHAR 2605
ENCODING 9733
SWIDTH 1040 0
DWIDTH 13 0
BBX 12 13 0 -2
BITMAP
0600
0600
0F00
0F00
FFF0
7FE0
3FC0
1F80
1FC0
3FC0
3BC0
70E0
4020
ENDCHAR
STARTCHAR 2606
ENCODING 9734
SWIDTH 1040 0
DWIDTH 13 0
BBX 12 13 0 -2
BITMAP
0600
0600
0B00
0B00
F0F0
4020
2040
1080
36C0
2640
2B40
70E0
4020
ENDCHAR
STARTCHAR 2640
ENCODING 9792
SWIDTH 1040 0
DWIDTH 13 0
BBX 9 13 2 -2
BITMAP
1C00
2200
4100
4100
2200
1C00
1800
FF80
F800
1800
1800
1800
1800
ENDCHAR
STARTCHAR 2642
ENCODING 9794
SWIDTH 1040 0
DWIDTH 13 0
BBX 12 12 0 -2
BITMAP
03F0
0030
0050
0090
0310
3600
4800
8E00
8600
8600
4800
3000
ENDCHAR
STARTCHAR 266A
ENCODING 9834
SWIDTH 1040 0
DWIDTH 13 0
BBX 9 12 1 -2
BITMAP
0C00
0E00
0F00
0D80
0C80
0C80
0D00
0D00
7C00
F000
F000
4000
ENDCHAR
STARTCHAR 266D
ENCODING 9837
SWIDTH 1040 0
DWIDTH 13 0
BBX 6 12 4 -2
BITMAP
80
80
80
B8
EC
8C
88
88
B8
B0
E0
80
ENDCHAR
STARTCHAR 266F
ENCODING 9839
SWIDTH 1040 0
DWIDTH 13 0
BBX 9 13 2 -2
BITMAP
0200
2200
2380
3F80
FE00
E200
2380
3F80
3E00
FE00
E200
2200
2000
ENDCHAR
STARTCHAR 3000
ENCODING 12288
SWIDTH 1040 0
DWIDTH 13 0
BBX 0 0 0 0
BITMAP
ENDCHAR
STARTCHAR 3001
ENCODING 12289
SWIDTH 1040 0
DWIDTH 13 0
BBX 4 5 0 -2
BITMAP
80
80
40
20
30
ENDCHAR
STARTCHAR 3002
ENCODING 12290
SWIDTH 1040 0
DWIDTH 13 0
BBX 4 5 0 -2
BITMAP
60
60
90
90
60
ENDCHAR
STARTCHAR 3003
ENCODING 12291
SWIDTH 1040 0
DWIDTH 13 0
BBX 7 6 3 2
BITMAP
76
44
44
98
98
98
ENDCHAR
STARTCHAR 3005
ENCODING 12293
SWIDTH 1040 0
DWIDTH 13 0
BBX 11 11 0 -1
BITMAP
0E00
0840
0FE0
1040
1080
2B00
4600
C700
8300
0080
00C0
ENDCHAR
STARTCHAR 3006
ENCODING 12294
SWIDTH 1040 0
DWIDTH 13 0
BBX 12 13 0 -2
BITMAP
0040
0030
0020
0040
0E80
1300
2680
28C0
70C0
5000
6000
4000
C000
ENDCHAR
STARTCHAR 3007
ENCODING 12295
SWIDTH 1040 0
DWIDTH 13 0
BBX 13 11 0 -1
BITMAP
0F80
3060
4010
8008
8008
8008
8008
C018
4010
3060
0F80
ENDCHAR
STARTCHAR 3008
ENCODING 12296
SWIDTH 1040 0
DWIDTH 13 0
BBX 4 13 8 -2
BITMAP
10
20
20
40
40
80
80
40
40
40
20
20
10
ENDCHAR
STARTCHAR 3009
ENCODING 12297
SWIDTH 1040 0
DWIDTH 13 0
BBX 4 13 1 -2
BITMAP
80
40
40
20
20
10
10
20
20
20
40
40
80
ENDCHAR
STARTCHAR 300A
ENCODING 12298
SWIDTH 1040 0
DWIDTH 13 0
BBX 7 13 5 -2
BITMAP
0A
14
14
68
68
D0
D0
68
68
68
14
14
0A
ENDCHAR
STARTCHAR 300B
ENCODING 12299
SWIDTH 1040 0
DWIDTH 13 0
BBX 7 13 1 -2
BITMAP
A0
50
50
2C
2C
16
16
2C
2C
2C
50
50
A0
ENDCHAR
STARTCHAR 300C
ENCODING 12300
SWIDTH 1040 0
DWIDTH 13 0
BBX 4 11 8 0
BITMAP
F0
80
80
80
80
80
80
80
80
80
80
ENDCHAR
STARTCHAR 300D
ENCODING 12301
SWIDTH 1040 0
DWIDTH 13 0
BBX 4 11 1 -2
BITMAP
10
10
10
10
10
10
10
10
10
10
F0
ENDCHAR
STARTCHAR 300E
ENCODING 12302
SWIDTH 1040 0
DWIDTH 13 0
BBX 6 11 6 0
BITMAP
FC
C4
DC
D0
D0
D0
D0
D0
D0
D0
F0
ENDCHAR
STARTCHAR 300F
ENCODING 12303
SWIDTH 1040 0
DWIDTH 13 0
BBX 6 11 1 -2
BITMAP
3C
2C
2C
2C
2C
2C
2C
2C
EC
8C
FC
ENDCHAR
STARTCHAR 3010
ENCODING 12304
SWIDTH 1040 0
DWIDTH 13 0
BBX 4 13 8 -2
BITMAP
F0
E0
C0
C0
C0
C0
C0
C0
C0
C0
C0
E0
F0
ENDCHAR
STARTCHAR 3011
ENCODING 12305
SWIDTH 1040 0
DWIDTH 13 0
BBX 4 13 1 -2
BITMAP
F0
70
30
30
30
30
30
30
30
30
30
70
F0
ENDCHAR
STARTCHAR 3012
ENCODING 12306
SWIDTH 1040 0
DWIDTH 13 0
BBX 13 12 0 -2
BITMAP
FFF8
FFF8
0000
FFF8
FFF8
0700
0700
0700
0700
0700
0700
0700
ENDCHAR
STARTCHAR 3013
ENCODING 12307
SWIDTH 1040 0
DWIDTH 13 0
BBX 9 7 2 1
BITMAP
FF80
FF80
0000
0000
FF80
FF80
FF80
ENDCHAR
STARTCHAR 3014
ENCODING 12308
SWIDTH 1040 0
DWIDTH 13 0
BBX 3 13 9 -2
BITMAP
20
40
80
80
80
80
80
80
80
80
80
40
20
ENDCHAR
STARTCHAR 3015
ENCODING 12309
SWIDTH 1040 0
DWIDTH 13 0
BBX 3 13 1 -2
BITMAP
80
40
20
20
20
20
20
20
20
20
20
40
80
ENDCHAR
STARTCHAR 301C
ENCODING 12316
SWIDTH 1040 0
DWIDTH 13 0
BBX 13 5 0 2
BITMAP
3800
4608
8310
00E0
00E0
ENDCHAR
STARTCHAR 301D
ENCODING 12317
SWIDTH 1040 0
DWIDTH 13 0
BBX 4 3 8 7
BITMAP
50
50
A0
ENDCHAR
STARTCHAR 301F
ENCODING 12319
SWIDTH 1040 0
DWIDTH 13 0
BBX 4 4 1 -1
BITMAP
50
50
50
A0
ENDCHAR
STARTCHAR 3041
ENCODING 12353
SWIDTH 1040 0
DWIDTH 13 0
BBX 8 9 3 -2
BITMAP
30
3C
F2
3E
35
75
B9
D9
86
ENDCHAR
STARTCHAR 3042
ENCODING 12354
SWIDTH 1040 0
DWIDTH 13 0
BBX 11 13 1 -2
BITMAP
1C00
0C00
0F00
7C00
1600
1F80
3640
5620
9420
9C20
AC20
C040
0180
ENDCHAR
STARTCHAR 3043
ENCODING 12355
SWIDTH 1040 0
DWIDTH 13 0
BBX 9 8 2 -2
BITMAP
8200
4100
4080
4080
4180
5800
6000
2000
ENDCHAR
STARTCHAR 3044
ENCODING 12356
SWIDTH 1040 0
DWIDTH 13 0
BBX 11 10 1 -1
BITMAP
8000
4080
4040
4020
4C20
5060
6060
6000
2000
2000
ENDCHAR
STARTCHAR 3045
ENCODING 12357
SWIDTH 1040 0
DWIDTH 13 0
BBX 7 10 3 -2
BITMAP
30
1C
00
BC
C2
C2
02
02
04
38
ENDCHAR
STARTCHAR 3046
ENCODING 12358
SWIDTH 1040 0
DWIDTH 13 0
BBX 7 13 3 -2
BITMAP
30
1C
04
00
BC
C2
02
02
02
02
04
04
38
ENDCHAR
STARTCHAR 3047
ENCODING 12359
SWIDTH 1040 0
DWIDTH 13 0
BBX 9 9 2 -2
BITMAP
1800
0E00
5C00
6C00
6C00
1C00
2C00
4C80
C380
ENDCHAR
STARTCHAR 3048
ENCODING 12360
SWIDTH 1040 0
DWIDTH 13 0
BBX 11 13 1 -2
BITMAP
1000
0F00
0000
4F00
7100
0600
0C00
1000
2C00
2C00
4600
C600
81E0
ENDCHAR
STARTCHAR 3049
ENCODING 12361
SWIDTH 1040 0
DWIDTH 13 0
BBX 9 8 2 -2
BITMAP
6100
3C80
E080
E100
3F00
E080
AC80
6300
ENDCHAR
STARTCHAR 304A
ENCODING 12362
SWIDTH 1040 0
DWIDTH 13 0
BBX 11 13 1 -2
BITMAP
4000
3080
2040
3C60
E000
21C0
2E20
3020
2020
6020
A620
61C0
2000
ENDCHAR
STARTCHAR 304B
ENCODING 12363
SWIDTH 1040 0
DWIDTH 13 0
BBX 13 13 0 -2
BITMAP
1000
0E00
0800
0E40
B320
D310
1308
2338
2338
2308
5600
CE00
8800
ENDCHAR
STARTCHAR 304C
ENCODING 12364
SWIDTH 1040 0
DWIDTH 13 0
BBX 13 13 0 -2
BITMAP
1010
0E28
0810
0E50
B320
D310
1308
2338
2338
2308
5600
CE00
8800
ENDCHAR
STARTCHAR 304D
ENCODING 12365
SWIDTH 1040 0
DWIDTH 13 0
BBX 9 13 2 -2
BITMAP
3800
1A00
9E00
7880
0F00
7C00
0200
7D00
8500
8300
8000
4000
3C00
ENDCHAR
STARTCHAR 304E
ENCODING 12366
SWIDTH 1040 0
DWIDTH 13 0
BBX 10 13 2 -2
BITMAP
3880
1940
9E80
7880
0F00
7C00
0200
7D00
8500
8300
8000
4000
3C00
ENDCHAR
STARTCHAR 304F
ENCODING 12367
SWIDTH 1040 0
DWIDTH 13 0
BBX 6 13 3 -2
BITMAP
18
1C
18
30
40
80
80
40
70
30
18
04
04
ENDCHAR
STARTCHAR 3050
ENCODING 12368
SWIDTH 1040 0
DWIDTH 13 0
BBX 9 13 3 -2
BITMAP
1800
1C00
1900
3280
4100
8100
8000
4000
7000
3000
1800
0400
0400
ENDCHAR
STARTCHAR 3051
ENCODING 12369
SWIDTH 1040 0
DWIDTH 13 0
BBX 12 13 1 -2
BITMAP
0180
8080
6080
40F0
5F80
8080
8080
8080
A080
A080
C100
4100
4600
ENDCHAR
STARTCHAR 3052
ENCODING 12370
SWIDTH 1040 0
DWIDTH 13 0
BBX 12 13 1 -2
BITMAP
01A0
80D0
60A0
4080
40F0
9F80
8080
8080
A080
A080
C100
4100
4600
ENDCHAR
STARTCHAR 3053
ENCODING 12371
SWIDTH 1040 0
DWIDTH 13 0
BBX 9 10 2 -1
BITMAP
7F00
0200
0000
0000
4000
8000
8000
8000
8000
7F80
ENDCHAR
STARTCHAR 3054
ENCODING 12372
SWIDTH 1040 0
DWIDTH 13 0
BBX 10 12 2 -1
BITMAP
0080
0140
7E80
0C80
0000
0000
4000
8000
8000
8000
8000
7F80
ENDCHAR
STARTCHAR 3055
ENCODING 12373
SWIDTH 1040 0
DWIDTH 13 0
BBX 9 13 2 -2
BITMAP
3800
2180
1900
8E00
7A00
0100
1E80
2180
4180
4000
4000
3800
0F00
ENDCHAR
STARTCHAR 3056
ENCODING 12374
SWIDTH 1040 0
DWIDTH 13 0
BBX 11 13 2 -2
BITMAP
3840
20A0
1B40
8E40
7A00
0100
1E80
2180
4180
4000
4000
3800
0F00
ENDCHAR
STARTCHAR 3057
ENCODING 12375
SWIDTH 1040 0
DWIDTH 13 0
BBX 9 13 2 -2
BITMAP
8000
6000
4000
4000
4000
4000
4000
4000
4080
4080
4100
4E00
3800
ENDCHAR
STARTCHAR 3058
ENCODING 12376
SWIDTH 1040 0
DWIDTH 13 0
BBX 9 13 2 -2
BITMAP
8000
6100
4280
4100
4100
4000
4000
4000
4080
4080
4100
4E00
3800
ENDCHAR
STARTCHAR 3059
ENCODING 12377
SWIDTH 1040 0
DWIDTH 13 0
BBX 13 13 0 -2
BITMAP
0600
0380
0300
0FF8
F300
0F00
1300
1300
1300
0F00
0300
0300
0E00
ENDCHAR
STARTCHAR 305A
ENCODING 12378
SWIDTH 1040 0
DWIDTH 13 0
BBX 13 13 0 -2
BITMAP
0650
03A8
0310
0FF8
F300
0F00
1300
1300
1300
0F00
0300
0300
0E00
ENDCHAR
STARTCHAR 305B
ENCODING 12379
SWIDTH 1040 0
DWIDTH 13 0
BBX 13 13 0 -2
BITMAP
0300
20C0
1880
1080
17F8
F880
1080
1300
1300
1300
1000
0800
07E0
ENDCHAR
STARTCHAR 305C
ENCODING 12380
SWIDTH 1040 0
DWIDTH 13 0
BBX 13 13 0 -2
BITMAP
0050
23A8
18A0
1080
17F8
F880
1080
1300
1300
1300
1000
0800
07E0
ENDCHAR
STARTCHAR 305D
ENCODING 12381
SWIDTH 1040 0
DWIDTH 13 0
BBX 10 12 1 -2
BITMAP
2F00
3100
0600
0C00
1FC0
E600
0C00
0C00
0C00
0C00
0C00
0700
ENDCHAR
STARTCHAR 305E
ENCODING 12382
SWIDTH 1040 0
DWIDTH 13 0
BBX 12 12 1 -2
BITMAP
2F20
3150
0620
0C20
1FC0
E600
0C00
0C00
0C00
0C00
0C00
0700
ENDCHAR
STARTCHAR 305F
ENCODING 12383
SWIDTH 1040 0
DWIDTH 13 0
BBX 11 12 1 -1
BITMAP
2000
1C00
1000
9E00
71E0
1000
1000
2000
2600
2600
4100
40E0
ENDCHAR
STARTCHAR 3060
ENCODING 12384
SWIDTH 1040 0
DWIDTH 13 0
BBX 13 12 0 -1
BITMAP
2010
1828
1010
9E00
73E0
1000
1000
2000
2600
2600
4300
40E0
ENDCHAR
STARTCHAR 3061
ENCODING 12385
SWIDTH 1040 0
DWIDTH 13 0
BBX 10 13 1 -2
BITMAP
2000
1C00
1000
1F00
F000
2000
2780
3C40
2040
2040
0040
0080
0F00
ENDCHAR
STARTCHAR 3062
ENCODING 12386
SWIDTH 1040 0
DWIDTH 13 0
BBX 11 13 1 -2
BITMAP
2000
1C40
10A0
1E40
F040
2000
2780
3C40
2040
2040
0040
0080
0F00
ENDCHAR
STARTCHAR 3063
ENCODING 12387
SWIDTH 1040 0
DWIDTH 13 0
BBX 9 7 2 -2
BITMAP
1F00
A080
C080
C080
0080
0300
1C00
ENDCHAR
STARTCHAR 3064
ENCODING 12388
SWIDTH 1040 0
DWIDTH 13 0
BBX 11 9 1 -1
BITMAP
0FC0
B020
C020
0020
0020
0060
0040
0180
0E00
ENDCHAR
STARTCHAR 3065
ENCODING 12389
SWIDTH 1040 0
DWIDTH 13 0
BBX 12 12 1 -1
BITMAP
0020
0050
0020
0FD0
B020
C020
0020
0020
0060
0040
0180
0E00
ENDCHAR
STARTCHAR 3066
ENCODING 12390
SWIDTH 1040 0
DWIDTH 13 0
BBX 12 10 0 -1
BITMAP
07F0
BB00
C600
0600
0800
0800
0800
0800
0600
03E0
ENDCHAR
STARTCHAR 3067
ENCODING 12391
SWIDTH 1040 0
DWIDTH 13 0
BBX 13 10 0 -1
BITMAP
07E0
BB10
C628
0610
0810
0800
0800
0800
0600
03E0
ENDCHAR
STARTCHAR 3068
ENCODING 12392
SWIDTH 1040 0
DWIDTH 13 0
BBX 7 13 3 -2
BITMAP
80
70
40
40
42
36
38
40
80
80
80
80
7E
ENDCHAR
STARTCHAR 3069
ENCODING 12393
SWIDTH 1040 0
DWIDTH 13 0
BBX 9 13 3 -2
BITMAP
8100
7280
4100
4100
4200
3600
3800
4000
8000
8000
8000
8000
7E00
ENDCHAR
STARTCHAR 306A
ENCODING 12394
SWIDTH 1040 0
DWIDTH 13 0
BBX 11 13 1 -2
BITMAP
2000
1C00
1680
FC60
20A0
2100
4100
C100
8100
8F00
11C0
1120
0E00
ENDCHAR
STARTCHAR 306B
ENCODING 12395
SWIDTH 1040 0
DWIDTH 13 0
BBX 10 12 2 -2
BITMAP
8000
6F80
4100
4000
8000
8000
8000
AC00
AC00
CC00
43C0
4000
ENDCHAR
STARTCHAR 306C
ENCODING 12396
SWIDTH 1040 0
DWIDTH 13 0
BBX 12 12 1 -1
BITMAP
0C00
0600
2600
2FC0
3620
2620
6C20
AC20
B7E0
97C0
A660
4190
ENDCHAR
STARTCHAR 306D
ENCODING 12397
SWIDTH 1040 0
DWIDTH 13 0
BBX 12 13 1 -2
BITMAP
4000
3000
2000
3DC0
A620
EC20
3020
2020
27E0
67C0
A660
A190
2000
ENDCHAR
STARTCHAR 306E
ENCODING 12398
SWIDTH 1040 0
DWIDTH 13 0
BBX 11 10 1 -1
BITMAP
1F80
2640
4C20
4C20
9020
9020
A060
A040
6080
0700
ENDCHAR
STARTCHAR 306F
ENCODING 12399
SWIDTH 1040 0
DWIDTH 13 0
BBX 11 12 1 -2
BITMAP
8180
6080
40E0
4F80
8080
8080
8080
A080
A780
CCC0
4CA0
4700
ENDCHAR
STARTCHAR 3070
ENCODING 12400
SWIDTH 1040 0
DWIDTH 13 0
BBX 12 13 1 -2
BITMAP
0020
8750
6120
41E0
5F00
8100
8100
8100
A100
AF00
D1C0
5120
4E00
ENDCHAR
STARTCHAR 3071
ENCODING 12401
SWIDTH 1040 0
DWIDTH 13 0
BBX 12 13 1 -2
BITMAP
0070
8750
6170
41C0
5F00
8100
8100
8100
A100
AF00
D1C0
5120
4E00
ENDCHAR
STARTCHAR 3072
ENCODING 12402
SWIDTH 1040 0
DWIDTH 13 0
BBX 12 11 1 -2
BITMAP
9C80
6C80
10C0
20A0
20B0
4090
4110
4100
4100
4600
3C00
ENDCHAR
STARTCHAR 3073
ENCODING 12403
SWIDTH 1040 0
DWIDTH 13 0
BBX 13 12 0 -2
BITMAP
0010
98A8
6890
10D0
20A0
20B0
4090
4110
4300
4300
4600
3800
ENDCHAR
STARTCHAR 3074
ENCODING 12404
SWIDTH 1040 0
DWIDTH 13 0
BBX 13 12 0 -2
BITMAP
0038
98A8
68B8
10C0
20A0
20B0
4090
4110
4300
4300
4600
3800
ENDCHAR
STARTCHAR 3075
ENCODING 12405
SWIDTH 1040 0
DWIDTH 13 0
BBX 13 12 0 -2
BITMAP
0600
0380
0700
0800
0800
07E0
0B10
9398
9098
6688
4380
0300
ENDCHAR
STARTCHAR 3076
ENCODING 12406
SWIDTH 1040 0
DWIDTH 13 0
BBX 13 12 0 -2
BITMAP
0600
0390
0728
0810
0810
07E0
0B10
9398
9098
6688
4380
0300
ENDCHAR
STARTCHAR 3077
ENCODING 12407
SWIDTH 1040 0
DWIDTH 13 0
BBX 13 12 0 -2
BITMAP
0600
03B8
0728
0838
0800
07E0
0B10
9398
9098
6688
4380
0300
ENDCHAR
STARTCHAR 3078
ENCODING 12408
SWIDTH 1040 0
DWIDTH 13 0
BBX 13 8 0 1
BITMAP
0800
1600
1300
A080
6040
4020
4038
0018
ENDCHAR
STARTCHAR 3079
ENCODING 12409
SWIDTH 1040 0
DWIDTH 13 0
BBX 13 10 0 1
BITMAP
0020
00A0
0880
1600
1300
A080
6040
4020
4038
0018
ENDCHAR
STARTCHAR 307A
ENCODING 12410
SWIDTH 1040 0
DWIDTH 13 0
BBX 13 9 0 1
BITMAP
00E0
08A0
16E0
1300
A080
6040
4020
4038
0018
ENDCHAR
STARTCHAR 307B
ENCODING 12411
SWIDTH 1040 0
DWIDTH 13 0
BBX 11 12 1 -2
BITMAP
80C0
6F80
4080
40E0
8F80
8080
8080
A080
A780
CCC0
4CA0
4700
ENDCHAR
STARTCHAR 307C
ENCODING 12412
SWIDTH 1040 0
DWIDTH 13 0
BBX 12 13 1 -2
BITMAP
0020
8050
6FB0
40A0
40E0
8F80
8080
8080
A080
A780
CCC0
4CA0
4700
ENDCHAR
STARTCHAR 307D
ENCODING 12413
SWIDTH 1040 0
DWIDTH 13 0
BBX 12 13 1 -2
BITMAP
0070
8050
6FF0
4080
40E0
8F80
8080
8080
A080
A780
CCC0
4CA0
4700
ENDCHAR
STARTCHAR 307E
ENCODING 12414
SWIDTH 1040 0
DWIDTH 13 0
BBX 10 13 1 -2
BITMAP
0E00
0600
8780
7E00
4780
3E00
0600
0600
0600
3E00
4780
46C0
3C00
ENDCHAR
STARTCHAR 307F
ENCODING 12415
SWIDTH 1040 0
DWIDTH 13 0
BBX 12 12 1 -2
BITMAP
0E00
7600
0C00
0C40
1040
7F40
90C0
A0B0
A0B0
C100
0600
0C00
ENDCHAR
STARTCHAR 3080
ENCODING 12416
SWIDTH 1040 0
DWIDTH 13 0
BBX 12 13 1 -2
BITMAP
3000
1000
1E40
F0A0
10B0
6090
A080
A040
A040
A040
6040
2040
1F80
ENDCHAR
STARTCHAR 3081
ENCODING 12417
SWIDTH 1040 0
DWIDTH 13 0
BBX 11 13 1 -2
BITMAP
0C00
0600
2600
2600
3FC0
2620
6C20
AC20
B020
9020
9C40
6080
0700
ENDCHAR
STARTCHAR 3082
ENCODING 12418
SWIDTH 1040 0
DWIDTH 13 0
BBX 9 13 2 -2
BITMAP
2000
1C00
1800
9800
6000
BA00
A100
6080
5C80
5C80
4080
2100
1E00
ENDCHAR
STARTCHAR 3083
ENCODING 12419
SWIDTH 1040 0
DWIDTH 13 0
BBX 10 10 1 -2
BITMAP
0C00
0600
3780
2C40
3040
F7C0
D780
0C00
0600
0600
ENDCHAR
STARTCHAR 3084
ENCODING 12420
SWIDTH 1040 0
DWIDTH 13 0
BBX 13 12 0 -2
BITMAP
0600
1380
28F0
2708
1E08
B310
C8E0
CEE0
0600
0600
0300
0300
ENDCHAR
STARTCHAR 3085
ENCODING 12421
SWIDTH 1040 0
DWIDTH 13 0
BBX 9 10 2 -2
BITMAP
0C00
4C00
5F00
AC80
AC80
EC80
DC80
4F00
0C00
3800
ENDCHAR
STARTCHAR 3086
ENCODING 12422
SWIDTH 1040 0
DWIDTH 13 0
BBX 11 12 1 -2
BITMAP
8600
67C0
4D20
5120
9120
AD20
AD20
CDE0
C7C0
4100
0600
1C00
ENDCHAR
STARTCHAR 3087
ENCODING 12423
SWIDTH 1040 0
DWIDTH 13 0
BBX 8 10 2 -2
BITMAP
38
18
1B
1C
18
18
78
9E
99
60
ENDCHAR
STARTCHAR 3088
ENCODING 12424
SWIDTH 1040 0
DWIDTH 13 0
BBX 10 13 1 -2
BITMAP
1000
0E00
0C00
0C80
0F80
0C00
0C00
0C00
0E00
7E00
8D80
8CC0
7000
ENDCHAR
STARTCHAR 3089
ENCODING 12425
SWIDTH 1040 0
DWIDTH 13 0
BBX 8 13 3 -2
BITMAP
30
18
1C
40
80
80
9E
B1
C1
C1
01
06
38
ENDCHAR
STARTCHAR 308A
ENCODING 12426
SWIDTH 1040 0
DWIDTH 13 0
BBX 7 12 3 -2
BITMAP
C0
5C
B2
B2
C2
82
82
82
82
04
04
38
ENDCHAR
STARTCHAR 308B
ENCODING 12427
SWIDTH 1040 0
DWIDTH 13 0
BBX 9 12 2 -2
BITMAP
5E00
6200
0C00
1800
2E00
3900
4080
5880
D880
2C80
2D00
1E00
ENDCHAR
STARTCHAR 308C
ENCODING 12428
SWIDTH 1040 0
DWIDTH 13 0
BBX 12 13 1 -2
BITMAP
4000
3000
2180
3640
AC40
EC40
3080
2080
2090
6090
A0A0
A040
2000
ENDCHAR
STARTCHAR 308D
ENCODING 12429
SWIDTH 1040 0
DWIDTH 13 0
BBX 9 12 2 -2
BITMAP
5E00
6200
0C00
1800
2E00
7900
C080
C080
0080
0080
0100
1E00
ENDCHAR
STARTCHAR 308E
ENCODING 12430
SWIDTH 1040 0
DWIDTH 13 0
BBX 9 8 2 -2
BITMAP
6000
3800
EF00
FF80
3880
6080
A100
6E00
ENDCHAR
STARTCHAR 308F
ENCODING 12431
SWIDTH 1040 0
DWIDTH 13 0
BBX 11 13 1 -2
BITMAP
4000
3000
2000
3C00
A7C0
EC20
3020
2020
2020
6020
A040
A780
2000
ENDCHAR
STARTCHAR 3090
ENCODING 12432
SWIDTH 1040 0
DWIDTH 13 0
BBX 11 12 1 -2
BITMAP
2F00
3100
0600
0C00
1FC0
3020
5020
B720
A720
ACC0
6C80
0700
ENDCHAR
STARTCHAR 3091
ENCODING 12433
SWIDTH 1040 0
DWIDTH 13 0
BBX 13 12 0 -2
BITMAP
1780
1B00
0600
0BC0
1E20
0B40
0F80
1FE0
1060
3890
4708
C618
ENDCHAR
STARTCHAR 3092
ENCODING 12434
SWIDTH 1040 0
DWIDTH 13 0
BBX 9 13 2 -2
BITMAP
3800
1800
1E00
F800
2000
7880
CD80
8E00
8C00
1C00
2C00
2000
1F80
ENDCHAR
STARTCHAR 3093
ENCODING 12435
SWIDTH 1040 0
DWIDTH 13 0
BBX 11 12 1 -2
BITMAP
0E00
0600
0C00
0C00
1000
2000
3C20
2620
6620
4640
C640
8180
ENDCHAR
STARTCHAR 309B
ENCODING 12443
SWIDTH 1040 0
DWIDTH 13 0
BBX 4 4 0 7
BITMAP
20
90
50
40
ENDCHAR
STARTCHAR 309C
ENCODING 12444
SWIDTH 1040 0
DWIDTH 13 0
BBX 4 4 0 7
BITMAP
60
90
90
60
ENDCHAR
STARTCHAR 309D
ENCODING 12445
SWIDTH 1040 0
DWIDTH 13 0
BBX 6 8 3 1
BITMAP
80
80
40
30
18
3C
7C
40
ENDCHAR
STARTCHAR 309E
ENCODING 12446
SWIDTH 1040 0
DWIDTH 13 0
BBX 7 9 3 1
BITMAP
04
9A
84
44
30
18
3C
7C
40
ENDCHAR
STARTCHAR 30A1
ENCODING 12449
SWIDTH 1040 0
DWIDTH 13 0
BBX 9 8 2 -2
BITMAP
0F80
F900
2200
3E00
1C00
1800
1800
2000
ENDCHAR
STARTCHAR 30A2
ENCODING 12450
SWIDTH 1040 0
DWIDTH 13 0
BBX 11 11 1 -2
BITMAP
0FE0
F040
0C80
0700
0600
0600
0600
0600
0C00
0C00
1000
ENDCHAR
STARTCHAR 30A3
ENCODING 12451
SWIDTH 1040 0
DWIDTH 13 0
BBX 7 8 2 -2
BITMAP
0E
0C
18
18
38
D8
18
18
ENDCHAR
STARTCHAR 30A4
ENCODING 12452
SWIDTH 1040 0
DWIDTH 13 0
BBX 8 12 2 -2
BITMAP
03
02
0C
0C
1C
2C
CC
CC
0C
0C
0C
0C
ENDCHAR
STARTCHAR 30A5
ENCODING 12453
SWIDTH 1040 0
DWIDTH 13 0
BBX 8 9 2 -2
BITMAP
38
19
9F
E1
82
82
82
0C
38
ENDCHAR
STARTCHAR 30A6
ENCODING 12454
SWIDTH 1040 0
DWIDTH 13 0
BBX 10 13 1 -2
BITMAP
1000
0E00
0C00
8FC0
7040
4040
4080
4080
4180
0100
0100
0600
0C00
ENDCHAR
STARTCHAR 30A7
ENCODING 12455
SWIDTH 1040 0
DWIDTH 13 0
BBX 9 7 2 -1
BITMAP
0F00
7800
1800
1800
1800
1F80
F800
ENDCHAR
STARTCHAR 30A8
ENCODING 12456
SWIDTH 1040 0
DWIDTH 13 0
BBX 11 9 1 0
BITMAP
07C0
7C00
0C00
0C00
0C00
0C00
0FE0
0FE0
F000
ENDCHAR
STARTCHAR 30A9
ENCODING 12457
SWIDTH 1040 0
DWIDTH 13 0
BBX 9 9 2 -2
BITMAP
0C00
0C00
7F80
1C00
2C00
2C00
4C00
9C00
0C00
ENDCHAR
STARTCHAR 30AA
ENCODING 12458
SWIDTH 1040 0
DWIDTH 13 0
BBX 11 13 1 -2
BITMAP
0600
0180
0100
0100
0FE0
F700
0D00
0D00
1D00
1100
2100
C700
0100
ENDCHAR
STARTCHAR 30AB
ENCODING 12459
SWIDTH 1040 0
DWIDTH 13 0
BBX 11 12 0 -2
BITMAP
0800
0700
0600
0FE0
7640
0840
1040
10C0
1080
2680
4380
8300
ENDCHAR
STARTCHAR 30AC
ENCODING 12460
SWIDTH 1040 0
DWIDTH 13 0
BBX 13 12 0 -2
BITMAP
0810
0728
0610
0FF0
7640
0840
1040
1080
1080
2680
4380
8300
ENDCHAR
STARTCHAR 30AD
ENCODING 12461
SWIDTH 1040 0
DWIDTH 13 0
BBX 10 13 1 -2
BITMAP
1000
0E00
0C00
0F80
7C00
0C00
07C0
1E00
2600
E600
0600
0600
0600
ENDCHAR
STARTCHAR 30AE
ENCODING 12462
SWIDTH 1040 0
DWIDTH 13 0
BBX 12 13 1 -2
BITMAP
1020
0E50
0C20
0FA0
7C00
0C00
07C0
1E00
2600
E600
0600
0600
0600
ENDCHAR
STARTCHAR 30AF
ENCODING 12463
SWIDTH 1040 0
DWIDTH 13 0
BBX 9 12 2 -2
BITMAP
3800
1800
1F80
2100
2100
4200
8200
8E00
0C00
1800
2000
4000
ENDCHAR
STARTCHAR 30B0
ENCODING 12464
SWIDTH 1040 0
DWIDTH 13 0
BBX 12 13 1 -2
BITMAP
0020
3050
1020
1FA0
2100
2100
4600
8600
8E00
0C00
1000
2000
4000
ENDCHAR
STARTCHAR 30B1
ENCODING 12465
SWIDTH 1040 0
DWIDTH 13 0
BBX 10 11 1 -2
BITMAP
3000
1000
27C0
3E00
4600
8600
8E00
0C00
0C00
1000
2000
ENDCHAR
STARTCHAR 30B2
ENCODING 12466
SWIDTH 1040 0
DWIDTH 13 0
BBX 12 12 1 -2
BITMAP
0020
3050
1020
27A0
3E00
4600
8600
8E00
0C00
0C00
1000
2000
ENDCHAR
STARTCHAR 30B3
ENCODING 12467
SWIDTH 1040 0
DWIDTH 13 0
BBX 9 8 2 0
BITMAP
0F80
F880
0080
0100
0100
0100
1F00
E100
ENDCHAR
STARTCHAR 30B4
ENCODING 12468
SWIDTH 1040 0
DWIDTH 13 0
BBX 11 10 2 0
BITMAP
0040
00A0
1F40
E140
0100
0200
0200
0200
1E00
E200
ENDCHAR
STARTCHAR 30B5
ENCODING 12469
SWIDTH 1040 0
DWIDTH 13 0
BBX 11 13 1 -2
BITMAP
0600
2180
1D00
1100
1FE0
F100
1100
1100
1100
0100
0600
0600
1C00
ENDCHAR
STARTCHAR 30B6
ENCODING 12470
SWIDTH 1040 0
DWIDTH 13 0
BBX 12 13 1 -2
BITMAP
0600
21A0
1D50
1120
1FC0
F100
1100
1100
1100
0100
0600
0600
1C00
ENDCHAR
STARTCHAR 30B7
ENCODING 12471
SWIDTH 1040 0
DWIDTH 13 0
BBX 10 10 2 -1
BITMAP
4000
3800
8040
6080
0100
0200
0400
1C00
E000
4000
ENDCHAR
STARTCHAR 30B8
ENCODING 12472
SWIDTH 1040 0
DWIDTH 13 0
BBX 11 11 2 -1
BITMAP
0040
40A0
3840
8000
6080
0100
0200
0400
1C00
E000
4000
ENDCHAR
STARTCHAR 30B9
ENCODING 12473
SWIDTH 1040 0
DWIDTH 13 0
BBX 10 10 1 -1
BITMAP
0F80
7100
0100
0600
0600
0D00
1D80
1080
2040
C040
ENDCHAR
STARTCHAR 30BA
ENCODING 12474
SWIDTH 1040 0
DWIDTH 13 0
BBX 12 12 1 -1
BITMAP
0020
0050
0FA0
7120
0100
0600
0600
0D00
1D80
1080
2040
C040
ENDCHAR
STARTCHAR 30BB
ENCODING 12475
SWIDTH 1040 0
DWIDTH 13 0
BBX 10 12 1 -1
BITMAP
2000
1C00
1000
1080
1FC0
F080
1100
1600
1600
1000
1000
0FC0
ENDCHAR
STARTCHAR 30BC
ENCODING 12476
SWIDTH 1040 0
DWIDTH 13 0
BBX 12 12 1 -1
BITMAP
2020
1C50
1020
10A0
1FC0
F080
1100
1600
1600
1000
1000
0FC0
ENDCHAR
STARTCHAR 30BD
ENCODING 12477
SWIDTH 1040 0
DWIDTH 13 0
BBX 9 11 2 -2
BITMAP
8180
4080
4100
4100
0200
0200
0E00
0C00
1800
2000
4000
ENDCHAR
STARTCHAR 30BE
ENCODING 12478
SWIDTH 1040 0
DWIDTH 13 0
BBX 11 13 2 -2
BITMAP
0040
00A0
8340
4140
4100
4200
0200
0C00
0C00
0C00
1800
2000
4000
ENDCHAR
STARTCHAR 30BF
ENCODING 12479
SWIDTH 1040 0
DWIDTH 13 0
BBX 9 12 2 -2
BITMAP
3800
1800
1F80
2100
3900
4E00
8200
8E00
0C00
1800
2000
4000
ENDCHAR
STARTCHAR 30C0
ENCODING 12480
SWIDTH 1040 0
DWIDTH 13 0
BBX 12 13 1 -2
BITMAP
0020
3050
1020
1FA0
2100
3100
4E00
8600
8E00
0C00
1000
2000
4000
ENDCHAR
STARTCHAR 30C1
ENCODING 12481
SWIDTH 1040 0
DWIDTH 13 0
BBX 11 12 1 -2
BITMAP
0180
0F00
7600
0600
0FE0
F600
0600
0600
0600
0C00
0C00
3000
ENDCHAR
STARTCHAR 30C2
ENCODING 12482
SWIDTH 1040 0
DWIDTH 13 0
BBX 12 13 1 -2
BITMAP
0100
0720
0E50
7620
0620
0FC0
F600
0600
0600
0600
0C00
0C00
3000
ENDCHAR
STARTCHAR 30C3
ENCODING 12483
SWIDTH 1040 0
DWIDTH 13 0
BBX 8 8 2 -2
BITMAP
21
99
59
5B
42
02
0C
38
ENDCHAR
STARTCHAR 30C4
ENCODING 12484
SWIDTH 1040 0
DWIDTH 13 0
BBX 10 12 1 -2
BITMAP
2000
10C0
9040
4080
4080
0100
0100
0700
0600
0C00
1000
2000
ENDCHAR
STARTCHAR 30C5
ENCODING 12485
SWIDTH 1040 0
DWIDTH 13 0
BBX 12 13 1 -2
BITMAP
0020
2050
11A0
90A0
4080
4100
0100
0600
0600
0600
0C00
1000
2000
ENDCHAR
STARTCHAR 30C6
ENCODING 12486
SWIDTH 1040 0
DWIDTH 13 0
BBX 11 12 1 -2
BITMAP
0780
3C00
0000
0FE0
F600
0600
0600
0E00
0C00
0C00
1000
2000
ENDCHAR
STARTCHAR 30C7
ENCODING 12487
SWIDTH 1040 0
DWIDTH 13 0
BBX 12 13 1 -2
BITMAP
0020
0750
3C20
0020
0FC0
F600
0600
0600
0E00
0C00
0C00
1000
2000
ENDCHAR
STARTCHAR 30C8
ENCODING 12488
SWIDTH 1040 0
DWIDTH 13 0
BBX 6 13 4 -2
BITMAP
80
70
60
60
70
6C
64
60
60
60
60
60
60
ENDCHAR
STARTCHAR 30C9
ENCODING 12489
SWIDTH 1040 0
DWIDTH 13 0
BBX 8 13 4 -2
BITMAP
80
72
65
62
72
6C
64
60
60
60
60
60
60
ENDCHAR
STARTCHAR 30CA
ENCODING 12490
SWIDTH 1040 0
DWIDTH 13 0
BBX 11 13 1 -2
BITMAP
0C00
0700
0600
0600
0FE0
F600
0600
0600
0E00
0C00
0C00
1000
2000
ENDCHAR
STARTCHAR 30CB
ENCODING 12491
SWIDTH 1040 0
DWIDTH 13 0
BBX 11 8 1 0
BITMAP
0780
3C00
0000
0000
0000
0FE0
0FE0
F000
ENDCHAR
STARTCHAR 30CC
ENCODING 12492
SWIDTH 1040 0
DWIDTH 13 0
BBX 9 10 2 -1
BITMAP
0F80
F900
0100
3A00
0C00
0E00
0900
1900
2180
C000
ENDCHAR
STARTCHAR 30CD
ENCODING 12493
SWIDTH 1040 0
DWIDTH 13 0
BBX 10 13 1 -2
BITMAP
1000
0E00
0000
0F80
7100
0600
0D00
1C80
FCC0
ECC0
0C00
0C00
0C00
ENDCHAR
STARTCHAR 30CE
ENCODING 12494
SWIDTH 1040 0
DWIDTH 13 0
BBX 9 11 2 -1
BITMAP
0100
0180
0100
0100
0200
0200
0C00
1C00
1800
2000
C000
ENDCHAR
STARTCHAR 30CF
ENCODING 12495
SWIDTH 1040 0
DWIDTH 13 0
BBX 11 8 1 0
BITMAP
1100
1080
1040
2040
2020
4020
4020
8000
ENDCHAR
STARTCHAR 30D0
ENCODING 12496
SWIDTH 1040 0
DWIDTH 13 0
BBX 12 10 1 0
BITMAP
0020
0050
1120
10A0
1040
2040
2020
4020
4020
8000
ENDCHAR
STARTCHAR 30D1
ENCODING 12497
SWIDTH 1040 0
DWIDTH 13 0
BBX 12 10 1 0
BITMAP
0070
0050
1170
1080
1040
2040
2020
4020
4020
8000
ENDCHAR
STARTCHAR 30D2
ENCODING 12498
SWIDTH 1040 0
DWIDTH 13 0
BBX 9 11 2 -1
BITMAP
8000
6000
4000
4300
7C00
4000
4000
4000
4000
4000
3F80
ENDCHAR
STARTCHAR 30D3
ENCODING 12499
SWIDTH 1040 0
DWIDTH 13 0
BBX 11 11 2 -1
BITMAP
8040
60A0
4040
4340
7C00
4000
4000
4000
4000
4000
3F80
ENDCHAR
STARTCHAR 30D4
ENCODING 12500
SWIDTH 1040 0
DWIDTH 13 0
BBX 11 11 2 -1
BITMAP
80E0
60A0
40E0
4300
7C00
4000
4000
4000
4000
4000
3F80
ENDCHAR
STARTCHAR 30D5
ENCODING 12501
SWIDTH 1040 0
DWIDTH 13 0
BBX 9 10 2 -1
BITMAP
0F80
F880
0100
0100
0200
0200
0E00
0C00
1800
6000
ENDCHAR
STARTCHAR 30D6
ENCODING 12502
SWIDTH 1040 0
DWIDTH 13 0
BBX 11 12 2 -1
BITMAP
0040
00A0
0F40
F940
0100
0200
0200
0C00
1C00
1800
2000
4000
ENDCHAR
STARTCHAR 30D7
ENCODING 12503
SWIDTH 1040 0
DWIDTH 13 0
BBX 11 12 2 -1
BITMAP
00E0
00A0
0FE0
F900
0100
0200
0200
0C00
1C00
1800
2000
4000
ENDCHAR
STARTCHAR 30D8
ENCODING 12504
SWIDTH 1040 0
DWIDTH 13 0
BBX 11 7 1 1
BITMAP
1C00
2600
2100
4080
8040
8060
0020
ENDCHAR
STARTCHAR 30D9
ENCODING 12505
SWIDTH 1040 0
DWIDTH 13 0
BBX 11 9 1 1
BITMAP
0080
0140
1C80
2680
2100
4080
8040
8060
0020
ENDCHAR
STARTCHAR 30DA
ENCODING 12506
SWIDTH 1040 0
DWIDTH 13 0
BBX 11 9 1 1
BITMAP
01C0
0140
1DC0
2600
2100
4080
8040
8060
0020
ENDCHAR
STARTCHAR 30DB
ENCODING 12507
SWIDTH 1040 0
DWIDTH 13 0
BBX 11 12 1 -2
BITMAP
1000
0E00
0C00
0FC0
FC00
0D00
4C80
4CC0
4C40
CC60
1C00
0C00
ENDCHAR
STARTCHAR 30DC
ENCODING 12508
SWIDTH 1040 0
DWIDTH 13 0
BBX 12 13 1 -2
BITMAP
0020
1050
0E20
0C20
0FC0
FC00
0D00
4C80
4CC0
4C40
CC60
1C00
0C00
ENDCHAR
STARTCHAR 30DD
ENCODING 12509
SWIDTH 1040 0
DWIDTH 13 0
BBX 12 13 1 -2
BITMAP
0070
1050
0E70
0C00
0FE0
FC00
0D00
4C80
4CC0
4C40
CC60
1C00
0C00
ENDCHAR
STARTCHAR 30DE
ENCODING 12510
SWIDTH 1040 0
DWIDTH 13 0
BBX 10 8 1 0
BITMAP
0FC0
F080
0100
2600
1C00
1E00
0E00
0600
ENDCHAR
STARTCHAR 30DF
ENCODING 12511
SWIDTH 1040 0
DWIDTH 13 0
BBX 7 11 3 -1
BITMAP
70
1C
06
70
18
04
C0
F8
38
04
06
ENDCHAR
STARTCHAR 30E0
ENCODING 12512
SWIDTH 1040 0
DWIDTH 13 0
BBX 11 11 1 -1
BITMAP
0E00
0C00
0C00
0C00
1100
1080
1040
3040
27C0
FC20
4020
ENDCHAR
STARTCHAR 30E1
ENCODING 12513
SWIDTH 1040 0
DWIDTH 13 0
BBX 10 11 1 -1
BITMAP
0080
00C0
0080
3100
0D00
0600
0D00
1D80
1080
20C0
C000
ENDCHAR
STARTCHAR 30E2
ENCODING 12514
SWIDTH 1040 0
DWIDTH 13 0
BBX 11 10 1 -1
BITMAP
0F80
7C00
0C00
0FE0
FC00
0C00
0C00
0C00
0C00
07C0
ENDCHAR
STARTCHAR 30E3
ENCODING 12515
SWIDTH 1040 0
DWIDTH 13 0
BBX 9 8 2 -2
BITMAP
6000
2380
3D00
FB00
DA00
1800
0C00
0C00
ENDCHAR
STARTCHAR 30E4
ENCODING 12516
SWIDTH 1040 0
DWIDTH 13 0
BBX 11 12 1 -2
BITMAP
3000
1000
11E0
0E40
3C80
CD00
0600
0600
0600
0600
0100
0100
ENDCHAR
STARTCHAR 30E5
ENCODING 12517
SWIDTH 1040 0
DWIDTH 13 0
BBX 9 7 2 -1
BITMAP
0E00
7A00
0C00
0C00
0C00
1F80
E000
ENDCHAR
STARTCHAR 30E6
ENCODING 12518
SWIDTH 1040 0
DWIDTH 13 0
BBX 11 8 1 0
BITMAP
0F80
7100
0100
0600
0600
07E0
0FE0
F000
ENDCHAR
STARTCHAR 30E7
ENCODING 12519
SWIDTH 1040 0
DWIDTH 13 0
BBX 7 8 3 -2
BITMAP
1E
F2
1E
12
F2
04
3C
C4
ENDCHAR
STARTCHAR 30E8
ENCODING 12520
SWIDTH 1040 0
DWIDTH 13 0
BBX 9 9 2 0
BITMAP
0F80
F880
0080
0F00
7900
0100
0100
0F00
F900
ENDCHAR
STARTCHAR 30E9
ENCODING 12521
SWIDTH 1040 0
DWIDTH 13 0
BBX 9 12 2 -2
BITMAP
0F00
7800
0000
1F80
E100
0100
0200
0200
0200
0C00
1800
2000
ENDCHAR
STARTCHAR 30EA
ENCODING 12522
SWIDTH 1040 0
DWIDTH 13 0
BBX 8 13 2 -2
BITMAP
0C
83
62
42
42
42
42
42
4E
0C
0C
18
20
ENDCHAR
STARTCHAR 30EB
ENCODING 12523
SWIDTH 1040 0
DWIDTH 13 0
BBX 13 11 0 -1
BITMAP
0600
2380
1300
1300
1308
1310
2320
2340
2340
4380
8700
ENDCHAR
STARTCHAR 30EC
ENCODING 12524
SWIDTH 1040 0
DWIDTH 13 0
BBX 10 11 2 -1
BITMAP
8000
6000
4000
4000
4040
4080
4300
4400
5C00
6000
4000
ENDCHAR
STARTCHAR 30ED
ENCODING 12525
SWIDTH 1040 0
DWIDTH 13 0
BBX 8 9 2 -1
BITMAP
9F
E1
81
82
82
82
82
FF
80
ENDCHAR
STARTCHAR 30EE
ENCODING 12526
SWIDTH 1040 0
DWIDTH 13 0
BBX 8 8 3 -2
BITMAP
9F
F2
82
84
84
04
18
30
ENDCHAR
STARTCHAR 30EF
ENCODING 12527
SWIDTH 1040 0
DWIDTH 13 0
BBX 10 11 1 -2
BITMAP
8FC0
7040
4040
4080
4080
0100
0100
0100
0600
0C00
3000
ENDCHAR
STARTCHAR 30F0
ENCODING 12528
SWIDTH 1040 0
DWIDTH 13 0
BBX 11 13 1 -2
BITMAP
0C00
0700
0600
07C0
7E00
2600
2600
1FE0
FE00
E600
0600
0600
0600
ENDCHAR
STARTCHAR 30F1
ENCODING 12529
SWIDTH 1040 0
DWIDTH 13 0
BBX 11 9 1 0
BITMAP
07C0
3C80
0100
0E00
0600
0600
07E0
0FE0
F000
ENDCHAR
STARTCHAR 30F2
ENCODING 12530
SWIDTH 1040 0
DWIDTH 13 0
BBX 9 11 2 -2
BITMAP
0F80
F880
0100
0F00
F900
0200
0200
0200
0C00
1800
6000
ENDCHAR
STARTCHAR 30F3
ENCODING 12531
SWIDTH 1040 0
DWIDTH 13 0
BBX 10 10 2 -1
BITMAP
8000
6040
0080
0100
0200
0C00
0800
1800
E000
4000
ENDCHAR
STARTCHAR 30F4
ENCODING 12532
SWIDTH 1040 0
DWIDTH 13 0
BBX 12 13 1 -2
BITMAP
1020
0E50
0C20
8FA0
7080
4080
4100
4100
4700
0600
0600
0C00
1000
ENDCHAR
STARTCHAR 30F5
ENCODING 12533
SWIDTH 1040 0
DWIDTH 13 0
BBX 8 8 2 -2
BITMAP
38
1F
F9
F9
19
21
2E
CC
ENDCHAR
STARTCHAR 30F6
ENCODING 12534
SWIDTH 1040 0
DWIDTH 13 0
BBX 9 9 2 -2
BITMAP
3800
2100
3F80
6200
E200
8200
0C00
1800
2000
ENDCHAR
STARTCHAR 30FB
ENCODING 12539
SWIDTH 1040 0
DWIDTH 13 0
BBX 3 2 5 4
BITMAP
E0
E0
ENDCHAR
STARTCHAR 30FC
ENCODING 12540
SWIDTH 1040 0
DWIDTH 13 0
BBX 13 3 0 4
BITMAP
8000
7FF8
2000
ENDCHAR
STARTCHAR 30FD
ENCODING 12541
SWIDTH 1040 0
DWIDTH 13 0
BBX 6 6 3 2
BITMAP
80
40
30
18
1C
1C
ENDCHAR
STARTCHAR 30FE
ENCODING 12542
SWIDTH 1040 0
DWIDTH 13 0
BBX 7 8 2 2
BITMAP
0C
1A
8C
4C
20
18
1C
1C
ENDCHAR
STARTCHAR 3231
ENCODING 12849
SWIDTH 1040 0
DWIDTH 13 0
BBX 12 13 0 -2
BITMAP
2040
5320
5720
FFD0
9310
BFF0
BB90
D750
9750
9770
5B20
5320
2040
ENDCHAR
STARTCHAR 3232
ENCODING 12850
SWIDTH 1040 0
DWIDTH 13 0
BBX 12 13 0 -2
BITMAP
2040
4620
7FE0
8610
8F90
9890
AF90
C890
8890
8F90
48A0
4BA0
2040
ENDCHAR
STARTCHAR 3239
ENCODING 12857
SWIDTH 1040 0
DWIDTH 13 0
BBX 12 13 0 -2
BITMAP
2040
4B20
4BA0
9350
9FF0
B310
D310
9310
9390
9090
50A0
5060
2040
ENDCHAR
STARTCHAR 32A4
ENCODING 12964
SWIDTH 1040 0
DWIDTH 13 0
BBX 13 13 0 -2
BITMAP
0F80
3060
4610
4610
8788
8608
8608
8608
C7D8
5FD0
4010
3060
0F80
ENDCHAR
STARTCHAR 32A5
ENCODING 12965
SWIDTH 1040 0
DWIDTH 13 0
BBX 13 13 0 -2
BITMAP
0F80
3060
4610
4610
9FC8
9648
9FC8
9648
D658
4610
4610
3060
0F80
ENDCHAR
STARTCHAR 32A6
ENCODING 12966
SWIDTH 1040 0
DWIDTH 13 0
BBX 13 13 0 -2
BITMAP
0F80
3060
4010
5FD0
8608
8708
86C8
8608
C618
4610
4610
3060
0F80
ENDCHAR
STARTCHAR 32A7
ENCODING 12967
SWIDTH 1040 0
DWIDTH 13 0
BBX 13 13 0 -2
BITMAP
0F80
3660
4610
7FF0
8808
9FC8
9308
A308
E3D8
5FD0
4010
3060
0F80
ENDCHAR
STARTCHAR 32A8
ENCODING 12968
SWIDTH 1040 0
DWIDTH 13 0
BBX 13 13 0 -2
BITMAP
0F80
3660
4610
7FF0
8608
8FC8
9848
A848
E858
4FD0
4010
3060
0F80
ENDCHAR
STARTCHAR 3303
ENCODING 13059
SWIDTH 1040 0
DWIDTH 13 0
BBX 12 12 0 -2
BITMAP
9F00
E600
1800
23F0
2080
4700
9B00
9B20
0B20
0B40
1380
2300
ENDCHAR
STARTCHAR 330D
ENCODING 13069
SWIDTH 1040 0
DWIDTH 13 0
BBX 12 13 0 -2
BITMAP
2000
2330
FBD0
2B10
2B20
5BE0
9320
6E00
4BF0
4BF0
4880
0800
3000
ENDCHAR
STARTCHAR 3314
ENCODING 13076
SWIDTH 1040 0
DWIDTH 13 0
BBX 12 13 0 -2
BITMAP
3000
1000
1E00
F000
1000
1F30
F3D0
1310
1330
1320
1320
03E0
0320
ENDCHAR
STARTCHAR 3318
ENCODING 13080
SWIDTH 1040 0
DWIDTH 13 0
BBX 12 13 0 -2
BITMAP
3600
2BF0
7E00
4BF0
9020
1040
2780
C600
CB00
0B00
0880
3FC0
1040
ENDCHAR
STARTCHAR 3322
ENCODING 13090
SWIDTH 1040 0
DWIDTH 13 0
BBX 12 13 0 -2
BITMAP
6300
2080
3E90
E820
23C0
3F00
00C0
1F00
1FE0
03E0
3F00
0300
0E00
ENDCHAR
STARTCHAR 3323
ENCODING 13091
SWIDTH 1040 0
DWIDTH 13 0
BBX 12 13 0 -2
BITMAP
6300
2080
3E90
E820
23C0
3F00
0600
0600
0700
0700
06C0
0640
0600
ENDCHAR
STARTCHAR 3326
ENCODING 13094
SWIDTH 1040 0
DWIDTH 13 0
BBX 11 13 1 -2
BITMAP
CC00
5600
4C00
4000
7000
5180
4E80
4680
46A0
46A0
06A0
0CC0
1080
ENDCHAR
STARTCHAR 3327
ENCODING 13095
SWIDTH 1040 0
DWIDTH 13 0
BBX 11 13 1 -2
BITMAP
C000
4000
4000
6000
5C00
4000
4600
4720
4760
4040
0080
0F00
0600
ENDCHAR
STARTCHAR 332B
ENCODING 13099
SWIDTH 1040 0
DWIDTH 13 0
BBX 12 13 0 -2
BITMAP
0700
5700
4800
4BF0
8880
0000
C0C0
4E40
7E60
F660
50D0
4740
3840
ENDCHAR
STARTCHAR 3336
ENCODING 13110
SWIDTH 1040 0
DWIDTH 13 0
BBX 12 13 0 -2
BITMAP
0080
6080
53E0
5320
8E40
0880
4300
78C0
53C0
5340
BF50
2360
4640
ENDCHAR
STARTCHAR 333B
ENCODING 13115
SWIDTH 1040 0
DWIDTH 13 0
BBX 12 13 0 -2
BITMAP
0E00
0E00
6000
53F0
4880
8E00
0040
0820
1E60
1640
08A0
2700
3800
ENDCHAR
STARTCHAR 3349
ENCODING 13129
SWIDTH 1040 0
DWIDTH 13 0
BBX 12 12 0 -2
BITMAP
6000
1800
0000
6030
13A0
0320
C320
F320
3320
1020
0040
0080
ENDCHAR
STARTCHAR 334A
ENCODING 13130
SWIDTH 1040 0
DWIDTH 13 0
BBX 12 13 0 -2
BITMAP
3030
0BA0
3320
0B20
6020
1840
0680
2B20
7AA0
56A0
57A0
50B0
9B20
ENDCHAR
STARTCHAR 334D
ENCODING 13133
SWIDTH 1040 0
DWIDTH 13 0
BBX 12 13 0 -2
BITMAP
0E00
4800
3000
1BF0
2680
C600
60C0
2740
3750
3350
2B50
2B60
2640
ENDCHAR
STARTCHAR 3351
ENCODING 13137
SWIDTH 1040 0
DWIDTH 13 0
BBX 11 13 1 -2
BITMAP
1C00
D000
9120
96A0
1140
2040
4180
4E80
56A0
76A0
56A0
4CC0
5080
ENDCHAR
STARTCHAR 3357
ENCODING 13143
SWIDTH 1040 0
DWIDTH 13 0
BBX 12 12 0 -2
BITMAP
9E00
E680
8850
8B10
10A0
2840
0880
0E80
0E00
0B80
0880
0800
ENDCHAR
STARTCHAR 337B
ENCODING 13179
SWIDTH 1040 0
DWIDTH 13 0
BBX 12 11 0 -1
BITMAP
F860
2350
ABF0
AB40
23D0
FB50
2360
2750
26D0
2750
2BB0
ENDCHAR
STARTCHAR 337C
ENCODING 13180
SWIDTH 1040 0
DWIDTH 13 0
BBX 12 11 0 -1
BITMAP
BE80
EBC0
BF50
EB70
AFD0
BB50
EFD0
AB50
AB70
3B50
2B00
ENDCHAR
STARTCHAR 337D
ENCODING 13181
SWIDTH 1040 0
DWIDTH 13 0
BBX 12 11 0 -1
BITMAP
3020
2FF0
2040
FB40
2370
2340
5340
5350
5350
4FF0
8800
ENDCHAR
STARTCHAR 337E
ENCODING 13182
SWIDTH 1040 0
DWIDTH 13 0
BBX 12 11 0 -1
BITMAP
2E60
FB40
AE60
FB90
A8F0
FB00
AB70
AB50
2F50
2B70
5B50
ENDCHAR
STARTCHAR 338E
ENCODING 13198
SWIDTH 1040 0
DWIDTH 13 0
BBX 12 8 0 -1
BITMAP
F0D0
AB20
ABC0
A880
A8E0
ABE0
AB10
00E0
ENDCHAR
STARTCHAR 338F
ENCODING 13199
SWIDTH 1040 0
DWIDTH 13 0
BBX 11 11 1 -1
BITMAP
8000
8000
8000
91A0
A640
C780
A100
B1C0
97C0
9620
01C0
ENDCHAR
STARTCHAR 339C
ENCODING 13212
SWIDTH 1040 0
DWIDTH 13 0
BBX 12 7 0 0
BITMAP
F3E0
AB50
AB50
AB50
AB50
AB50
AB50
ENDCHAR
STARTCHAR 339D
ENCODING 13213
SWIDTH 1040 0
DWIDTH 13 0
BBX 12 7 0 0
BITMAP
7BE0
8B50
8350
8350
8B50
8B50
7350
ENDCHAR
STARTCHAR 339E
ENCODING 13214
SWIDTH 1040 0
DWIDTH 13 0
BBX 11 10 1 0
BITMAP
8000
8000
8000
97C0
A6A0
C6A0
A6A0
B6A0
96A0
96A0
ENDCHAR
STARTCHAR 33A1
ENCODING 13217
SWIDTH 1040 0
DWIDTH 13 0
BBX 11 10 1 0
BITMAP
00E0
00A0
0040
EE80
91E0
9100
9100
9100
9100
9100
ENDCHAR
STARTCHAR 33C4
ENCODING 13252
SWIDTH 1040 0
DWIDTH 13 0
BBX 12 7 0 0
BITMAP
78F0
8B10
8300
8300
8B10
8B10
70E0
ENDCHAR
STARTCHAR 33CD
ENCODING 13261
SWIDTH 1040 0
DWIDTH 13 0
BBX 11 10 1 -1
BITMAP
9640
9640
A680
A680
C700
A680
A680
A680
9640
9E60
ENDCHAR
STARTCHAR 4E00
ENCODING 19968
SWIDTH 1040 0
DWIDTH 13 0
BBX 13 2 0 5
BITMAP
0030
FFF8
ENDCHAR
STARTCHAR 4E01
ENCODING 19969
SWIDTH 1040 0
DWIDTH 13 0
BBX 13 13 0 -2
BITMAP
0010
FFF8
0600
0600
0600
0600
0600
0600
0600
0600
0600
1E00
0800
ENDCHAR
STARTCHAR 4E03
ENCODING 19971
SWIDTH 1040 0
DWIDTH 13 0
BBX 13 13 0 -2
BITMAP
1800
1000
1000
1010
10F8
1F00
F000
1000
1000
1000
1040
1040
0FE0
ENDCHAR
STARTCHAR 4E07
ENCODING 19975
SWIDTH 1040 0
DWIDTH 13 0
BBX 13 13 0 -2
BITMAP
0010
FFF8
0800
0840
0FE0
0840
0840
0840
1040
1040
1080
2780
C300
ENDCHAR
STARTCHAR 4E08
ENCODING 19976
SWIDTH 1040 0
DWIDTH 13 0
BBX 13 13 0 -2
BITMAP
0700
0600
0610
FFF8
0600
1600
1600
0E00
0E00
0600
0B80
3078
C010
ENDCHAR
STARTCHAR 4E09
ENCODING 19977
SWIDTH 1040 0
DWIDTH 13 0
BBX 13 12 0 -1
BITMAP
0020
7FF0
0000
0000
0040
3FE0
0000
0000
0000
0000
0010
FFF8
ENDCHAR
STARTCHAR 4E0A
ENCODING 19978
SWIDTH 1040 0
DWIDTH 13 0
BBX 13 12 0 -1
BITMAP
0700
0600
0600
0640
07E0
0600
0600
0600
0600
0600
0610
FFF8
ENDCHAR
STARTCHAR 4E0B
ENCODING 19979
SWIDTH 1040 0
DWIDTH 13 0
BBX 13 13 0 -2
BITMAP
0010
FFF8
0600
0600
0780
0660
0630
0600
0600
0600
0600
0600
0600
ENDCHAR
STARTCHAR 4E0D
ENCODING 19981
SWIDTH 1040 0
DWIDTH 13 0
BBX 13 13 0 -2
BITMAP
0010
FFF8
0300
0600
0EC0
1620
2610
C618
C618
0600
0600
0600
0600
ENDCHAR
STARTCHAR 4E0E
ENCODING 19982
SWIDTH 1040 0
DWIDTH 13 0
BBX 13 13 0 -2
BITMAP
0E00
0840
0FE0
0800
1FE0
1040
0050
FFF8
FF80
0080
0080
0F00
0600
ENDCHAR
STARTCHAR 4E10
ENCODING 19984
SWIDTH 1040 0
DWIDTH 13 0
BBX 13 13 0 -2
BITMAP
0010
FFF8
0600
37E0
2600
2620
7FF0
4020
4020
0020
0040
03C0
0080
ENDCHAR
STARTCHAR 4E11
ENCODING 19985
SWIDTH 1040 0
DWIDTH 13 0
BBX 13 12 0 -1
BITMAP
0080
3FC0
0880
0880
0890
FFF8
1080
1080
1080
1080
1090
FFF8
ENDCHAR
STARTCHAR 4E14
ENCODING 19988
SWIDTH 1040 0
DWIDTH 13 0
BBX 13 12 0 -1
BITMAP
1040
1FE0
1040
1040
1FC0
1040
1040
1FC0
1040
1040
1050
FFF8
ENDCHAR
STARTCHAR 4E15
ENCODING 19989
SWIDTH 1040 0
DWIDTH 13 0
BBX 13 12 0 -1
BITMAP
0010
FFF8
0600
0E80
1660
2610
C618
0600
0600
0600
0010
FFF8
ENDCHAR
STARTCHAR 4E16
ENCODING 19990
SWIDTH 1040 0
DWIDTH 13 0
BBX 13 13 0 -2
BITMAP
3760
2640
2640
2650
FFF8
2640
2640
27C0
2640
2640
2010
3FF8
2000
ENDCHAR
STARTCHAR 4E17
ENCODING 19991
SWIDTH 1040 0
DWIDTH 13 0
BBX 13 13 0 -2
BITMAP
3760
2640
2640
2650
FFF8
2640
2640
2640
2640
2640
2640
3FC0
2040
ENDCHAR
STARTCHAR 4E18
ENCODING 19992
SWIDTH 1040 0
DWIDTH 13 0
BBX 13 12 0 -1
BITMAP
0040
13E0
1F00
1000
1020
1FF0
1080
1080
1080
1080
1090
FFF8
ENDCHAR
STARTCHAR 4E19
ENCODING 19993
SWIDTH 1040 0
DWIDTH 13 0
BBX 13 13 0 -2
BITMAP
0010
FFF8
0600
2620
3FF0
2620
2B20
28A0
30A0
3060
2020
20E0
2040
ENDCHAR
STARTCHAR 4E1E
ENCODING 19998
SWIDTH 1040 0
DWIDTH 13 0
BBX 13 12 0 -1
BITMAP
0080
3FC0
0300
1620
F760
1680
2640
4638
C630
9E10
0820
7FF0
ENDCHAR
STARTCHAR 4E21
ENCODING 20001
SWIDTH 1040 0
DWIDTH 13 0
BBX 13 13 0 -2
BITMAP
0010
FFF8
0600
4610
7FF8
4610
5650
5650
5650
5FD0
5010
4070
4020
ENDCHAR
STARTCHAR 4E26
ENCODING 20006
SWIDTH 1040 0
DWIDTH 13 0
BBX 13 12 0 -1
BITMAP
2060
1840
08A0
7FF0
0880
48B0
28A0
28A0
28E0
28C0
0890
FFF8
ENDCHAR
STARTCHAR 4E2A
ENCODING 20010
SWIDTH 1040 0
DWIDTH 13 0
BBX 13 13 0 -2
BITMAP
0700
0B00
0880
1040
2738
C610
0600
0600
0600
0600
0600
0600
0600
ENDCHAR
STARTCHAR 4E2D
ENCODING 20013
SWIDTH 1040 0
DWIDTH 13 0
BBX 11 13 1 -2
BITMAP
0E00
0C00
8C40
FFE0
8C40
8C40
8C40
FFC0
8C40
8C40
0C00
0C00
0C00
ENDCHAR
STARTCHAR 4E31
ENCODING 20017
SWIDTH 1040 0
DWIDTH 13 0
BBX 13 13 0 -2
BITMAP
0EC0
0880
6898
4890
4890
4890
4890
78F0
4890
4890
1080
2080
C080
ENDCHAR
STARTCHAR 4E32
ENCODING 20018
SWIDTH 1040 0
DWIDTH 13 0
BBX 12 13 1 -2
BITMAP
0E00
4C40
7FE0
4C40
7FC0
8C20
FFF0
8C20
8C20
FFE0
8C20
0C00
0C00
ENDCHAR
STARTCHAR 4E36
ENCODING 20022
SWIDTH 1040 0
DWIDTH 13 0
BBX 7 8 3 1
BITMAP
80
40
30
18
18
04
06
06
ENDCHAR
STARTCHAR 4E38
ENCODING 20024
SWIDTH 1040 0
DWIDTH 13 0
BBX 13 13 0 -2
BITMAP
0E00
0800
0840
FFE0
0840
6840
1840
0840
1640
1640
1750
2050
C038
ENDCHAR
STARTCHAR 4E39
ENCODING 20025
SWIDTH 1040 0
DWIDTH 13 0
BBX 13 13 0 -2
BITMAP
1040
1FE0
1640
1340
1350
FFF8
1040
1040
1040
1040
2040
23C0
C080
ENDCHAR
STARTCHAR 4E3B
ENCODING 20027
SWIDTH 1040 0
DWIDTH 13 0
BBX 13 12 0 -1
BITMAP
0800
0700
0320
7FF0
0600
0640
3FE0
0600
0600
0600
0610
FFF8
ENDCHAR
STARTCHAR 4E3C
ENCODING 20028
SWIDTH 1040 0
DWIDTH 13 0
BBX 13 13 0 -2
BITMAP
18C0
1080
10A0
7FF0
1880
1680
1690
FFF8
F080
1080
2080
2080
C080
ENDCHAR
STARTCHAR 4E3F
ENCODING 20031
SWIDTH 1040 0
DWIDTH 13 0
BBX 7 13 1 -2
BITMAP
0E
0C
0C
0C
0C
0C
0C
0C
1C
10
10
20
C0
ENDCHAR
STARTCHAR 4E42
ENCODING 20034
SWIDTH 1040 0
DWIDTH 13 0
BBX 13 13 0 -2
BITMAP
2060
2040
2040
1080
1080
0B00
0600
0600
0F00
0B00
10C0
2038
C010
ENDCHAR
STARTCHAR 4E43
ENCODING 20035
SWIDTH 1040 0
DWIDTH 13 0
BBX 13 13 0 -2
BITMAP
0040
7FE0
0840
0840
0890
08F8
0890
1010
1010
1010
1020
20E0
C040
ENDCHAR
STARTCHAR 4E45
ENCODING 20037
SWIDTH 1040 0
DWIDTH 13 0
BBX 13 13 0 -2
BITMAP
0E00
0880
0FC0
1080
1080
2300
4300
0680
0E80
0880
1040
2038
C010
ENDCHAR
STARTCHAR 4E4B
ENCODING 20043
SWIDTH 1040 0
DWIDTH 13 0
BBX 13 13 0 -2
BITMAP
0700
0620
7FF0
0020
0040
0080
0300
0600
2E00
2800
3000
D000
4FF8
ENDCHAR
STARTCHAR 4E4D
ENCODING 20045
SWIDTH 1040 0
DWIDTH 13 0
BBX 13 13 0 -2
BITMAP
1800
1010
3FF8
2600
4640
87E0
0600
0620
0630
07F0
0600
0600
0600
ENDCHAR
STARTCHAR 4E4E
ENCODING 20046
SWIDTH 1040 0
DWIDTH 13 0
BBX 13 13 0 -2
BITMAP
0040
07E0
7E40
2640
1690
FFF8
0600
0600
0600
0600
0600
1E00
0800
ENDCHAR
STARTCHAR 4E4F
ENCODING 20047
SWIDTH 1040 0
DWIDTH 13 0
BBX 13 13 0 -2
BITMAP
0040
03E0
3F00
0640
FFE0
0040
0080
0300
4200
4600
6800
D000
4FF8
ENDCHAR
STARTCHAR 4E55
ENCODING 20053
SWIDTH 1040 0
DWIDTH 13 0
BBX 13 13 0 -2
BITMAP
2060
3FC0
2320
3FF0
2300
3FF8
2300
3FF0
7320
5320
5320
9360
1340
ENDCHAR
STARTCHAR 4E56
ENCODING 20054
SWIDTH 1040 0
DWIDTH 13 0
BBX 13 13 0 -2
BITMAP
0060
7FC0
0610
FFF8
0600
16C0
F6B0
16E0
1690
3690
D690
9678
0600
ENDCHAR
STARTCHAR 4E57
ENCODING 20055
SWIDTH 1040 0
DWIDTH 13 0
BBX 13 13 0 -2
BITMAP
00C0
3F80
0620
7FF0
1640
FFF8
1640
7FF0
7680
1680
1640
2638
C610
ENDCHAR
STARTCHAR 4E58
ENCODING 20056
SWIDTH 1040 0
DWIDTH 13 0
BBX 13 13 0 -2
BITMAP
0060
7FC0
0610
FFF8
1690
F6E0
1690
F678
D778
4F00
1680
2678
C610
ENDCHAR
STARTCHAR 4E59
ENCODING 20057
SWIDTH 1040 0
DWIDTH 13 0
BBX 13 13 0 -2
BITMAP
0040
FFE0
0080
0300
0600
0800
1000
2000
2000
2000
4010
4010
3FF8
ENDCHAR
STARTCHAR 4E5D
ENCODING 20061
SWIDTH 1040 0
DWIDTH 13 0
BBX 13 13 0 -2
BITMAP
0E00
0800
0880
FFC0
0880
0880
0880
0880
1080
1080
1090
2090
C078
ENDCHAR
STARTCHAR 4E5E
ENCODING 20062
SWIDTH 1040 0
DWIDTH 13 0
BBX 13 13 0 -2
BITMAP
1800
1010
3FF8
2000
4080
BFC0
0600
0800
1000
1000
2010
2010
1FF8
ENDCHAR
STARTCHAR 4E5F
ENCODING 20063
SWIDTH 1040 0
DWIDTH 13 0
BBX 13 13 0 -2
BITMAP
0700
3600
2640
26E0
2F40
3640
E640
26C0
2680
2680
2010
2010
1FF8
ENDCHAR
STARTCHAR 4E62
ENCODING 20066
SWIDTH 1040 0
DWIDTH 13 0
BBX 13 13 0 -2
BITMAP
3380
2300
AB00
AB00
AB00
AB00
AB00
AB00
AB00
FB00
8B10
0310
00F8
ENDCHAR
STARTCHAR 4E71
ENCODING 20081
SWIDTH 1040 0
DWIDTH 13 0
BBX 13 13 0 -2
BITMAP
08C0
1E80
F080
1680
FF80
1080
5680
7E80
4680
4680
4690
7E90
4678
ENDCHAR
STARTCHAR 4E73
ENCODING 20083
SWIDTH 1040 0
DWIDTH 13 0
BBX 13 13 0 -2
BITMAP
0EC0
FB80
A680
5680
2880
FF80
0880
1780
1F80
F880
5090
3090
2078
ENDCHAR
STARTCHAR 4E7E
ENCODING 20094
SWIDTH 1040 0
DWIDTH 13 0
BBX 13 13 0 -2
BITMAP
2380
FB10
23F8
FB00
8E20
FBF0
8840
F880
E080
2080
FF10
2310
20F8
ENDCHAR
STARTCHAR 4E80
ENCODING 20096
SWIDTH 1040 0
DWIDTH 13 0
BBX 13 13 0 -2
BITMAP
0880
1FE0
3640
DFC0
1640
3FF0
2620
3FE0
2620
2620
3FF0
2610
03F8
ENDCHAR
STARTCHAR 4E82
ENCODING 20098
SWIDTH 1040 0
DWIDTH 13 0
BBX 13 13 0 -2
BITMAP
0F60
F640
5340
FE40
2840
FF40
9340
FF40
CB40
CB40
AB50
B350
CF38
ENDCHAR
STARTCHAR 4E85
ENCODING 20101
SWIDTH 1040 0
DWIDTH 13 0
BBX 5 13 3 -2
BITMAP
38
30
30
30
30
30
30
30
30
30
30
F0
40
ENDCHAR
STARTCHAR 4E86
ENCODING 20102
SWIDTH 1040 0
DWIDTH 13 0
BBX 12 13 0 -2
BITMAP
0020
FFF0
0040
0080
0700
0600
0600
0600
0600
0600
0600
1E00
0800
ENDCHAR
STARTCHAR 4E88
ENCODING 20104
SWIDTH 1040 0
DWIDTH 13 0
BBX 13 13 0 -2
BITMAP
0040
3FE0
0880
0710
FFF8
0620
0640
0600
0600
0600
0600
1E00
0800
ENDCHAR
STARTCHAR 4E89
ENCODING 20105
SWIDTH 1040 0
DWIDTH 13 0
BBX 13 13 0 -2
BITMAP
0880
1F80
1340
3FE0
4650
FFF8
0640
3FC0
3E40
0640
0600
1E00
0800
ENDCHAR
STARTCHAR 4E8A
ENCODING 20106
SWIDTH 1040 0
DWIDTH 13 0
BBX 13 13 0 -2
BITMAP
0700
0610
FFF8
1680
3FE0
0650
FFF8
0640
0640
3FC0
0640
1E00
0800
ENDCHAR
STARTCHAR 4E8B
ENCODING 20107
SWIDTH 1040 0
DWIDTH 13 0
BBX 13 13 0 -2
BITMAP
0610
FFF8
1640
1FC0
0620
3FF0
0620
FFF8
FE20
0620
3FE0
0620
0E00
ENDCHAR
STARTCHAR 4E8C
ENCODING 20108
SWIDTH 1040 0
DWIDTH 13 0
BBX 13 10 0 0
BITMAP
0040
3FE0
0000
0000
0000
0000
0000
0010
0010
FFF8
ENDCHAR
STARTCHAR 4E8E
ENCODING 20110
SWIDTH 1040 0
DWIDTH 13 0
BBX 13 13 0 -2
BITMAP
0020
7FF0
0600
0600
0610
FFF8
0600
0600
0600
0600
0600
1E00
0800
ENDCHAR
STARTCHAR 4E91
ENCODING 20113
SWIDTH 1040 0
DWIDTH 13 0
BBX 13 13 0 -2
BITMAP
0040
3FE0
0000
0010
FFF8
0E00
0800
0880
18C0
1040
13E0
7E30
2010
ENDCHAR
STARTCHAR 4E92
ENCODING 20114
SWIDTH 1040 0
DWIDTH 13 0
BBX 13 12 0 -1
BITMAP
0020
7FF0
0800
0840
0FE0
1040
1040
1FC0
1080
1080
0090
FFF8
ENDCHAR
STARTCHAR 4E94
ENCODING 20116
SWIDTH 1040 0
DWIDTH 13 0
BBX 13 12 0 -1
BITMAP
0020
7FF0
0600
0600
0840
3FE0
0840
0840
1040
1040
1050
FFF8
ENDCHAR
STARTCHAR 4E95
ENCODING 20117
SWIDTH 1040 0
DWIDTH 13 0
BBX 13 13 0 -2
BITMAP
0EC0
0880
08A0
7FF0
0880
0890
FFF8
0880
0880
0880
1080
1080
6080
ENDCHAR
STARTCHAR 4E98
ENCODING 20120
SWIDTH 1040 0
DWIDTH 13 0
BBX 13 12 0 -1
BITMAP
0020
7FF0
0000
1FE0
1040
1FC0
1040
1040
1040
1FC0
0010
FFF8
ENDCHAR
STARTCHAR 4E99
ENCODING 20121
SWIDTH 1040 0
DWIDTH 13 0
BBX 13 12 0 -1
BITMAP
0020
7FF0
0800
0FC0
0880
1E80
1380
1B00
1B00
1700
0310
FFF8
ENDCHAR
STARTCHAR 4E9B
ENCODING 20123
SWIDTH 1040 0
DWIDTH 13 0
BBX 13 12 0 -1
BITMAP
0EC0
28B0
2FE0
2890
2F90
F078
4000
3FE0
3FE0
0000
0010
FFF8
ENDCHAR
STARTCHAR 4E9C
ENCODING 20124
SWIDTH 1040 0
DWIDTH 13 0
BBX 13 12 0 -1
BITMAP
0020
7FF0
0880
28A0
3FF0
28A0
28A0
3FE0
28A0
28A0
0890
FFF8
ENDCHAR
STARTCHAR 4E9E
ENCODING 20126
SWIDTH 1040 0
DWIDTH 13 0
BBX 13 12 0 -1
BITMAP
0020
7FF0
0880
28A0
38F0
28A0
2020
38E0
28A0
28A0
0890
FFF8
ENDCHAR
STARTCHAR 4E9F
ENCODING 20127
SWIDTH 1040 0
DWIDTH 13 0
BBX 13 12 0 -1
BITMAP
0020
7FF0
0800
0B20
5FF0
73A0
5340
73A0
5238
4E38
0810
FFF8
ENDCHAR
STARTCHAR 4EA0
ENCODING 20128
SWIDTH 1040 0
DWIDTH 13 0
BBX 13 4 0 4
BITMAP
0700
0600
0610
FFF8
ENDCHAR
STARTCHAR 4EA1
ENCODING 20129
SWIDTH 1040 0
DWIDTH 13 0
BBX 13 12 0 -1
BITMAP
0700
0600
0610
FFF8
1000
1000
1000
1000
1000
1000
1000
0FF0
ENDCHAR
STARTCHAR 4EA2
ENCODING 20130
SWIDTH 1040 0
DWIDTH 13 0
BBX 13 13 0 -2
BITMAP
0700
0610
FFF8
0000
1F80
1300
1300
1300
1300
1300
2310
2310
C0F8
ENDCHAR
STARTCHAR 4EA4
ENCODING 20132
SWIDTH 1040 0
DWIDTH 13 0
BBX 13 13 0 -2
BITMAP
0700
0610
FFF8
0880
1860
68B0
0880
0680
0780
0700
0880
3078
C010
ENDCHAR
STARTCHAR 4EA5
ENCODING 20133
SWIDTH 1040 0
DWIDTH 13 0
BBX 13 13 0 -2
BITMAP
0700
0610
FFF8
0800
3380
0B60
0E40
0880
7880
7380
0640
0820
7030
ENDCHAR
STARTCHAR 4EA6
ENCODING 20134
SWIDTH 1040 0
DWIDTH 13 0
BBX 13 13 0 -2
BITMAP
0700
0610
FFF8
0880
28C0
68A0
4890
4890
D098
9098
1080
2780
4300
ENDCHAR
STARTCHAR 4EA8
ENCODING 20136
SWIDTH 1040 0
DWIDTH 13 0
BBX 13 13 0 -2
BITMAP
0610
FFF8
1040
1FC0
0020
7FF0
0080
0700
0600
0600
0600
1E00
0800
ENDCHAR
STARTCHAR 4EAB
ENCODING 20139
SWIDTH 1040 0
DWIDTH 13 0
BBX 13 13 0 -2
BITMAP
0610
FFF8
1040
1FC0
0040
3FE0
0090
FFF8
FE00
0600
0600
1E00
0800
ENDCHAR
STARTCHAR 4EAC
ENCODING 20140
SWIDTH 1040 0
DWIDTH 13 0
BBX 13 13 0 -2
BITMAP
0610
FFF8
0000
3FC0
2040
2040
3FC0
0680
66C0
6640
4620
9E30
0800
ENDCHAR
STARTCHAR 4EAD
ENCODING 20141
SWIDTH 1040 0
DWIDTH 13 0
BBX 13 13 0 -2
BITMAP
0620
7FF0
1080
1F80
4010
7FF8
C010
3FE0
3E00
0600
0600
1E00
0800
ENDCHAR
STARTCHAR 4EAE
ENCODING 20142
SWIDTH 1040 0
DWIDTH 13 0
BBX 13 13 0 -2
BITMAP
0610
FFF8
1040
1FC0
4010
7FF8
C010
1BA0
1320
1300
1310
2310
C0F8
ENDCHAR
STARTCHAR 4EB0
ENCODING 20144
SWIDTH 1040 0
DWIDTH 13 0
BBX 13 13 0 -2
BITMAP
0700
0610
FFF8
1040
1FC0
1040
1FC0
0600
36C0
36C0
2620
5E10
8818
ENDCHAR
STARTCHAR 4EB3
ENCODING 20147
SWIDTH 1040 0
DWIDTH 13 0
BBX 13 13 0 -2
BITMAP
0700
0620
7FF0
1040
7FF8
C050
3F80
0820
0830
7FF0
0810
0810
07F8
ENDCHAR
STARTCHAR 4EB6
ENCODING 20150
SWIDTH 1040 0
DWIDTH 13 0
BBX 13 12 0 -1
BITMAP
0700
0620
7FF0
28A0
2FA0
2020
3FE0
1040
1040
1FC0
1050
FFF8
ENDCHAR
STARTCHAR 4EBA
ENCODING 20154
SWIDTH 1040 0
DWIDTH 13 0
BBX 13 13 0 -2
BITMAP
0700
0600
0600
0600
0600
0B00
0B00
0880
1880
1080
1040
2038
C010
ENDCHAR
STARTCHAR 4EC0
ENCODING 20160
SWIDTH 1040 0
DWIDTH 13 0
BBX 13 13 0 -2
BITMAP
18C0
1080
1080
2090
3FF8
6080
A080
2080
2080
2080
2080
2080
2080
ENDCHAR
STARTCHAR 4EC1
ENCODING 20161
SWIDTH 1040 0
DWIDTH 13 0
BBX 13 13 0 -2
BITMAP
1800
1020
17F0
2000
2000
6000
A000
2000
2000
2000
2010
2FF8
2000
ENDCHAR
STARTCHAR 4EC2
ENCODING 20162
SWIDTH 1040 0
DWIDTH 13 0
BBX 13 13 0 -2
BITMAP
1B80
1300
1310
3FF8
2310
6310
A310
2310
2210
2610
2620
28E0
3040
ENDCHAR
STARTCHAR 4EC4
ENCODING 20164
SWIDTH 1040 0
DWIDTH 13 0
BBX 13 13 0 -2
BITMAP
2020
3FF0
2000
2380
2300
2300
2680
2680
66C0
4640
4840
9038
6010
ENDCHAR
STARTCHAR 4EC6
ENCODING 20166
SWIDTH 1040 0
DWIDTH 13 0
BBX 13 13 0 -2
BITMAP
0EC0
0880
1080
1080
30C0
50B0
9098
1080
1080
1080
1080
1080
1080
ENDCHAR
STARTCHAR 4EC7
ENCODING 20167
SWIDTH 1040 0
DWIDTH 13 0
BBX 13 13 0 -2
BITMAP
1B80
1300
1320
3FF0
2320
6320
A320
2320
2320
2320
2628
2628
3818
ENDCHAR
STARTCHAR 4ECA
ENCODING 20170
SWIDTH 1040 0
DWIDTH 13 0
BBX 13 13 0 -2
BITMAP
0600
0E00
0B00
1080
2340
DFB8
0010
3FC0
3F80
0080
0300
0300
0600
ENDCHAR
STARTCHAR 4ECB
ENCODING 20171
SWIDTH 1040 0
DWIDTH 13 0
BBX 13 13 0 -2
BITMAP
0600
0700
0880
1040
2038
D8D0
1080
1080
1080
1080
1080
2080
4080
ENDCHAR
STARTCHAR 4ECD
ENCODING 20173
SWIDTH 1040 0
DWIDTH 13 0
BBX 13 13 0 -2
BITMAP
1040
1FE0
1640
2640
2690
66F8
A690
2610
2610
2610
2820
28E0
3040
ENDCHAR
STARTCHAR 4ECE
ENCODING 20174
SWIDTH 1040 0
DWIDTH 13 0
BBX 13 13 0 -2
BITMAP
18C0
1080
1080
1080
1080
1080
1340
2B40
2B60
2B20
2620
4638
9810
ENDCHAR
STARTCHAR 4ECF
ENCODING 20175
SWIDTH 1040 0
DWIDTH 13 0
BBX 13 13 0 -2
BITMAP
18C0
1080
1080
2080
2080
6300
A340
2320
2730
2610
26F0
3F18
2808
ENDCHAR
STARTCHAR 4ED4
ENCODING 20180
SWIDTH 1040 0
DWIDTH 13 0
BBX 13 13 0 -2
BITMAP
1820
17F0
1020
20C0
2090
7FF8
A080
2080
2080
2080
2080
2780
2300
ENDCHAR
STARTCHAR 4ED5
ENCODING 20181
SWIDTH 1040 0
DWIDTH 13 0
BBX 13 13 0 -2
BITMAP
18C0
1080
1080
2090
3FF8
6080
A080
2080
2080
2080
20A0
2FF0
2000
ENDCHAR
STARTCHAR 4ED6
ENCODING 20182
SWIDTH 1040 0
DWIDTH 13 0
BBX 13 13 0 -2
BITMAP
18C0
1780
16A0
26F0
27A0
6EA0
B6A0
26E0
26A0
26A0
2610
2610
23F8
ENDCHAR
STARTCHAR 4ED7
ENCODING 20183
SWIDTH 1040 0
DWIDTH 13 0
BBX 13 13 0 -2
BITMAP
18C0
1080
1090
2FF8
2880
6680
A680
2300
2300
2300
26C0
2838
3010
ENDCHAR
STARTCHAR 4ED8
ENCODING 20184
SWIDTH 1040 0
DWIDTH 13 0
BBX 13 13 0 -2
BITMAP
1860
1040
1050
3FF8
2840
6640
A740
2040
2040
2040
2040
23C0
2080
ENDCHAR
STARTCHAR 4ED9
ENCODING 20185
SWIDTH 1040 0
DWIDTH 13 0
BBX 13 13 0 -2
BITMAP
18C0
1080
1080
2E98
2890
6890
A890
2890
2890
2890
2890
2FF0
2810
ENDCHAR
STARTCHAR 4EDD
ENCODING 20189
SWIDTH 1040 0
DWIDTH 13 0
BBX 13 12 0 -1
BITMAP
0600
0700
0B00
0880
1040
20B8
DFD0
0600
0600
0600
0610
FFF8
ENDCHAR
STARTCHAR 4EDE
ENCODING 20190
SWIDTH 1040 0
DWIDTH 13 0
BBX 13 13 0 -2
BITMAP
1800
1010
1FF8
2090
2690
6690
A890
2310
2310
2310
2620
28E0
3040
ENDCHAR
STARTCHAR 4EDF
ENCODING 20191
SWIDTH 1040 0
DWIDTH 13 0
BBX 13 13 0 -2
BITMAP
1820
10F0
1F80
2080
2090
7FF8
A080
2080
2080
2080
2080
2080
2080
ENDCHAR
STARTCHAR 4EE3
ENCODING 20195
SWIDTH 1040 0
DWIDTH 13 0
BBX 13 13 0 -2
BITMAP
18C0
10A0
1090
3FF8
2080
6080
A080
2040
2040
2040
2028
2030
2018
ENDCHAR
STARTCHAR 4EE4
ENCODING 20196
SWIDTH 1040 0
DWIDTH 13 0
BBX 13 13 0 -2
BITMAP
0600
0F00
0880
1360
3FB8
C010
3FE0
0620
0620
0620
06E0
0640
0600
ENDCHAR
STARTCHAR 4EE5
ENCODING 20197
SWIDTH 1040 0
DWIDTH 13 0
BBX 13 13 0 -2
BITMAP
3030
2020
2820
2620
2720
2020
2020
2320
2F20
2E20
F050
4398
0E08
ENDCHAR
STARTCHAR 4EED
ENCODING 20205
SWIDTH 1040 0
DWIDTH 13 0
BBX 13 13 0 -2
BITMAP
1800
1010
1FF8
2090
2890
6690
A310
2390
27A0
2660
2638
28E0
3040
ENDCHAR
STARTCHAR 4EEE
ENCODING 20206
SWIDTH 1040 0
DWIDTH 13 0
BBX 13 13 0 -2
BITMAP
1810
17F8
1600
2620
27F0
66A0
A6A0
26A0
2EC0
2840
28A0
3338
2E10
ENDCHAR
STARTCHAR 4EF0
ENCODING 20208
SWIDTH 1040 0
DWIDTH 13 0
BBX 13 13 0 -2
BITMAP
1880
1390
2EF8
2890
2890
6890
A890
2B90
2F90
3EB0
28A0
2080
2080
ENDCHAR
STARTCHAR 4EF2
ENCODING 20210
SWIDTH 1040 0
DWIDTH 13 0
BBX 13 13 0 -2
BITMAP
18C0
1080
1090
2FF8
2890
6890
A890
2FF0
2890
2890
2080
2080
2080
ENDCHAR
STARTCHAR 4EF6
ENCODING 20214
SWIDTH 1040 0
DWIDTH 13 0
BBX 13 13 0 -2
BITMAP
18C0
1680
1690
2FF0
2880
6090
BFF8
2080
2080
2080
2080
2080
2080
ENDCHAR
STARTCHAR 4EF7
ENCODING 20215
SWIDTH 1040 0
DWIDTH 13 0
BBX 13 13 0 -2
BITMAP
1880
1380
1340
2620
2818
7770
A640
2640
2640
2640
2640
2840
3040
ENDCHAR
STARTCHAR 4EFB
ENCODING 20219
SWIDTH 1040 0
DWIDTH 13 0
BBX 13 13 0 -2
BITMAP
1820
10F0
1F80
2080
2090
7FF8
A080
2080
2080
2080
20A0
2FF0
2000
ENDCHAR
STARTCHAR 4F01
ENCODING 20225
SWIDTH 1040 0
DWIDTH 13 0
BBX 13 12 0 -1
BITMAP
0600
0F00
0880
1740
2638
C650
37C0
2600
2600
2600
2610
FFF8
ENDCHAR
STARTCHAR 4F09
ENCODING 20233
SWIDTH 1040 0
DWIDTH 13 0
BBX 13 13 0 -2
BITMAP
18C0
1090
1FF8
2000
2640
67E0
A640
2640
2640
2640
2850
2850
3038
ENDCHAR
STARTCHAR 4F0A
ENCODING 20234
SWIDTH 1040 0
DWIDTH 13 0
BBX 13 13 0 -2
BITMAP
1020
1FF0
10A0
3FF8
20A0
60A0
AFE0
20A0
20A0
2080
2080
2300
2E00
ENDCHAR
STARTCHAR 4F0D
ENCODING 20237
SWIDTH 1040 0
DWIDTH 13 0
BBX 13 13 0 -2
BITMAP
1020
1FF0
1080
2080
20A0
6FF0
A320
2320
2320
2320
2320
3FF8
2000
ENDCHAR
STARTCHAR 4F0E
ENCODING 20238
SWIDTH 1040 0
DWIDTH 13 0
BBX 13 13 0 -2
BITMAP
18C0
1090
1FF8
2080
2080
6FF0
A620
2320
2340
2340
20C0
2738
3810
ENDCHAR
STARTCHAR 4F0F
ENCODING 20239
SWIDTH 1040 0
DWIDTH 13 0
BBX 13 13 0 -2
BITMAP
18C0
10A0
1090
3FF8
2080
6080
A340
2340
2240
2640
2620
2838
3010
ENDCHAR
STARTCHAR 4F10
ENCODING 20240
SWIDTH 1040 0
DWIDTH 13 0
BBX 13 13 0 -2
BITMAP
1B80
1360
1310
23F8
3F00
60B0
A0A0
2040
2040
2040
20A8
2330
2E18
ENDCHAR
STARTCHAR 4F11
ENCODING 20241
SWIDTH 1040 0
DWIDTH 13 0
BBX 13 13 0 -2
BITMAP
18C0
1080
1090
3FF8
2080
63C0
A6A0
26A0
28B8
28B8
3090
2080
2080
ENDCHAR
STARTCHAR 4F1A
ENCODING 20250
SWIDTH 1040 0
DWIDTH 13 0
BBX 13 13 0 -2
BITMAP
0600
0700
0880
1040
2FB8
C010
3FE0
0600
0880
0880
1040
7FE0
2030
ENDCHAR
STARTCHAR 4F1C
ENCODING 20252
SWIDTH 1040 0
DWIDTH 13 0
BBX 13 13 0 -2
BITMAP
1B80
1340
1FE0
2340
2350
6638
B8C0
20A0
20B0
2FF0
2080
2080
2080
ENDCHAR
STARTCHAR 4F1D
ENCODING 20253
SWIDTH 1040 0
DWIDTH 13 0
BBX 13 13 0 -2
BITMAP
1820
17F0
1000
2010
3FF8
6080
A080
2340
2360
2320
2670
3F98
2808
ENDCHAR
STARTCHAR 4F2F
ENCODING 20271
SWIDTH 1040 0
DWIDTH 13 0
BBX 13 13 0 -2
BITMAP
18C0
1080
1310
27F8
2610
6610
A7F0
2610
2610
2610
2610
27F0
2610
ENDCHAR
STARTCHAR 4F30
ENCODING 20272
SWIDTH 1040 0
DWIDTH 13 0
BBX 13 13 0 -2
BITMAP
18C0
1080
1090
3FF8
2080
6080
A6A0
27F0
2620
2620
2620
27E0
2620
ENDCHAR
STARTCHAR 4F34
ENCODING 20276
SWIDTH 1040 0
DWIDTH 13 0
BBX 13 13 0 -2
BITMAP
18C0
16B0
16A0
20A0
2FF0
6080
A090
3FF8
2080
2080
2080
2080
2080
ENDCHAR
STARTCHAR 4F36
ENCODING 20278
SWIDTH 1040 0
DWIDTH 13 0
BBX 13 13 0 -2
BITMAP
1880
1380
1340
2620
2FF8
7010
AFE0
2320
2320
2320
23E0
2340
2300
ENDCHAR
STARTCHAR 4F38
ENCODING 20280
SWIDTH 1040 0
DWIDTH 13 0
BBX 13 13 0 -2
BITMAP
18C0
1090
1FF8
2890
2FF0
6890
A890
2FF0
2890
2890
2080
2080
2080
ENDCHAR
STARTCHAR 4F3A
ENCODING 20282
SWIDTH 1040 0
DWIDTH 13 0
BBX 13 13 0 -2
BITMAP
1010
1FF8
3010
2FD0
2010
6FD0
A890
2890
2890
2F90
2890
2070
2020
ENDCHAR
STARTCHAR 4F3C
ENCODING 20284
SWIDTH 1040 0
DWIDTH 13 0
BBX 13 13 0 -2
BITMAP
3E30
2820
2E20
2B20
6BA0
A820
2820
28A0
2BA0
2B20
2E50
3890
2718
ENDCHAR
STARTCHAR 4F3D
ENCODING 20285
SWIDTH 1040 0
DWIDTH 13 0
BBX 13 13 0 -2
BITMAP
1700
1600
1650
3F78
2B50
6B50
AB50
2B50
2B50
2B50
2B50
3770
2650
ENDCHAR
STARTCHAR 4F43
ENCODING 20291
SWIDTH 1040 0
DWIDTH 13 0
BBX 13 13 0 -2
BITMAP
1810
17F8
1690
2690
2690
67F0
A690
2690
2690
2690
2690
27F0
2610
ENDCHAR
STARTCHAR 4F46
ENCODING 20294
SWIDTH 1040 0
DWIDTH 13 0
BBX 13 13 0 -2
BITMAP
1820
17F0
1620
2620
27E0
6620
A620
27E0
2620
2620
2010
3FF8
2000
ENDCHAR
STARTCHAR 4F47
ENCODING 20295
SWIDTH 1040 0
DWIDTH 13 0
BBX 13 13 0 -2
BITMAP
18C0
1090
1FF8
2810
2820
7FF8
A080
2080
2080
2080
2080
2780
2300
ENDCHAR
STARTCHAR 4F4D
ENCODING 20301
SWIDTH 1040 0
DWIDTH 13 0
BBX 13 13 0 -2
BITMAP
18C0
1080
10A0
2FF0
2820
6620
A620
2640
2740
2740
2090
3FF8
2000
ENDCHAR
STARTCHAR 4F4E
ENCODING 20302
SWIDTH 1040 0
DWIDTH 13 0
BBX 13 13 0 -2
BITMAP
1820
1670
17C0
2650
27F8
6640
A640
26A0
2728
2F28
28B0
27D8
2008
ENDCHAR
STARTCHAR 4F4F
ENCODING 20303
SWIDTH 1040 0
DWIDTH 13 0
BBX 13 13 0 -2
BITMAP
1B00
10C0
1040
2FF0
2080
60A0
A7E0
2080
2080
2080
2090
3FF8
2000
ENDCHAR
STARTCHAR 4F50
ENCODING 20304
SWIDTH 1040 0
DWIDTH 13 0
BBX 13 13 0 -2
BITMAP
1B80
1300
1310
3FF8
2600
6620
AFF0
3080
2080
2080
2090
2FF8
2000
ENDCHAR
STARTCHAR 4F51
ENCODING 20305
SWIDTH 1040 0
DWIDTH 13 0
BBX 13 13 0 -2
BITMAP
1B80
1310
1FF8
2300
2600
6620
AFF0
3620
2620
2620
2620
27E0
2620
ENDCHAR
STARTCHAR 4F53
ENCODING 20307
SWIDTH 1040 0
DWIDTH 13 0
BBX 13 13 0 -2
BITMAP
1B80
1300
1310
3FF8
2380
6740
A740
2B20
2B38
2B38
37D0
2300
2300
ENDCHAR
STARTCHAR 4F55
ENCODING 20309
SWIDTH 1040 0
DWIDTH 13 0
BBX 13 13 0 -2
BITMAP
1010
1FF8
3020
28A0
2FA0
68A0
A8A0
2FA0
28A0
28A0
2020
20E0
2040
ENDCHAR
STARTCHAR 4F57
ENCODING 20311
SWIDTH 1040 0
DWIDTH 13 0
BBX 13 13 0 -2
BITMAP
18C0
1090
1FF8
2810
3B80
6330
A320
23C0
2300
2300
2310
2310
20F8
ENDCHAR
STARTCHAR 4F59
ENCODING 20313
SWIDTH 1040 0
DWIDTH 13 0
BBX 13 13 0 -2
BITMAP
0600
0F00
0880
1040
3FB8
C610
7FE0
0600
36C0
36C0
2620
DE30
0800
ENDCHAR
STARTCHAR 4F5A
ENCODING 20314
SWIDTH 1040 0
DWIDTH 13 0
BBX 13 13 0 -2
BITMAP
16C0
16A0
17F0
2880
3090
7FF8
A080
2340
2340
2340
2620
2838
3010
ENDCHAR
STARTCHAR 4F5B
ENCODING 20315
SWIDTH 1040 0
DWIDTH 13 0
BBX 13 13 0 -2
BITMAP
1BE0
1340
1FF0
2350
2FF0
6B40
AFF8
2B50
2B50
2350
2670
2640
3840
ENDCHAR
STARTCHAR 4F5C
ENCODING 20316
SWIDTH 1040 0
DWIDTH 13 0
BBX 13 13 0 -2
BITMAP
1B80
1310
17F8
2680
28A0
70F0
A080
2090
2098
20F8
2080
2080
2080
ENDCHAR
STARTCHAR 4F5D
ENCODING 20317
SWIDTH 1040 0
DWIDTH 13 0
BBX 13 13 0 -2
BITMAP
1700
1610
2FF8
2810
3F90
6890
A890
2F90
2890
2890
2020
20E0
2040
ENDCHAR
STARTCHAR 4F5E
ENCODING 20318
SWIDTH 1040 0
DWIDTH 13 0
BBX 13 13 0 -2
BITMAP
1840
17E0
1010
3FF8
2300
6310
BFF8
2620
2740
2F40
20C0
2320
3E30
ENDCHAR
STARTCHAR 4F69
ENCODING 20329
SWIDTH 1040 0
DWIDTH 13 0
BBX 13 13 0 -2
BITMAP
1010
1FF8
2810
2FF0
2B10
6B50
AFD0
2B50
2B58
2B58
2BD0
3358
2308
ENDCHAR
STARTCHAR 4F6F
ENCODING 20335
SWIDTH 1040 0
DWIDTH 13 0
BBX 13 13 0 -2
BITMAP
1760
1340
1FF0
2080
20A0
6FE0
A080
2090
2098
3FF8
2080
2080
2080
ENDCHAR
STARTCHAR 4F70
ENCODING 20336
SWIDTH 1040 0
DWIDTH 13 0
BBX 13 13 0 -2
BITMAP
1010
1FF8
1040
2690
27F8
6610
A610
27F0
2610
2610
2610
27F0
2610
ENDCHAR
STARTCHAR 4F73
ENCODING 20339
SWIDTH 1040 0
DWIDTH 13 0
BBX 13 13 0 -2
BITMAP
1B80
1340
1FE0
2300
3FF0
6300
A320
2FF0
2F00
2300
2310
3FF8
2000
ENDCHAR
STARTCHAR 4F75
ENCODING 20341
SWIDTH 1040 0
DWIDTH 13 0
BBX 13 13 0 -2
BITMAP
1B60
1340
1FF0
2640
2650
7FF8
A640
2640
2640
2640
2840
2840
3040
ENDCHAR
STARTCHAR 4F76
ENCODING 20342
SWIDTH 1040 0
DWIDTH 13 0
BBX 13 13 0 -2
BITMAP
18C0
1090
1FF8
2080
20A0
6FF0
A000
27F0
2620
2620
2620
27E0
2620
ENDCHAR
STARTCHAR 4F7B
ENCODING 20347
SWIDTH 1040 0
DWIDTH 13 0
BBX 13 13 0 -2
BITMAP
1BE0
1340
1350
2B50
2F60
6340
A760
3B50
2B50
2B50
2648
2648
3838
ENDCHAR
STARTCHAR 4F7C
ENCODING 20348
SWIDTH 1040 0
DWIDTH 13 0
BBX 13 13 0 -2
BITMAP
1B80
1310
1FF8
2640
2E30
7650
A340
2340
23C0
2080
2340
2638
3810
ENDCHAR
STARTCHAR 4F7F
ENCODING 20351
SWIDTH 1040 0
DWIDTH 13 0
BBX 13 13 0 -2
BITMAP
18C0
1090
1FF8
2080
2FF0
6890
AFF0
2890
2E90
2680
2380
2678
3810
ENDCHAR
STARTCHAR 4F83
ENCODING 20355
SWIDTH 1040 0
DWIDTH 13 0
BBX 13 13 0 -2
BITMAP
1820
17F0
1620
2620
27E0
6000
A6A0
26A0
26A0
26A0
26A0
28A8
3038
ENDCHAR
STARTCHAR 4F86
ENCODING 20358
SWIDTH 1040 0
DWIDTH 13 0
BBX 13 13 0 -2
BITMAP
0700
0610
FFF8
2640
2640
56A0
4E90
8718
8698
0E80
1640
2638
C610
ENDCHAR
STARTCHAR 4F88
ENCODING 20360
SWIDTH 1040 0
DWIDTH 13 0
BBX 13 13 0 -2
BITMAP
1B80
1320
17E0
3B40
2080
6790
B8F8
2310
2FB0
2EA0
2040
2380
3E00
ENDCHAR
STARTCHAR 4F8B
ENCODING 20363
SWIDTH 1040 0
DWIDTH 13 0
BBX 13 13 0 -2
BITMAP
1318
1F90
2850
2B50
2F50
6B50
AB50
3750
2650
2610
2610
2870
3020
ENDCHAR
STARTCHAR 4F8D
ENCODING 20365
SWIDTH 1040 0
DWIDTH 13 0
BBX 13 13 0 -2
BITMAP
18C0
10A0
17F0
2080
3FF8
6020
AFF8
2620
2720
2320
23A0
2060
2040
ENDCHAR
STARTCHAR 4F8F
ENCODING 20367
SWIDTH 1040 0
DWIDTH 13 0
BBX 13 13 0 -2
BITMAP
16C0
16A0
17F0
2880
3090
7FF8
A3C0
26A0
26A0
26A0
28B8
3090
2080
ENDCHAR
STARTCHAR 4F91
ENCODING 20369
SWIDTH 1040 0
DWIDTH 13 0
BBX 13 13 0 -2
BITMAP
1B80
1310
1FF8
2300
27F0
6620
AFE0
3620
2620
27E0
2620
26E0
2640
ENDCHAR
STARTCHAR 4F96
ENCODING 20374
SWIDTH 1040 0
DWIDTH 13 0
BBX 13 13 0 -2
BITMAP
0600
0700
0880
1FC0
2038
FFF0
2B20
3FE0
2B20
2B20
2B20
2BE0
2040
ENDCHAR
STARTCHAR 4F98
ENCODING 20376
SWIDTH 1040 0
DWIDTH 13 0
BBX 13 13 0 -2
BITMAP
1B80
1310
1FF8
2810
3860
6FC0
A310
3FF8
2300
2300
2310
2310
20F8
ENDCHAR
STARTCHAR 4F9B
ENCODING 20379
SWIDTH 1040 0
DWIDTH 13 0
BBX 13 13 0 -2
BITMAP
1BE0
1340
1350
2FF0
2340
6340
A350
3FF8
2040
2040
2720
2610
3818
ENDCHAR
STARTCHAR 4F9D
ENCODING 20381
SWIDTH 1040 0
DWIDTH 13 0
BBX 13 13 0 -2
BITMAP
18C0
1090
1FF8
2300
2300
66B0
AEA0
3640
2640
2640
27A0
2E38
2810
ENDCHAR
STARTCHAR 4FA0
ENCODING 20384
SWIDTH 1040 0
DWIDTH 13 0
BBX 13 13 0 -2
BITMAP
18C0
1090
1FF0
2890
2690
66A0
BFF8
2340
2340
2340
2620
2838
3010
ENDCHAR
STARTCHAR 4FA1
ENCODING 20385
SWIDTH 1040 0
DWIDTH 13 0
BBX 13 13 0 -2
BITMAP
1010
1FF8
3340
2B50
2FF8
6B50
AB50
2B50
2B50
2B50
2B50
2FF0
2810
ENDCHAR
STARTCHAR 4FAB
ENCODING 20395
SWIDTH 1040 0
DWIDTH 13 0
BBX 13 13 0 -2
BITMAP
18C0
1690
17F8
2600
2600
63F0
A300
3FF8
2620
2620
2740
20E0
3F10
ENDCHAR
STARTCHAR 4FAD
ENCODING 20397
SWIDTH 1040 0
DWIDTH 13 0
BBX 13 13 0 -2
BITMAP
1820
17F0
1620
2620
27E0
6640
A620
2BA0
2BF8
28D8
3710
20C0
2060
ENDCHAR
STARTCHAR 4FAE
ENCODING 20398
SWIDTH 1040 0
DWIDTH 13 0
BBX 13 13 0 -2
BITMAP
1B80
1310
17F8
2E00
37F0
66A8
BFF8
26A0
26A8
26A8
2FF8
2820
20C0
ENDCHAR
STARTCHAR 4FAF
ENCODING 20399
SWIDTH 1040 0
DWIDTH 13 0
BBX 13 13 0 -2
BITMAP
1840
17E0
1050
3FF8
2600
67F0
A880
3FF8
2080
2080
2340
2638
3810
ENDCHAR
STARTCHAR 4FB5
ENCODING 20405
SWIDTH 1040 0
DWIDTH 13 0
BBX 13 13 0 -2
BITMAP
1820
17F0
1020
27E0
2820
6FF8
B810
27E0
2720
2320
20C0
2738
3810
ENDCHAR
STARTCHAR 4FB6
ENCODING 20406
SWIDTH 1040 0
DWIDTH 13 0
BBX 13 13 0 -2
BITMAP
1820
17F0
1620
2620
27E0
66A0
AB10
2FF8
2810
2810
2810
2FF0
2810
ENDCHAR
STARTCHAR 4FBF
ENCODING 20415
SWIDTH 1040 0
DWIDTH 13 0
BBX 13 13 0 -2
BITMAP
1010
1FF8
1080
2FF0
28A0
6FE0
A8A0
2FE0
2EA0
26A0
2380
2678
3810
ENDCHAR
STARTCHAR 4FC2
ENCODING 20418
SWIDTH 1040 0
DWIDTH 13 0
BBX 13 13 0 -2
BITMAP
1820
10F0
1F40
2680
23A0
6370
BF98
20C0
2EA0
2EA0
2890
3098
2080
ENDCHAR
STARTCHAR 4FC3
ENCODING 20419
SWIDTH 1040 0
DWIDTH 13 0
BBX 13 13 0 -2
BITMAP
1820
17F0
1620
2620
27E0
6080
A6A0
26F0
2680
2680
2E80
2B80
30F8
ENDCHAR
STARTCHAR 4FC4
ENCODING 20420
SWIDTH 1040 0
DWIDTH 13 0
BBX 13 13 0 -2
BITMAP
1360
1750
3E58
2650
7FF8
A640
27D8
3E50
2670
2620
2628
2E50
2B98
ENDCHAR
STARTCHAR 4FCA
ENCODING 20426
SWIDTH 1040 0
DWIDTH 13 0
BBX 13 13 0 -2
BITMAP
1B80
1320
1FF0
2690
2680
6B78
B300
27E0
3F40
3B40
2080
2778
3810
ENDCHAR
STARTCHAR 4FCE
ENCODING 20430
SWIDTH 1040 0
DWIDTH 13 0
BBX 13 12 0 -1
BITMAP
3320
23F0
2320
5320
4BE0
AB20
2320
23E0
7320
5320
4B20
9FF8
ENDCHAR
STARTCHAR 4FD0
ENCODING 20432
SWIDTH 1040 0
DWIDTH 13 0
BBX 13 13 0 -2
BITMAP
1898
13D0
1F50
2650
3FD0
6650
AF50
2ED0
36D0
3650
2610
2670
2620
ENDCHAR
STARTCHAR 4FD1
ENCODING 20433
SWIDTH 1040 0
DWIDTH 13 0
BBX 13 13 0 -2
BITMAP
1820
17F0
1340
2890
2FF8
6890
AFF0
2890
2890
2FF0
2890
28B0
28A0
ENDCHAR
STARTCHAR 4FD4
ENCODING 20436
SWIDTH 1040 0
DWIDTH 13 0
BBX 13 13 0 -2
BITMAP
1820
17F0
1620
27E0
2620
67E0
A620
27E0
2740
2340
2350
2650
3838
ENDCHAR
STARTCHAR 4FD7
ENCODING 20439
SWIDTH 1040 0
DWIDTH 13 0
BBX 13 13 0 -2
BITMAP
1740
1620
1610
2898
3380
6340
A620
2FF8
3620
3620
2620
27E0
2620
ENDCHAR
STARTCHAR 4FD8
ENCODING 20440
SWIDTH 1040 0
DWIDTH 13 0
BBX 13 13 0 -2
BITMAP
1870
17A0
1690
2850
27E0
6040
A090
3FF8
2080
2080
2080
2780
2300
ENDCHAR
STARTCHAR 4FDA
ENCODING 20442
SWIDTH 1040 0
DWIDTH 13 0
BBX 13 13 0 -2
BITMAP
1820
17F0
16A0
27E0
26A0
67E0
A6A0
2080
20F0
2FF0
2080
3FF8
2000
ENDCHAR
STARTCHAR 4FDB
ENCODING 20443
SWIDTH 1040 0
DWIDTH 13 0
BBX 13 13 0 -2
BITMAP
1B00
13E0
1640
2FF0
3B20
6B20
AFE0
26A0
26A0
2680
2690
2890
3078
ENDCHAR
STARTCHAR 4FDD
ENCODING 20445
SWIDTH 1040 0
DWIDTH 13 0
BBX 13 13 0 -2
BITMAP
1820
17F0
1620
2620
27E0
6090
BFF8
26C0
26A0
26A0
28B8
3090
2080
ENDCHAR
STARTCHAR 4FDF
ENCODING 20447
SWIDTH 1040 0
DWIDTH 13 0
BBX 13 13 0 -2
BITMAP
1B80
1320
1670
3F90
2640
6FE0
A890
3FF8
2080
2080
2340
2638
3810
ENDCHAR
STARTCHAR 4FE1
ENCODING 20449
SWIDTH 1040 0
DWIDTH 13 0
BBX 13 13 0 -2
BITMAP
1BE0
1010
1FF8
2000
27E0
6000
A7E0
2000
27F0
27F0
2620
27E0
2620
ENDCHAR
STARTCHAR 4FE3
ENCODING 20451
SWIDTH 1040 0
DWIDTH 13 0
BBX 13 13 0 -2
BITMAP
1820
17F0
1620
27E0
2000
6FF0
A080
3FF8
2080
2080
2340
2638
3810
ENDCHAR
STARTCHAR 4FE4
ENCODING 20452
SWIDTH 1040 0
DWIDTH 13 0
BBX 13 13 0 -2
BITMAP
1760
1340
1FF0
20A0
2FE0
6890
AFF8
3B90
2A90
2690
26B0
38A0
2080
ENDCHAR
STARTCHAR 4FE5
ENCODING 20453
SWIDTH 1040 0
DWIDTH 13 0
BBX 13 13 0 -2
BITMAP
1080
1FF0
1080
27E0
26A0
67E0
A6A0
27E0
2790
2090
3FF8
2080
2080
ENDCHAR
STARTCHAR 4FEE
ENCODING 20462
SWIDTH 1040 0
DWIDTH 13 0
BBX 13 13 0 -2
BITMAP
1B80
1310
17F8
2EA0
2840
6FB8
A850
2BA0
2BF8
2858
2B90
2060
2780
ENDCHAR
STARTCHAR 4FEF
ENCODING 20463
SWIDTH 1040 0
DWIDTH 13 0
BBX 13 13 0 -2
BITMAP
18C0
1090
1FF8
28A0
2B20
6BF8
AF20
2BA0
2BA0
2B60
2B20
3360
2340
ENDCHAR
STARTCHAR 4FF3
ENCODING 20467
SWIDTH 1040 0
DWIDTH 13 0
BBX 13 13 0 -2
BITMAP
1BE0
1350
1F78
2340
2350
7F70
A340
2750
2B58
3B78
2640
2640
3840
ENDCHAR
STARTCHAR 4FF5
ENCODING 20469
SWIDTH 1040 0
DWIDTH 13 0
BBX 13 13 0 -2
BITMAP
10A0
1FF0
1080
27E0
2090
7FF8
A310
26A0
26C0
3E40
26A0
2F38
2610
ENDCHAR
STARTCHAR 4FF6
ENCODING 20470
SWIDTH 1040 0
DWIDTH 13 0
BBX 13 13 0 -2
BITMAP
1700
1690
17F8
2650
2650
7FD0
A620
2F20
3750
36D0
2650
2E98
2B10
ENDCHAR
STARTCHAR 4FF8
ENCODING 20472
SWIDTH 1040 0
DWIDTH 13 0
BBX 13 13 0 -2
BITMAP
10A0
1FF0
1080
27E0
2350
7FF8
A6A0
2BD8
3390
3090
2FF0
2080
2080
ENDCHAR
STARTCHAR 4FFA
ENCODING 20474
SWIDTH 1040 0
DWIDTH 13 0
BBX 13 13 0 -2
BITMAP
18C0
1090
1FF8
2340
2620
6FF8
B6A0
27E0
26A0
26A0
27F0
2690
2078
ENDCHAR
STARTCHAR 4FFE
ENCODING 20478
SWIDTH 1040 0
DWIDTH 13 0
BBX 13 13 0 -2
BITMAP
1B80
1320
17F0
26A0
27E0
66A0
A7E0
2340
2250
2650
3FF8
2040
2040
ENDCHAR
STARTCHAR 5005
ENCODING 20485
SWIDTH 1040 0
DWIDTH 13 0
BBX 13 13 0 -2
BITMAP
18C0
10A0
1FF0
2620
2620
6B50
A890
3FF8
2080
2080
2080
2080
2080
ENDCHAR
STARTCHAR 5006
ENCODING 20486
SWIDTH 1040 0
DWIDTH 13 0
BBX 13 13 0 -2
BITMAP
1010
1FF8
1080
2890
2FF8
6890
AFF0
2BB0
2BB0
2BB0
2ED0
28B0
28A0
ENDCHAR
STARTCHAR 5009
ENCODING 20489
SWIDTH 1040 0
DWIDTH 13 0
BBX 13 13 0 -2
BITMAP
0700
0880
1FC0
3078
DFD0
1040
1FC0
2000
3FE0
3FE0
5040
9FC0
1040
ENDCHAR
STARTCHAR 500B
ENCODING 20491
SWIDTH 1040 0
DWIDTH 13 0
BBX 13 13 0 -2
BITMAP
1010
1FF8
2890
2890
2FF0
6890
ABD0
2B50
2B50
2BD0
2810
2FF0
2810
ENDCHAR
STARTCHAR 500D
ENCODING 20493
SWIDTH 1040 0
DWIDTH 13 0
BBX 13 13 0 -2
BITMAP
18C0
10A0
1FF0
2620
2350
7FF8
A000
27F0
2620
2620
2620
27E0
2620
ENDCHAR
STARTCHAR 500F
ENCODING 20495
SWIDTH 1040 0
DWIDTH 13 0
BBX 13 13 0 -2
BITMAP
1B00
13E0
1340
2EC0
2BB8
6ED0
A8A0
2FF0
2880
2880
2B40
2338
2E10
ENDCHAR
STARTCHAR 5011
ENCODING 20497
SWIDTH 1040 0
DWIDTH 13 0
BBX 13 13 0 -2
BITMAP
1350
1F78
2B50
2F70
2B50
6F70
A810
2810
2810
2810
2810
2870
2820
ENDCHAR
STARTCHAR 5012
ENCODING 20498
SWIDTH 1040 0
DWIDTH 13 0
BBX 13 13 0 -2
BITMAP
1098
1FD0
2650
2B50
3FD0
6650
A650
3FD0
2610
2610
2790
3E70
2820
ENDCHAR
STARTCHAR 5014
ENCODING 20500
SWIDTH 1040 0
DWIDTH 13 0
BBX 13 13 0 -2
BITMAP
1010
1FF8
2810
2FF0
2840
6B50
AB50
2BF0
2A58
2E58
3650
27F0
2610
ENDCHAR
STARTCHAR 5016
ENCODING 20502
SWIDTH 1040 0
DWIDTH 13 0
BBX 13 13 0 -2
BITMAP
18C0
10A0
1FF0
2080
3FF8
6620
A340
3FF8
2080
2080
2FF0
2080
2080
ENDCHAR
STARTCHAR 5019
ENCODING 20505
SWIDTH 1040 0
DWIDTH 13 0
BBX 13 13 0 -2
BITMAP
1840
17E0
1050
2FF8
2B00
6BF0
AE80
2FF8
2880
2880
2B40
2338
2E10
ENDCHAR
STARTCHAR 501A
ENCODING 20506
SWIDTH 1040 0
DWIDTH 13 0
BBX 13 13 0 -2
BITMAP
1B80
1320
1FF0
2680
2850
7FF8
A020
2FA0
28A0
28A0
2FA0
28E0
2040
ENDCHAR
STARTCHAR 501F
ENCODING 20511
SWIDTH 1040 0
DWIDTH 13 0
BBX 13 13 0 -2
BITMAP
1BE0
1340
1FF0
2340
3FF8
6000
A7F0
2620
2620
27E0
2620
27E0
2620
ENDCHAR
STARTCHAR 5021
ENCODING 20513
SWIDTH 1040 0
DWIDTH 13 0
BBX 13 13 0 -2
BITMAP
1FF0
1620
17E0
2620
27E0
6810
AFF8
2810
2810
2FF0
2810
2FF0
2810
ENDCHAR
STARTCHAR 5023
ENCODING 20515
SWIDTH 1040 0
DWIDTH 13 0
BBX 13 13 0 -2
BITMAP
1760
1640
1F50
28F8
2B90
6F50
AB50
2B20
2B20
2B20
2B50
3758
2690
ENDCHAR
STARTCHAR 5024
ENCODING 20516
SWIDTH 1040 0
DWIDTH 13 0
BBX 13 13 0 -2
BITMAP
18C0
1090
1FF8
2080
2BF0
6B20
ABE0
2B20
2B20
2BE0
2B20
2FF8
2800
ENDCHAR
STARTCHAR 5025
ENCODING 20517
SWIDTH 1040 0
DWIDTH 13 0
BBX 13 13 0 -2
BITMAP
18C0
1090
1FF8
2B50
3B40
6E38
A000
2FF0
2F80
2080
2090
3FF8
2000
ENDCHAR
STARTCHAR 5026
ENCODING 20518
SWIDTH 1040 0
DWIDTH 13 0
BBX 13 13 0 -2
BITMAP
18D0
16A0
1FF0
2080
3FF8
6640
A7E0
2858
3850
37D0
2620
2620
23F0
ENDCHAR
STARTCHAR 5028
ENCODING 20520
SWIDTH 1040 0
DWIDTH 13 0
BBX 13 13 0 -2
BITMAP
1010
1FF8
2810
2FF0
2840
6FF8
A840
2B50
2B58
2BF8
2B10
33F0
2310
ENDCHAR
STARTCHAR 5029
ENCODING 20521
SWIDTH 1040 0
DWIDTH 13 0
BBX 13 13 0 -2
BITMAP
10A0
1FF0
1080
27E0
2090
7FF8
A6A0
26A0
26A0
27E0
2620
2620
2660
ENDCHAR
STARTCHAR 502A
ENCODING 20522
SWIDTH 1040 0
DWIDTH 13 0
BBX 13 13 0 -2
BITMAP
1080
1390
2F78
2810
2F70
6810
AFF0
2B50
2B50
2340
2648
2648
3838
ENDCHAR
STARTCHAR 502B
ENCODING 20523
SWIDTH 1040 0
DWIDTH 13 0
BBX 13 13 0 -2
BITMAP
1B80
1340
1620
27F8
2810
7FF8
AB50
2B50
2B50
2FF0
2B50
2B70
2820
ENDCHAR
STARTCHAR 502C
ENCODING 20524
SWIDTH 1040 0
DWIDTH 13 0
BBX 13 13 0 -2
BITMAP
18A0
10F0
1680
27F0
2620
67E0
A620
27E0
2790
2090
3FF8
2080
2080
ENDCHAR
STARTCHAR 502D
ENCODING 20525
SWIDTH 1040 0
DWIDTH 13 0
BBX 13 13 0 -2
BITMAP
1860
17C0
1090
3FF8
23C0
6EB8
A390
3FF8
2320
2320
2E40
23E0
3E30
ENDCHAR
STARTCHAR 5036
ENCODING 20534
SWIDTH 1040 0
DWIDTH 13 0
BBX 13 13 0 -2
BITMAP
1820
17F0
1620
27E0
2620
67E0
A620
2620
2638
3FF8
2300
2730
3818
ENDCHAR
STARTCHAR 5039
ENCODING 20537
SWIDTH 1040 0
DWIDTH 13 0
BBX 13 13 0 -2
BITMAP
1880
13C0
1320
27F8
3890
6FF0
A890
2FF0
2890
2890
2340
2638
3810
ENDCHAR
STARTCHAR 5043
ENCODING 20547
SWIDTH 1040 0
DWIDTH 13 0
BBX 13 13 0 -2
BITMAP
1020
1FF0
2B20
2BE0
2B20
6BE0
A890
2FF8
2B20
2B20
28D0
2FF8
2800
ENDCHAR
STARTCHAR 5047
ENCODING 20551
SWIDTH 1040 0
DWIDTH 13 0
BBX 13 13 0 -2
BITMAP
1310
1F78
2B10
2F70
2B10
6880
AFF8
2890
2950
2F50
2820
2858
2B90
ENDCHAR
STARTCHAR 5048
ENCODING 20552
SWIDTH 1040 0
DWIDTH 13 0
BBX 13 13 0 -2
BITMAP
1FE0
1620
17E0
2620
27E0
6310
A7F8
2890
3E90
3690
2750
27E0
2040
ENDCHAR
STARTCHAR 5049
ENCODING 20553
SWIDTH 1040 0
DWIDTH 13 0
BBX 13 13 0 -2
BITMAP
1B00
17E0
1320
3FF8
2620
67E0
A040
2FE0
2E50
2650
3FF8
2040
2040
ENDCHAR
STARTCHAR 504F
ENCODING 20559
SWIDTH 1040 0
DWIDTH 13 0
BBX 13 13 0 -2
BITMAP
1010
1FF8
2820
2FE0
2810
6FF8
AB50
2B50
2B50
3FF0
2B50
2B70
2820
ENDCHAR
STARTCHAR 5050
ENCODING 20560
SWIDTH 1040 0
DWIDTH 13 0
BBX 13 13 0 -2
BITMAP
1880
17F0
1320
28C0
2FF8
6840
ABA0
2840
2BF0
2BB0
2820
30C0
2700
ENDCHAR
STARTCHAR 5055
ENCODING 20565
SWIDTH 1040 0
DWIDTH 13 0
BBX 13 13 0 -2
BITMAP
1760
1650
1770
26C0
2F48
78B8
A7E0
2620
2620
27E0
2620
27E0
2620
ENDCHAR
STARTCHAR 5056
ENCODING 20566
SWIDTH 1040 0
DWIDTH 13 0
BBX 13 13 0 -2
BITMAP
1B80
1330
1FE0
2350
3FF8
6340
A7F0
2E20
3620
37E0
2620
27E0
2620
ENDCHAR
STARTCHAR 505A
ENCODING 20570
SWIDTH 1040 0
DWIDTH 13 0
BBX 13 13 0 -2
BITMAP
1760
1640
1650
3FF8
2690
6650
AF50
2B20
2B20
2B20
2F50
2898
2710
ENDCHAR
STARTCHAR 505C
ENCODING 20572
SWIDTH 1040 0
DWIDTH 13 0
BBX 13 13 0 -2
BITMAP
1080
1FF0
1640
27C0
2810
6FF8
B810
2FE0
2F80
2080
2080
2780
2300
ENDCHAR
STARTCHAR 5065
ENCODING 20581
SWIDTH 1040 0
DWIDTH 13 0
BBX 13 13 0 -2
BITMAP
1860
1640
3FF0
2650
2BF8
7E50
A7F0
3640
3678
2FF8
2840
2E40
33F8
ENDCHAR
STARTCHAR 506C
ENCODING 20588
SWIDTH 1040 0
DWIDTH 13 0
BBX 13 13 0 -2
BITMAP
1B80
1310
17F8
2B50
3350
6EB0
A360
2E20
2FB0
2390
2B58
2B48
30E0
ENDCHAR
STARTCHAR 5072
ENCODING 20594
SWIDTH 1040 0
DWIDTH 13 0
BBX 13 13 0 -2
BITMAP
1810
17F8
1690
27F0
2690
67F0
A610
23A0
2BD0
2B50
2B58
2B28
30E0
ENDCHAR
STARTCHAR 5074
ENCODING 20596
SWIDTH 1040 0
DWIDTH 13 0
BBX 13 13 0 -2
BITMAP
1318
1F50
2B50
2F50
2B50
6F50
AB50
2F50
2F50
2010
2F10
2BB0
30A0
ENDCHAR
STARTCHAR 5075
ENCODING 20597
SWIDTH 1040 0
DWIDTH 13 0
BBX 13 13 0 -2
BITMAP
1890
10F8
1680
27F0
2620
67E0
A620
27E0
2620
2620
27E0
2630
3E18
ENDCHAR
STARTCHAR 5076
ENCODING 20598
SWIDTH 1040 0
DWIDTH 13 0
BBX 13 13 0 -2
BITMAP
1820
17F0
16A0
27E0
26A0
67E0
A890
2FF8
2B50
2B50
2FD0
2B30
2820
ENDCHAR
STARTCHAR 5078
ENCODING 20600
SWIDTH 1040 0
DWIDTH 13 0
BBX 13 13 0 -2
BITMAP
1B00
1380
1660
2FD8
3010
6F50
AB50
2FA0
2BA0
2BA0
2F50
2B50
2B50
ENDCHAR
STARTCHAR 507D
ENCODING 20605
SWIDTH 1040 0
DWIDTH 13 0
BBX 13 13 0 -2
BITMAP
18C0
1680
2FE0
2640
67F0
A620
2FF8
2890
3ED0
3650
2B50
2B30
2020
ENDCHAR
STARTCHAR 5080
ENCODING 20608
SWIDTH 1040 0
DWIDTH 13 0
BBX 13 13 0 -2
BITMAP
1B80
1320
1FF0
2B20
2FE0
6B20
AFE0
26A0
26D0
26D0
26F0
2888
3078
ENDCHAR
STARTCHAR 5085
ENCODING 20613
SWIDTH 1040 0
DWIDTH 13 0
BBX 13 13 0 -2
BITMAP
18E0
1090
1FF8
2080
27F0
66A0
A7E0
26A0
26B8
3FF8
2820
2760
2040
ENDCHAR
STARTCHAR 508D
ENCODING 20621
SWIDTH 1040 0
DWIDTH 13 0
BBX 13 13 0 -2
BITMAP
18C0
1090
1FF8
2340
2FF8
6890
BFF8
2300
23F0
23F0
2620
26E0
3840
ENDCHAR
STARTCHAR 5091
ENCODING 20625
SWIDTH 1040 0
DWIDTH 13 0
BBX 13 13 0 -2
BITMAP
1610
1790
1B78
2E50
27F8
6890
B090
3FF8
23C0
23C0
26A0
28B8
3090
ENDCHAR
STARTCHAR 5098
ENCODING 20632
SWIDTH 1040 0
DWIDTH 13 0
BBX 13 13 0 -2
BITMAP
0600
0F80
3678
D650
2EA0
5750
1640
2EA8
2EA8
FFF8
0600
0600
0600
ENDCHAR
STARTCHAR 5099
ENCODING 20633
SWIDTH 1040 0
DWIDTH 13 0
BBX 13 13 0 -2
BITMAP
1B20
17F0
1320
2FF8
2800
6BF0
AB50
2BF0
2B50
2B50
2BF0
3350
2370
ENDCHAR
STARTCHAR 509A
ENCODING 20634
SWIDTH 1040 0
DWIDTH 13 0
BBX 13 13 0 -2
BITMAP
1760
1640
1FD0
2B78
2B90
70D0
AB50
2B20
2F20
2620
2B50
3358
2390
ENDCHAR
STARTCHAR 50AC
ENCODING 20652
SWIDTH 1040 0
DWIDTH 13 0
BBX 13 13 0 -2
BITMAP
1690
1690
17F0
2320
27F8
6E40
B7F0
2640
2670
27F0
2640
27F8
2600
ENDCHAR
STARTCHAR 50AD
ENCODING 20653
SWIDTH 1040 0
DWIDTH 13 0
BBX 13 13 0 -2
BITMAP
1050
1FF8
2850
2FF8
2850
6BF0
A840
2BF0
2B50
2B50
2BF0
3350
2370
ENDCHAR
STARTCHAR 50B2
ENCODING 20658
SWIDTH 1040 0
DWIDTH 13 0
BBX 13 13 0 -2
BITMAP
1660
1F40
1650
3FF8
2690
7FD0
A850
2FA0
2B20
2B20
2B50
3758
2690
ENDCHAR
STARTCHAR 50B3
ENCODING 20659
SWIDTH 1040 0
DWIDTH 13 0
BBX 13 13 0 -2
BITMAP
1090
1FF8
1080
27E0
26A0
67E0
A6A8
3FF8
2840
2840
2640
23C0
2080
ENDCHAR
STARTCHAR 50B4
ENCODING 20660
SWIDTH 1040 0
DWIDTH 13 0
BBX 13 13 0 -2
BITMAP
1010
1FF8
2800
28E0
28A0
6BF0
AB50
2B50
2B50
2BF0
2810
2FF8
2800
ENDCHAR
STARTCHAR 50B5
ENCODING 20661
SWIDTH 1040 0
DWIDTH 13 0
BBX 13 13 0 -2
BITMAP
1880
17F0
1080
27E0
2090
7FF8
A620
27E0
2620
2620
27E0
2630
3E18
ENDCHAR
STARTCHAR 50B7
ENCODING 20663
SWIDTH 1040 0
DWIDTH 13 0
BBX 13 13 0 -2
BITMAP
1B00
13F8
1720
2BE0
3320
6FF8
A300
27F8
3F50
3B50
2690
2B70
2620
ENDCHAR
STARTCHAR 50BE
ENCODING 20670
SWIDTH 1040 0
DWIDTH 13 0
BBX 13 13 0 -2
BITMAP
1810
17F8
1040
2EF0
2890
6BF0
AE90
28F0
2890
2890
27F0
20B0
2798
ENDCHAR
STARTCHAR 50C2
ENCODING 20674
SWIDTH 1040 0
DWIDTH 13 0
BBX 13 13 0 -2
BITMAP
1880
17E0
16A0
2FF8
26A0
67F0
A6A0
3FF8
2620
2620
2E40
23C0
3E30
ENDCHAR
STARTCHAR 50C5
ENCODING 20677
SWIDTH 1040 0
DWIDTH 13 0
BBX 13 13 0 -2
BITMAP
1B40
1350
1FF8
2340
27E0
66A0
AFF0
2080
20F0
2FF0
2080
3FF8
2000
ENDCHAR
STARTCHAR 50C9
ENCODING 20681
SWIDTH 1040 0
DWIDTH 13 0
BBX 13 13 0 -2
BITMAP
0600
0700
0880
1FC0
2038
FBE0
4B20
7BE0
5340
5340
1040
28B0
C718
ENDCHAR
STARTCHAR 50CA
ENCODING 20682
SWIDTH 1040 0
DWIDTH 13 0
BBX 13 13 0 -2
BITMAP
1010
1FF8
1340
2FF0
2B50
7FF8
A340
27E0
2658
3E58
27C0
2620
23F0
ENDCHAR
STARTCHAR 50CD
ENCODING 20685
SWIDTH 1040 0
DWIDTH 13 0
BBX 13 13 0 -2
BITMAP
23B0
3F20
26A8
5FF8
4628
DFA8
56A8
5FA8
56A8
56A8
7FC8
4678
7F90
ENDCHAR
STARTCHAR 50CF
ENCODING 20687
SWIDTH 1040 0
DWIDTH 13 0
BBX 13 13 0 -2
BITMAP
1B00
13E0
1640
2FF0
26A0
67E0
AF30
23A0
2FC0
2EC0
2360
2ED8
2090
ENDCHAR
STARTCHAR 50D1
ENCODING 20689
SWIDTH 1040 0
DWIDTH 13 0
BBX 13 13 0 -2
BITMAP
1860
17C0
1090
2FF8
2620
6BD8
B350
2FF8
2B50
2B50
2BD0
2B70
2820
ENDCHAR
STARTCHAR 50D5
ENCODING 20693
SWIDTH 1040 0
DWIDTH 13 0
BBX 13 13 0 -2
BITMAP
1B50
1760
1FF8
2640
2FF0
6080
A7E0
2090
2098
3FF8
2340
2638
3810
ENDCHAR
STARTCHAR 50D6
ENCODING 20694
SWIDTH 1040 0
DWIDTH 13 0
BBX 13 13 0 -2
BITMAP
18C0
1090
1FF8
2080
2FF0
6620
A7E0
2350
2358
3FF8
2620
27E0
2620
ENDCHAR
STARTCHAR 50DA
ENCODING 20698
SWIDTH 1040 0
DWIDTH 13 0
BBX 13 13 0 -2
BITMAP
1080
1FF8
2B50
27E0
2E38
77E0
A620
27E0
26A0
2EA0
2890
3798
2300
ENDCHAR
STARTCHAR 50DE
ENCODING 20702
SWIDTH 1040 0
DWIDTH 13 0
BBX 13 13 0 -2
BITMAP
1830
17E0
1690
2FE0
2620
67F0
A610
27F8
2690
2690
2B50
2B70
3020
ENDCHAR
STARTCHAR 50E3
ENCODING 20707
SWIDTH 1040 0
DWIDTH 13 0
BBX 13 13 0 -2
BITMAP
1620
1F70
16A0
3FF8
2620
6B50
B7E8
2620
2620
27E0
2620
27E0
2620
ENDCHAR
STARTCHAR 50E5
ENCODING 20709
SWIDTH 1040 0
DWIDTH 13 0
BBX 13 13 0 -2
BITMAP
1880
17E0
1080
2FF0
2620
7F70
A620
3FF8
2B40
2B40
2350
2650
3838
ENDCHAR
STARTCHAR 50E7
ENCODING 20711
SWIDTH 1040 0
DWIDTH 13 0
BBX 13 13 0 -2
BITMAP
1760
1350
1FF8
2890
2FF0
6890
AFF0
2620
2620
27E0
2620
27E0
2620
ENDCHAR
STARTCHAR 50ED
ENCODING 20717
SWIDTH 1040 0
DWIDTH 13 0
BBX 13 13 0 -2
BITMAP
1320
1FF8
13A0
3FF8
26A0
6B28
B7F8
2620
2620
27E0
2620
27E0
2620
ENDCHAR
STARTCHAR 50EE
ENCODING 20718
SWIDTH 1040 0
DWIDTH 13 0
BBX 13 13 0 -2
BITMAP
1080
1FF0
1620
2350
3FF8
66A0
A7E0
26A0
26B0
2FF0
2080
3FF8
2000
ENDCHAR
STARTCHAR 50F5
ENCODING 20725
SWIDTH 1040 0
DWIDTH 13 0
BBX 13 13 0 -2
BITMAP
1010
1FF8
1000
27E0
26A0
7FF8
A6A0
27E0
26A0
26A0
27E0
2010
3FF8
ENDCHAR
STARTCHAR 50F9
ENCODING 20729
SWIDTH 1040 0
DWIDTH 13 0
BBX 13 13 0 -2
BITMAP
1010
1FF8
1340
2FF0
2B50
6FF0
A620
27E0
2620
2620
27E0
2630
3E18
ENDCHAR
STARTCHAR 50FB
ENCODING 20731
SWIDTH 1040 0
DWIDTH 13 0
BBX 13 13 0 -2
BITMAP
1330
1F20
2BF8
2B50
2F50
6BF8
A820
2F28
2B28
3BF8
2B20
2F20
2B20
ENDCHAR
STARTCHAR 5100
ENCODING 20736
SWIDTH 1040 0
DWIDTH 13 0
BBX 13 13 0 -2
BITMAP
1340
1FF0
3080
2FE0
2090
7FF8
A6A0
3E90
2698
27F8
3E50
2668
2F98
ENDCHAR
STARTCHAR 5101
ENCODING 20737
SWIDTH 1040 0
DWIDTH 13 0
BBX 13 13 0 -2
BITMAP
1760
1640
2FF0
2E80
37F0
6680
A7F0
2810
2F18
2F78
2BD0
2B50
2830
ENDCHAR
STARTCHAR 5102
ENCODING 20738
SWIDTH 1040 0
DWIDTH 13 0
BBX 13 13 0 -2
BITMAP
1340
1FF0
2B50
2FF0
2B50
6FF8
A800
2FF8
2B90
2B90
2B60
37B8
2610
ENDCHAR
STARTCHAR 5104
ENCODING 20740
SWIDTH 1040 0
DWIDTH 13 0
BBX 13 13 0 -2
BITMAP
1880
17F0
1340
3FF8
2620
67E0
A620
27E0
2B50
2B50
2B68
3B28
20F0
ENDCHAR
STARTCHAR 5109
ENCODING 20745
SWIDTH 1040 0
DWIDTH 13 0
BBX 13 13 0 -2
BITMAP
1880
1380
1660
2FD8
3010
6F70
AB50
2F70
2E60
2620
2620
2B50
3398
ENDCHAR
STARTCHAR 5112
ENCODING 20754
SWIDTH 1040 0
DWIDTH 13 0
BBX 13 13 0 -2
BITMAP
1840
17E0
1090
2FF8
2890
66A0
BFF8
2300
23F0
2FF0
2B50
2B50
2B70
ENDCHAR
STARTCHAR 5114
ENCODING 20756
SWIDTH 1040 0
DWIDTH 13 0
BBX 13 13 0 -2
BITMAP
10A0
1FF0
10A0
3FF8
20A0
6FF0
A080
3FF8
2B90
2B90
2F50
2B70
2020
ENDCHAR
STARTCHAR 5115
ENCODING 20757
SWIDTH 1040 0
DWIDTH 13 0
BBX 13 13 0 -2
BITMAP
1090
1FF8
1348
3EB0
26A0
68B8
B7E8
2620
2620
27E0
2620
2620
3820
ENDCHAR
STARTCHAR 5116
ENCODING 20758
SWIDTH 1040 0
DWIDTH 13 0
BBX 13 13 0 -2
BITMAP
1030
1FA0
2B78
2F80
2B20
6FF0
A000
2FF0
2B50
2B50
2B50
3FF8
2000
ENDCHAR
STARTCHAR 5118
ENCODING 20760
SWIDTH 1040 0
DWIDTH 13 0
BBX 13 13 0 -2
BITMAP
1880
17E0
10A0
3FF8
20A0
6FF8
AB50
30A8
20B8
2FF0
2B50
3FF8
2000
ENDCHAR
STARTCHAR 511A
ENCODING 20762
SWIDTH 1040 0
DWIDTH 13 0
BBX 13 13 0 -2
BITMAP
1340
1FF8
1340
2FF0
2B50
6FF8
BB10
27E0
2640
2E40
2380
2700
3800
ENDCHAR
STARTCHAR 511F
ENCODING 20767
SWIDTH 1040 0
DWIDTH 13 0
BBX 13 13 0 -2
BITMAP
16A0
17F8
1B50
27E0
2620
67E0
A620
27E0
2620
2620
27E0
2630
3E18
ENDCHAR
STARTCHAR 5121
ENCODING 20769
SWIDTH 1040 0
DWIDTH 13 0
BBX 13 13 0 -2
BITMAP
1FE0
16A0
17E0
26A0
27E0
6810
AFF8
2B50
2B50
2FF0
2B50
2FF0
2B50
ENDCHAR
STARTCHAR 512A
ENCODING 20778
SWIDTH 1040 0
DWIDTH 13 0
BBX 13 13 0 -2
BITMAP
1010
1FF8
1620
27E0
2620
6FF8
BB50
2FF0
2F20
2320
2EC0
23B8
3E10
ENDCHAR
STARTCHAR 5132
ENCODING 20786
SWIDTH 1040 0
DWIDTH 13 0
BBX 13 13 0 -2
BITMAP
1F40
10F0
1F50
20F8
2F20
6050
AF78
20D0
2FD0
2F70
2B50
2F70
2B50
ENDCHAR
STARTCHAR 5137
ENCODING 20791
SWIDTH 1040 0
DWIDTH 13 0
BBX 13 13 0 -2
BITMAP
1308
1FF8
1348
2B68
2890
6FF8
AB50
2FF0
2B50
2B50
2B60
33D0
2738
ENDCHAR
STARTCHAR 513A
ENCODING 20794
SWIDTH 1040 0
DWIDTH 13 0
BBX 13 13 0 -2
BITMAP
2E60
3F58
2ED0
20F8
7F50
6B78
AB50
3F78
2B50
2B50
2850
3678
2340
ENDCHAR
STARTCHAR 513B
ENCODING 20795
SWIDTH 1040 0
DWIDTH 13 0
BBX 13 13 0 -2
BITMAP
18D0
16A0
1FF0
3650
2FE0
6B20
AFE0
2B20
2B30
2FF0
2300
3FF8
2B50
ENDCHAR
STARTCHAR 513C
ENCODING 20796
SWIDTH 1040 0
DWIDTH 13 0
BBX 13 13 0 -2
BITMAP
2F70
2B50
2F70
2000
6FF8
6820
AFF8
2B50
2BD0
2FB0
36A0
27D8
2E90
ENDCHAR
STARTCHAR 513F
ENCODING 20799
SWIDTH 1040 0
DWIDTH 13 0
BBX 13 13 0 -2
BITMAP
0EC0
0880
0880
0880
0880
0880
0880
0880
1880
1080
1090
2090
C078
ENDCHAR
STARTCHAR 5140
ENCODING 20800
SWIDTH 1040 0
DWIDTH 13 0
BBX 13 13 0 -2
BITMAP
0010
FFF8
0880
0880
0880
0880
0880
0880
1080
1080
1090
2090
C078
ENDCHAR
STARTCHAR 5141
ENCODING 20801
SWIDTH 1040 0
DWIDTH 13 0
BBX 13 13 0 -2
BITMAP
0E00
0840
0820
13F0
FE98
4880
0880
0880
1080
1080
1090
2090
C078
ENDCHAR
STARTCHAR 5143
ENCODING 20803
SWIDTH 1040 0
DWIDTH 13 0
BBX 13 13 0 -2
BITMAP
0040
3FE0
0000
0010
FFF8
0B00
0B00
0B00
1300
1300
1310
2310
C0F8
ENDCHAR
STARTCHAR 5144
ENCODING 20804
SWIDTH 1040 0
DWIDTH 13 0
BBX 13 13 0 -2
BITMAP
2040
3FE0
2040
2040
2040
3FC0
2B40
0B00
1300
1300
1310
2310
C0F8
ENDCHAR
STARTCHAR 5145
ENCODING 20805
SWIDTH 1040 0
DWIDTH 13 0
BBX 13 13 0 -2
BITMAP
0700
0610
FFF8
0880
1040
7FE0
2B20
0B00
1300
1300
1310
2310
C0F8
ENDCHAR
STARTCHAR 5146
ENCODING 20806
SWIDTH 1040 0
DWIDTH 13 0
BBX 13 13 0 -2
BITMAP
0F80
0B00
4B20
2B60
2B40
1B80
EB60
4B30
5330
1300
1310
2310
C0F8
ENDCHAR
STARTCHAR 5147
ENCODING 20807
SWIDTH 1040 0
DWIDTH 13 0
BBX 13 13 0 -2
BITMAP
33B0
2B20
2620
2B20
33A0
2020
3FE0
2B20
2B20
0B00
0B10
3310
C0F8
ENDCHAR
STARTCHAR 5148
ENCODING 20808
SWIDTH 1040 0
DWIDTH 13 0
BBX 13 13 0 -2
BITMAP
2700
2620
7FF0
4600
8610
FFF8
0B00
0B00
1300
1300
1310
2310
C0F8
ENDCHAR
STARTCHAR 5149
ENCODING 20809
SWIDTH 1040 0
DWIDTH 13 0
BBX 13 13 0 -2
BITMAP
0700
4620
2660
3640
0690
FFF8
0B00
0B00
1300
1300
1310
2310
C0F8
ENDCHAR
STARTCHAR 514B
ENCODING 20811
SWIDTH 1040 0
DWIDTH 13 0
BBX 13 13 0 -2
BITMAP
0700
0610
FFF8
0600
3FE0
2040
2040
3FC0
2B40
2B40
0B10
1310
E0F8
ENDCHAR
STARTCHAR 514C
ENCODING 20812
SWIDTH 1040 0
DWIDTH 13 0
BBX 13 13 0 -2
BITMAP
1880
1040
2038
FFD0
2040
2040
2040
3FC0
3340
1340
1310
2310
C0F8
ENDCHAR
STARTCHAR 514D
ENCODING 20813
SWIDTH 1040 0
DWIDTH 13 0
BBX 13 13 0 -2
BITMAP
0800
0FC0
1080
3FE0
E640
2640
3FC0
2340
3B40
1B00
1310
2310
C0F8
ENDCHAR
STARTCHAR 514E
ENCODING 20814
SWIDTH 1040 0
DWIDTH 13 0
BBX 13 13 0 -2
BITMAP
0040
03E0
3F00
0620
3FF0
2620
2620
3FE0
2B40
2B40
0B30
3310
C0F8
ENDCHAR
STARTCHAR 5150
ENCODING 20816
SWIDTH 1040 0
DWIDTH 13 0
BBX 13 13 0 -2
BITMAP
3620
27F0
2620
27E0
2620
27E0
2620
1B80
1300
1300
1310
2310
C0F8
ENDCHAR
STARTCHAR 5152
ENCODING 20818
SWIDTH 1040 0
DWIDTH 13 0
BBX 13 13 0 -2
BITMAP
2E40
3BE0
2040
3BC0
2040
2040
3FC0
2B40
2B40
0B00
1310
2310
C0F8
ENDCHAR
STARTCHAR 5154
ENCODING 20820
SWIDTH 1040 0
DWIDTH 13 0
BBX 13 13 0 -2
BITMAP
0800
1FC0
1080
3FF0
E620
2620
3FE0
2B40
2B60
0B20
1320
2310
C0F8
ENDCHAR
STARTCHAR 515A
ENCODING 20826
SWIDTH 1040 0
DWIDTH 13 0
BBX 13 13 0 -2
BITMAP
3760
5350
7FF8
C010
1FE0
1040
1040
1FC0
1B00
0B00
0B10
3310
C0F8
ENDCHAR
STARTCHAR 515C
ENCODING 20828
SWIDTH 1040 0
DWIDTH 13 0
BBX 13 13 0 -2
BITMAP
1710
B678
DF90
9090
9F90
F0F0
9F90
0B00
0B00
0B00
1310
2310
C0F8
ENDCHAR
STARTCHAR 5162
ENCODING 20834
SWIDTH 1040 0
DWIDTH 13 0
BBX 13 13 0 -2
BITMAP
1860
1650
FFF8
1040
7BF0
4B20
4B20
7BE0
5340
5340
5750
5B50
9638
ENDCHAR
STARTCHAR 5165
ENCODING 20837
SWIDTH 1040 0
DWIDTH 13 0
BBX 13 13 0 -2
BITMAP
0600
1F00
0600
0600
0600
0B00
0B00
0880
1880
1080
1040
2038
C010
ENDCHAR
STARTCHAR 5168
ENCODING 20840
SWIDTH 1040 0
DWIDTH 13 0
BBX 13 12 0 -1
BITMAP
0600
0700
0880
1040
3FF8
C610
0640
3FE0
3E00
0600
0620
7FF0
ENDCHAR
STARTCHAR 5169
ENCODING 20841
SWIDTH 1040 0
DWIDTH 13 0
BBX 13 13 0 -2
BITMAP
0010
FFF8
0600
4610
7FF8
4610
76D0
5650
7690
6EB0
4710
4670
4620
ENDCHAR
STARTCHAR 516A
ENCODING 20842
SWIDTH 1040 0
DWIDTH 13 0
BBX 13 13 0 -2
BITMAP
0600
0F00
10C0
3FB8
C050
3F50
26A0
3740
36E0
2EA0
36A0
2E50
2850
ENDCHAR
STARTCHAR 516B
ENCODING 20843
SWIDTH 1040 0
DWIDTH 13 0
BBX 13 13 0 -2
BITMAP
0880
0E80
0880
0880
0880
0880
1040
1040
3040
2040
2020
4038
8010
ENDCHAR
STARTCHAR 516C
ENCODING 20844
SWIDTH 1040 0
DWIDTH 13 0
BBX 13 13 0 -2
BITMAP
0E80
0880
1040
1640
2720
4618
8610
0880
08C0
0840
13E0
7E30
2010
ENDCHAR
STARTCHAR 516D
ENCODING 20845
SWIDTH 1040 0
DWIDTH 13 0
BBX 13 12 0 -1
BITMAP
0700
0600
0610
FFF8
0000
1880
1040
1020
3030
2010
4018
8008
ENDCHAR
STARTCHAR 516E
ENCODING 20846
SWIDTH 1040 0
DWIDTH 13 0
BBX 13 13 0 -2
BITMAP
0E80
0880
1040
1FE0
2638
C850
0FE0
1840
1840
0040
0080
0780
0300
ENDCHAR
STARTCHAR 5171
ENCODING 20849
SWIDTH 1040 0
DWIDTH 13 0
BBX 13 13 0 -2
BITMAP
0EC0
0880
08A0
7FF0
0880
0880
0890
FFF8
FF80
0080
1840
3030
C018
ENDCHAR
STARTCHAR 5175
ENCODING 20853
SWIDTH 1040 0
DWIDTH 13 0
BBX 13 13 0 -2
BITMAP
0080
13C0
1E00
1020
1FF0
1080
1090
FFF8
FFF8
0000
18C0
3030
C018
ENDCHAR
STARTCHAR 5176
ENCODING 20854
SWIDTH 1040 0
DWIDTH 13 0
BBX 13 13 0 -2
BITMAP
0EC0
08A0
7FF0
0880
0F80
0880
0F80
0890
0898
FFF8
0880
1860
6030
ENDCHAR
STARTCHAR 5177
ENCODING 20855
SWIDTH 1040 0
DWIDTH 13 0
BBX 13 13 0 -2
BITMAP
1040
1FE0
1040
1FC0
1040
1FC0
1040
1050
1058
FFF8
0880
1860
6030
ENDCHAR
STARTCHAR 5178
ENCODING 20856
SWIDTH 1040 0
DWIDTH 13 0
BBX 13 13 0 -2
BITMAP
0F80
2B20
3FF0
2B20
2B20
3FE0
2B20
2B20
2B38
FFF8
1080
3070
C018
ENDCHAR
STARTCHAR 517C
ENCODING 20860
SWIDTH 1040 0
DWIDTH 13 0
BBX 13 13 0 -2
BITMAP
18C0
0890
FFF8
0B00
3FE0
0B20
FFF8
0B20
0B20
3FE0
1B40
2B38
CB10
ENDCHAR
STARTCHAR 5180
ENCODING 20864
SWIDTH 1040 0
DWIDTH 13 0
BBX 13 13 0 -2
BITMAP
0B30
FBE0
0B10
FFF8
A640
3FC0
2640
7FF0
7E00
0600
FFF8
2660
DB98
ENDCHAR
STARTCHAR 5182
ENCODING 20866
SWIDTH 1040 0
DWIDTH 13 0
BBX 12 13 1 -2
BITMAP
8020
FFF0
8020
8020
8020
8020
8020
8020
8020
8020
8020
80E0
8040
ENDCHAR
STARTCHAR 5185
ENCODING 20869
SWIDTH 1040 0
DWIDTH 13 0
BBX 11 13 1 -2
BITMAP
0E00
8C40
FFE0
8C40
8C40
9640
9140
A140
C140
C0C0
8040
81C0
8080
ENDCHAR
STARTCHAR 5186
ENCODING 20870
SWIDTH 1040 0
DWIDTH 13 0
BBX 11 13 1 -2
BITMAP
8040
FFE0
8C40
8C40
8C40
FFC0
8040
8040
8040
8040
8040
81C0
8080
ENDCHAR
STARTCHAR 5189
ENCODING 20873
SWIDTH 1040 0
DWIDTH 13 0
BBX 13 13 0 -2
BITMAP
0700
2640
3FE0
2640
3FC0
2640
2650
FFF8
E040
2040
2040
23C0
2080
ENDCHAR
STARTCHAR 518A
ENCODING 20874
SWIDTH 1040 0
DWIDTH 13 0
BBX 13 13 0 -2
BITMAP
2020
3FF0
2B20
2B20
2B28
FFF8
2B20
2B20
2B20
2B20
2B20
2BE0
2040
ENDCHAR
STARTCHAR 518C
ENCODING 20876
SWIDTH 1040 0
DWIDTH 13 0
BBX 13 13 0 -2
BITMAP
28A0
3EF0
28A0
28A0
28A0
FFF8
28A0
28A0
28A0
28A0
4B20
5B60
9640
ENDCHAR
STARTCHAR 518D
ENCODING 20877
SWIDTH 1040 0
DWIDTH 13 0
BBX 13 13 0 -2
BITMAP
0010
FFF8
0600
3FE0
2640
3FC0
2640
2650
2658
FFF8
2040
23C0
2080
ENDCHAR
STARTCHAR 518F
ENCODING 20879
SWIDTH 1040 0
DWIDTH 13 0
BBX 12 13 1 -2
BITMAP
8020
FFF0
9620
9620
A1E0
DF20
9120
9120
9120
9F20
9120
80E0
8040
ENDCHAR
STARTCHAR 5190
ENCODING 20880
SWIDTH 1040 0
DWIDTH 13 0
BBX 12 13 1 -2
BITMAP
8020
FFF0
8020
BFA0
8020
BFA0
2080
3F80
2080
2080
3F80
2080
2180
ENDCHAR
STARTCHAR 5191
ENCODING 20881
SWIDTH 1040 0
DWIDTH 13 0
BBX 10 13 2 -2
BITMAP
1800
FFC0
9880
FF80
9880
FF80
4100
7F00
4100
4100
7F00
4100
4300
ENDCHAR
STARTCHAR 5192
ENCODING 20882
SWIDTH 1040 0
DWIDTH 13 0
BBX 10 13 2 -2
BITMAP
8080
FFC0
8080
FF80
8080
FF80
4100
7F00
4100
4100
4100
7F00
4100
ENDCHAR
STARTCHAR 5193
ENCODING 20883
SWIDTH 1040 0
DWIDTH 13 0
BBX 13 13 0 -2
BITMAP
0880
7FF0
0880
3FE0
0890
FFF8
2620
3FE0
2620
2620
FFF8
2020
2060
ENDCHAR
STARTCHAR 5195
ENCODING 20885
SWIDTH 1040 0
DWIDTH 13 0
BBX 13 13 0 -2
BITMAP
3FE0
2040
3FC0
2040
3FC0
1300
3FE0
E640
E640
3FC0
2B40
1310
E0F8
ENDCHAR
STARTCHAR 5196
ENCODING 20886
SWIDTH 1040 0
DWIDTH 13 0
BBX 13 4 0 4
BITMAP
4010
7FF8
4010
C020
ENDCHAR
STARTCHAR 5197
ENCODING 20887
SWIDTH 1040 0
DWIDTH 13 0
BBX 13 13 0 -2
BITMAP
4010
7FF8
4010
D320
1F80
1300
1300
1300
1300
1300
2310
2310
C0F8
ENDCHAR
STARTCHAR 5199
ENCODING 20889
SWIDTH 1040 0
DWIDTH 13 0
BBX 13 13 0 -2
BITMAP
4010
7FF8
D010
1FE0
1000
3FC0
0050
FFF8
FFC0
0040
0080
0780
0300
ENDCHAR
STARTCHAR 51A0
ENCODING 20896
SWIDTH 1040 0
DWIDTH 13 0
BBX 13 13 0 -2
BITMAP
4010
7FF8
C010
7820
07F8
FE20
2BA0
28A0
28A0
2860
2850
4810
87F8
ENDCHAR
STARTCHAR 51A2
ENCODING 20898
SWIDTH 1040 0
DWIDTH 13 0
BBX 13 13 0 -2
BITMAP
4010
7FF8
C010
7FE0
0E30
1620
7B40
1780
7B40
6B40
1B38
6F10
0600
ENDCHAR
STARTCHAR 51A4
ENCODING 20900
SWIDTH 1040 0
DWIDTH 13 0
BBX 13 13 0 -2
BITMAP
4010
7FF8
C810
1FC0
2080
FFF0
2620
3FE0
2B40
2B40
0B20
3310
C0F8
ENDCHAR
STARTCHAR 51A5
ENCODING 20901
SWIDTH 1040 0
DWIDTH 13 0
BBX 13 13 0 -2
BITMAP
4010
7FF8
C010
1FE0
1040
1FC0
1040
1650
1658
FFF8
0880
1870
E018
ENDCHAR
STARTCHAR 51A6
ENCODING 20902
SWIDTH 1040 0
DWIDTH 13 0
BBX 13 13 0 -2
BITMAP
4010
7FF8
C0D0
7880
06F0
FE80
57F0
50A0
50C0
5040
50A0
9310
8FF8
ENDCHAR
STARTCHAR 51A8
ENCODING 20904
SWIDTH 1040 0
DWIDTH 13 0
BBX 13 13 0 -2
BITMAP
4010
7FF8
C010
3FE0
1040
3FF0
2620
3FE0
2620
2620
2620
3FE0
2020
ENDCHAR
STARTCHAR 51A9
ENCODING 20905
SWIDTH 1040 0
DWIDTH 13 0
BBX 13 13 0 -2
BITMAP
4010
7FF8
C610
1EE0
1040
1EC0
1040
1FC0
1010
3010
DFF8
3690
4B60
ENDCHAR
STARTCHAR 51AA
ENCODING 20906
SWIDTH 1040 0
DWIDTH 13 0
BBX 13 13 0 -2
BITMAP
4010
7FF8
C890
3FE0
1040
1FC0
1050
FFF8
F640
1640
3FF8
D650
16C0
ENDCHAR
STARTCHAR 51AB
ENCODING 20907
SWIDTH 1040 0
DWIDTH 13 0
BBX 7 13 3 -2
BITMAP
40
30
38
02
04
04
18
98
90
70
30
30
38
ENDCHAR
STARTCHAR 51AC
ENCODING 20908
SWIDTH 1040 0
DWIDTH 13 0
BBX 13 13 0 -2
BITMAP
0E00
0840
1FE0
1080
2B00
C700
08C0
3738
F7B0
C390
1800
0700
0380
ENDCHAR
STARTCHAR 51B0
ENCODING 20912
SWIDTH 1040 0
DWIDTH 13 0
BBX 13 13 0 -2
BITMAP
8380
4300
6320
13B0
1FA0
2B40
2B40
4B20
5B20
D320
5338
6F10
4600
ENDCHAR
STARTCHAR 51B1
ENCODING 20913
SWIDTH 1040 0
DWIDTH 13 0
BBX 13 13 0 -2
BITMAP
8020
5FF0
6600
0640
17E0
1640
2840
2FC0
E840
C840
4050
5FF8
6000
ENDCHAR
STARTCHAR 51B2
ENCODING 20914
SWIDTH 1040 0
DWIDTH 13 0
BBX 13 13 0 -2
BITMAP
80C0
4080
6890
0FF8
1890
2890
2890
4FF0
4890
C890
4080
4080
6080
ENDCHAR
STARTCHAR 51B3
ENCODING 20915
SWIDTH 1040 0
DWIDTH 13 0
BBX 13 13 0 -2
BITMAP
8380
4320
6FF0
1320
1320
2320
3FF8
4300
4780
C680
4640
4838
7010
ENDCHAR
STARTCHAR 51B4
ENCODING 20916
SWIDTH 1040 0
DWIDTH 13 0
BBX 13 13 0 -2
BITMAP
4020
2FF0
3640
0640
1650
3FF8
2340
4340
4740
C640
4840
53C0
6080
ENDCHAR
STARTCHAR 51B5
ENCODING 20917
SWIDTH 1040 0
DWIDTH 13 0
BBX 13 13 0 -2
BITMAP
8620
47F0
6620
0620
1620
17E0
2340
2340
E240
C640
4650
4850
7038
ENDCHAR
STARTCHAR 51B6
ENCODING 20918
SWIDTH 1040 0
DWIDTH 13 0
BBX 13 13 0 -2
BITMAP
40C0
2080
3320
0310
16F0
2F18
2820
47F0
4620
C620
4620
47E0
6620
ENDCHAR
STARTCHAR 51B7
ENCODING 20919
SWIDTH 1040 0
DWIDTH 13 0
BBX 13 13 0 -2
BITMAP
8300
4780
6640
0820
1FF8
2010
3FE0
4320
4320
C320
43E0
4340
6300
ENDCHAR
STARTCHAR 51BD
ENCODING 20925
SWIDTH 1040 0
DWIDTH 13 0
BBX 13 13 0 -2
BITMAP
8098
5FD0
6850
0F50
1B50
2B50
2F50
5350
5750
D610
6610
4870
7020
ENDCHAR
STARTCHAR 51C4
ENCODING 20932
SWIDTH 1040 0
DWIDTH 13 0
BBX 13 13 0 -2
BITMAP
8320
5FF0
6300
1FE0
2320
3FF8
4320
5FF8
5E20
C620
4E40
43E0
7E30
ENDCHAR
STARTCHAR 51C5
ENCODING 20933
SWIDTH 1040 0
DWIDTH 13 0
BBX 13 13 0 -2
BITMAP
8810
4FF8
6890
0890
1FF0
2890
2BD0
4B50
4B50
CBD0
4810
4FF0
6810
ENDCHAR
STARTCHAR 51C6
ENCODING 20934
SWIDTH 1040 0
DWIDTH 13 0
BBX 13 13 0 -2
BITMAP
4380
2360
3650
0FF8
1680
27F0
2680
47F0
4680
C680
4690
47F8
6600
ENDCHAR
STARTCHAR 51C9
ENCODING 20937
SWIDTH 1040 0
DWIDTH 13 0
BBX 13 13 0 -2
BITMAP
80C0
4090
7FF8
0000
1FE0
2820
2820
4FE0
48A0
C8A0
5890
5798
6300
ENDCHAR
STARTCHAR 51CB
ENCODING 20939
SWIDTH 1040 0
DWIDTH 13 0
BBX 13 13 0 -2
BITMAP
8810
4FF8
6890
0BD0
2890
2FF0
4810
CBD0
CB50
4B50
53D0
5370
2020
ENDCHAR
STARTCHAR 51CC
ENCODING 20940
SWIDTH 1040 0
DWIDTH 13 0
BBX 13 13 0 -2
BITMAP
4080
2FF0
3080
1FF8
2340
2678
5B00
43E0
4340
C740
58C0
43B8
7E10
ENDCHAR
STARTCHAR 51CD
ENCODING 20941
SWIDTH 1040 0
DWIDTH 13 0
BBX 13 13 0 -2
BITMAP
8310
5FF8
6300
0FE0
1B20
2FE0
2B20
4FE0
4F80
C780
4B40
5338
6310
ENDCHAR
STARTCHAR 51D6
ENCODING 20950
SWIDTH 1040 0
DWIDTH 13 0
BBX 13 13 0 -2
BITMAP
8760
4640
6FF0
1880
2FF0
E880
4FF8
4600
47F8
FFF8
0600
0600
0600
ENDCHAR
STARTCHAR 51DB
ENCODING 20955
SWIDTH 1040 0
DWIDTH 13 0
BBX 13 13 0 -2
BITMAP
8090
5FF8
6810
0BD0
1B50
2FF0
2000
5FF8
58A0
C8A0
4E90
5398
6300
ENDCHAR
STARTCHAR 51DC
ENCODING 20956
SWIDTH 1040 0
DWIDTH 13 0
BBX 13 13 0 -2
BITMAP
0080
9FF8
4810
6BD0
0B50
1FF0
20C0
2790
E798
DFF8
43C0
4EB8
7090
ENDCHAR
STARTCHAR 51DD
ENCODING 20957
SWIDTH 1040 0
DWIDTH 13 0
BBX 13 13 0 -2
BITMAP
8890
4F78
68D0
1FA0
28F8
2FA8
56B0
5FA0
66B8
E6B8
4FA0
48E0
7338
ENDCHAR
STARTCHAR 51E0
ENCODING 20960
SWIDTH 1040 0
DWIDTH 13 0
BBX 13 13 0 -2
BITMAP
1080
1FC0
1080
1080
1080
1080
1080
1080
1080
1080
2090
2090
C078
ENDCHAR
STARTCHAR 51E1
ENCODING 20961
SWIDTH 1040 0
DWIDTH 13 0
BBX 13 13 0 -2
BITMAP
1080
1FC0
1080
1080
1880
1680
1780
1080
1080
1080
2090
2090
C078
ENDCHAR
STARTCHAR 51E6
ENCODING 20966
SWIDTH 1040 0
DWIDTH 13 0
BBX 13 13 0 -2
BITMAP
3000
2340
2BE0
3B40
4B40
6B40
AB40
1350
1250
1650
2838
4600
83F8
ENDCHAR
STARTCHAR 51E7
ENCODING 20967
SWIDTH 1040 0
DWIDTH 13 0
BBX 13 13 0 -2
BITMAP
4020
7FF0
4620
56A0
5FA0
56A0
56A0
56A0
56A8
57A8
5690
4618
8608
ENDCHAR
STARTCHAR 51E9
ENCODING 20969
SWIDTH 1040 0
DWIDTH 13 0
BBX 13 13 0 -2
BITMAP
2020
3FF0
2620
26A0
3FE0
2620
2F20
2EA0
36A8
36E8
5650
4618
8608
ENDCHAR
STARTCHAR 51EA
ENCODING 20970
SWIDTH 1040 0
DWIDTH 13 0
BBX 13 13 0 -2
BITMAP
2020
3FF0
2320
2320
2B20
2BE0
2B20
2B20
2B28
2B28
5FD0
4018
8008
ENDCHAR
STARTCHAR 51ED
ENCODING 20973
SWIDTH 1040 0
DWIDTH 13 0
BBX 13 13 0 -2
BITMAP
1830
17E0
3090
5FF8
9080
17F0
1000
1FC0
1080
1080
1090
2090
C078
ENDCHAR
STARTCHAR 51F0
ENCODING 20976
SWIDTH 1040 0
DWIDTH 13 0
BBX 13 13 0 -2
BITMAP
2020
3FF0
2620
2FA0
28A0
2FA0
28A0
3FE0
2628
2628
5F90
4658
BFE8
ENDCHAR
STARTCHAR 51F1
ENCODING 20977
SWIDTH 1040 0
DWIDTH 13 0
BBX 13 13 0 -2
BITMAP
AB40
ABE0
FB40
0340
FF40
4B40
4B40
7B40
4B40
4B40
2F50
F350
4638
ENDCHAR
STARTCHAR 51F5
ENCODING 20981
SWIDTH 1040 0
DWIDTH 13 0
BBX 12 13 1 -2
BITMAP
C030
8020
8020
8020
8020
8020
8020
8020
8020
8020
8020
FFE0
8020
ENDCHAR
STARTCHAR 51F6
ENCODING 20982
SWIDTH 1040 0
DWIDTH 13 0
BBX 12 13 1 -2
BITMAP
00C0
C0B0
A0A0
9120
8D20
8620
8D20
91A0
A1A0
E0A0
80A0
FFE0
8020
ENDCHAR
STARTCHAR 51F8
ENCODING 20984
SWIDTH 1040 0
DWIDTH 13 0
BBX 12 13 1 -2
BITMAP
1100
1F80
1100
1100
9120
F1F0
9120
8020
8020
8020
8020
FFE0
8020
ENDCHAR
STARTCHAR 51F9
ENCODING 20985
SWIDTH 1040 0
DWIDTH 13 0
BBX 12 12 1 -2
BITMAP
9120
FDF0
9120
9120
9120
9F20
9120
9120
8020
8020
FFE0
8020
ENDCHAR
STARTCHAR 51FA
ENCODING 20986
SWIDTH 1040 0
DWIDTH 13 0
BBX 12 13 1 -2
BITMAP
0E00
6C60
4C40
4C40
7FC0
0C40
CC30
8C20
8C20
8C20
8C20
FFE0
8020
ENDCHAR
STARTCHAR 51FD
ENCODING 20989
SWIDTH 1040 0
DWIDTH 13 0
BBX 13 13 0 -2
BITMAP
0010
FFF8
0600
6F18
5370
5B50
4790
7B50
5350
5770
4610
7FF0
4010
ENDCHAR
STARTCHAR 51FE
ENCODING 20990
SWIDTH 1040 0
DWIDTH 13 0
BBX 12 13 1 -2
BITMAP
0080
7FC0
0100
C630
BFA0
AEA0
BD20
AEE0
ACA0
9CA0
9020
FFE0
8020
ENDCHAR
STARTCHAR 5200
ENCODING 20992
SWIDTH 1040 0
DWIDTH 13 0
BBX 12 13 0 -2
BITMAP
0020
FFF0
0820
0820
0820
0820
0820
1020
1060
1040
2040
23C0
C080
ENDCHAR
STARTCHAR 5203
ENCODING 20995
SWIDTH 1040 0
DWIDTH 13 0
BBX 13 13 0 -2
BITMAP
0010
FFF8
0610
0610
3610
0E10
0610
0B10
0BB0
0BA0
1020
20E0
C040
ENDCHAR
STARTCHAR 5204
ENCODING 20996
SWIDTH 1040 0
DWIDTH 13 0
BBX 13 12 0 -2
BITMAP
0020
7FF0
1320
1320
0B20
0620
0720
0920
08E0
1058
23C0
C080
ENDCHAR
STARTCHAR 5206
ENCODING 20998
SWIDTH 1040 0
DWIDTH 13 0
BBX 13 13 0 -2
BITMAP
0E80
0880
1040
1020
3FF8
C650
0640
0840
0840
0840
1080
1780
6300
ENDCHAR
STARTCHAR 5207
ENCODING 20999
SWIDTH 1040 0
DWIDTH 13 0
BBX 13 13 0 -2
BITMAP
6000
4010
4FF8
5890
6090
C090
4090
5090
5390
5310
3B20
06E0
1840
ENDCHAR
STARTCHAR 5208
ENCODING 21000
SWIDTH 1040 0
DWIDTH 13 0
BBX 13 13 0 -2
BITMAP
0E18
08D0
8890
4890
2890
1090
1890
1690
3690
2610
2710
4070
8020
ENDCHAR
STARTCHAR 520A
ENCODING 21002
SWIDTH 1040 0
DWIDTH 13 0
BBX 13 13 0 -2
BITMAP
0818
7ED0
1090
1090
1090
FF90
1090
1090
1090
1010
1010
1070
1020
ENDCHAR
STARTCHAR 520B
ENCODING 21003
SWIDTH 1040 0
DWIDTH 13 0
BBX 13 13 0 -2
BITMAP
0618
1F50
F050
1050
1650
FF50
1050
1050
1050
1010
2010
2070
C020
ENDCHAR
STARTCHAR 520E
ENCODING 21006
SWIDTH 1040 0
DWIDTH 13 0
BBX 13 13 0 -2
BITMAP
3018
2350
7F50
5750
AB50
2B50
5350
9350
A350
2310
4610
1E70
0820
ENDCHAR
STARTCHAR 5211
ENCODING 21009
SWIDTH 1040 0
DWIDTH 13 0
BBX 13 13 0 -2
BITMAP
0618
7F50
2850
2850
2B50
FF50
2850
2850
2850
2810
4810
4870
8820
ENDCHAR
STARTCHAR 5214
ENCODING 21012
SWIDTH 1040 0
DWIDTH 13 0
BBX 13 13 0 -2
BITMAP
1818
1650
7F50
1650
1650
FFD0
1050
1050
2850
2810
2610
4770
8020
ENDCHAR
STARTCHAR 5217
ENCODING 21015
SWIDTH 1040 0
DWIDTH 13 0
BBX 13 13 0 -2
BITMAP
0618
FED0
2090
2690
3E90
2690
5690
4890
C890
8810
1010
2070
4020
ENDCHAR
STARTCHAR 521D
ENCODING 21021
SWIDTH 1040 0
DWIDTH 13 0
BBX 13 13 0 -2
BITMAP
3000
2810
FFF8
0890
1090
1690
2890
6E90
EF90
A310
2320
26E0
2840
ENDCHAR
STARTCHAR 5224
ENCODING 21028
SWIDTH 1040 0
DWIDTH 13 0
BBX 13 13 0 -2
BITMAP
9818
5750
5650
1650
7F50
1050
1350
FF50
F050
1010
1010
1070
1020
ENDCHAR
STARTCHAR 5225
ENCODING 21029
SWIDTH 1040 0
DWIDTH 13 0
BBX 13 13 0 -2
BITMAP
4618
7F50
4650
4650
7E50
2050
3F50
2650
2650
2610
4610
5870
9020
ENDCHAR
STARTCHAR 5227
ENCODING 21031
SWIDTH 1040 0
DWIDTH 13 0
BBX 13 13 0 -2
BITMAP
1800
1610
7FF8
1050
1650
FF50
2050
3090
7890
4890
5F20
E6E0
4840
ENDCHAR
STARTCHAR 5229
ENCODING 21033
SWIDTH 1040 0
DWIDTH 13 0
BBX 13 13 0 -2
BITMAP
0618
1F50
F050
1650
FF50
1050
3850
3650
7750
5710
9010
1070
1020
ENDCHAR
STARTCHAR 522A
ENCODING 21034
SWIDTH 1040 0
DWIDTH 13 0
BBX 13 13 0 -2
BITMAP
4088
7FA8
56A8
56A8
56A8
FFE8
56A8
56A8
56A8
56A8
5688
56B8
5690
ENDCHAR
STARTCHAR 522E
ENCODING 21038
SWIDTH 1040 0
DWIDTH 13 0
BBX 13 13 0 -2
BITMAP
0618
1F50
F050
1350
FF50
1050
5650
7F50
4650
4650
4610
7E70
4620
ENDCHAR
STARTCHAR 5230
ENCODING 21040
SWIDTH 1040 0
DWIDTH 13 0
BBX 13 13 0 -2
BITMAP
0618
FF50
2850
4650
FF50
5350
1650
FF50
F050
1010
1F10
F070
4020
ENDCHAR
STARTCHAR 5233
ENCODING 21043
SWIDTH 1040 0
DWIDTH 13 0
BBX 13 13 0 -2
BITMAP
1818
1650
FF50
2850
7E50
8350
FF50
2050
3F50
7F10
4610
1E70
0820
ENDCHAR
STARTCHAR 5236
ENCODING 21046
SWIDTH 1040 0
DWIDTH 13 0
BBX 13 13 0 -2
BITMAP
5818
5350
7F50
9050
FF50
1050
7F50
5350
5350
5310
5F10
5670
1020
ENDCHAR
STARTCHAR 5237
ENCODING 21047
SWIDTH 1040 0
DWIDTH 13 0
BBX 13 13 0 -2
BITMAP
2318
3F50
2350
3F50
2850
2B50
3F50
2B50
2B50
6B10
AF10
2B70
0820
ENDCHAR
STARTCHAR 5238
ENCODING 21048
SWIDTH 1040 0
DWIDTH 13 0
BBX 13 13 0 -2
BITMAP
3760
1640
7FE0
0610
FFF8
0B00
1080
3FF8
FE50
C650
0840
13C0
6080
ENDCHAR
STARTCHAR 5239
ENCODING 21049
SWIDTH 1040 0
DWIDTH 13 0
BBX 13 13 0 -2
BITMAP
0718
6650
1850
3650
D750
1050
FF50
3850
5650
5610
5310
9070
1020
ENDCHAR
STARTCHAR 523A
ENCODING 21050
SWIDTH 1040 0
DWIDTH 13 0
BBX 13 13 0 -2
BITMAP
1818
1350
FF50
1050
7F50
5350
5750
5B50
5A50
3610
5710
9070
1020
ENDCHAR
STARTCHAR 523B
ENCODING 21051
SWIDTH 1040 0
DWIDTH 13 0
BBX 13 13 0 -2
BITMAP
1818
1350
FF50
1050
6E50
2850
1750
2650
EE50
C810
1610
2370
C3A0
ENDCHAR
STARTCHAR 5243
ENCODING 21059
SWIDTH 1040 0
DWIDTH 13 0
BBX 13 13 0 -2
BITMAP
6E18
2B50
FF50
1350
7F50
5050
7F50
D350
D350
3310
5710
9670
1020
ENDCHAR
STARTCHAR 5244
ENCODING 21060
SWIDTH 1040 0
DWIDTH 13 0
BBX 13 13 0 -2
BITMAP
0618
FF50
5650
A850
A850
5650
FF50
1050
1050
1010
1F10
F070
4020
ENDCHAR
STARTCHAR 5247
ENCODING 21063
SWIDTH 1040 0
DWIDTH 13 0
BBX 13 13 0 -2
BITMAP
4618
7F50
4650
7E50
4650
7E50
4650
7E50
7E50
0610
6810
4670
8720
ENDCHAR
STARTCHAR 524A
ENCODING 21066
SWIDTH 1040 0
DWIDTH 13 0
BBX 13 13 0 -2
BITMAP
9B98
5350
5650
7F50
4350
7F50
4350
7F50
4350
4310
4310
4F70
4620
ENDCHAR
STARTCHAR 524B
ENCODING 21067
SWIDTH 1040 0
DWIDTH 13 0
BBX 13 13 0 -2
BITMAP
1830
16A0
FFA0
10A0
7EA0
46A0
46A0
7E20
6820
2860
2850
4810
87F8
ENDCHAR
STARTCHAR 524C
ENCODING 21068
SWIDTH 1040 0
DWIDTH 13 0
BBX 13 13 0 -2
BITMAP
1818
1350
FFD0
1050
7F50
5350
7F50
5350
5B50
3810
3610
5370
9020
ENDCHAR
STARTCHAR 524D
ENCODING 21069
SWIDTH 1040 0
DWIDTH 13 0
BBX 13 13 0 -2
BITMAP
18C0
0890
FFF8
0000
3EB0
26A0
3EA0
26A0
26A0
3EA0
2620
2EE0
2840
ENDCHAR
STARTCHAR 524F
ENCODING 21071
SWIDTH 1040 0
DWIDTH 13 0
BBX 13 13 0 -2
BITMAP
6E00
2B10
FFF8
2850
2B50
FF50
2890
28D0
28E0
28A0
4B38
4B60
8E40
ENDCHAR
STARTCHAR 5254
ENCODING 21076
SWIDTH 1040 0
DWIDTH 13 0
BBX 13 13 0 -2
BITMAP
4618
7F50
4650
7E50
4650
7E50
2350
7F50
EB50
AB10
5310
AF70
4620
ENDCHAR
STARTCHAR 5256
ENCODING 21078
SWIDTH 1040 0
DWIDTH 13 0
BBX 13 13 0 -2
BITMAP
1818
1650
7F50
2650
2B50
FFD0
0050
7F50
4650
4610
4610
7E70
4620
ENDCHAR
STARTCHAR 525B
ENCODING 21083
SWIDTH 1040 0
DWIDTH 13 0
BBX 13 13 0 -2
BITMAP
8318
FF50
AB50
AB50
9350
FF50
9350
D750
D750
FF10
8310
8F70
8620
ENDCHAR
STARTCHAR 525E
ENCODING 21086
SWIDTH 1040 0
DWIDTH 13 0
BBX 13 13 0 -2
BITMAP
1818
1350
FFD0
2850
4650
FFD0
0350
7350
5350
5310
7310
5F70
0620
ENDCHAR
STARTCHAR 5263
ENCODING 21091
SWIDTH 1040 0
DWIDTH 13 0
BBX 13 13 0 -2
BITMAP
1018
1850
2650
7F50
9050
7F50
5350
7F50
5350
5310
2810
2670
C720
ENDCHAR
STARTCHAR 5264
ENCODING 21092
SWIDTH 1040 0
DWIDTH 13 0
BBX 13 13 0 -2
BITMAP
1818
1350
FF50
2650
1850
2650
FFD0
2650
2650
3E10
2610
4670
8620
ENDCHAR
STARTCHAR 5265
ENCODING 21093
SWIDTH 1040 0
DWIDTH 13 0
BBX 13 13 0 -2
BITMAP
0818
7E50
0850
7850
0B50
FF50
9350
5650
5850
3810
D710
B370
2020
ENDCHAR
STARTCHAR 5269
ENCODING 21097
SWIDTH 1040 0
DWIDTH 13 0
BBX 13 13 0 -2
BITMAP
0718
7E50
1350
FFD0
5650
D7D0
5650
D3D0
DBD0
B810
5610
5370
9020
ENDCHAR
STARTCHAR 526A
ENCODING 21098
SWIDTH 1040 0
DWIDTH 13 0
BBX 13 13 0 -2
BITMAP
18C0
0890
FFF8
36A0
2EA0
36A0
2E60
2650
2658
FFF8
0610
1870
E020
ENDCHAR
STARTCHAR 526F
ENCODING 21103
SWIDTH 1040 0
DWIDTH 13 0
BBX 13 13 0 -2
BITMAP
0618
FF50
0050
7E50
4650
FF50
9350
FF50
9350
9310
9310
FF70
8320
ENDCHAR
STARTCHAR 5270
ENCODING 21104
SWIDTH 1040 0
DWIDTH 13 0
BBX 13 13 0 -2
BITMAP
0E18
7850
1650
FF50
5650
FFD0
5650
FF50
F850
3810
5610
5770
9020
ENDCHAR
STARTCHAR 5271
ENCODING 21105
SWIDTH 1040 0
DWIDTH 13 0
BBX 13 13 0 -2
BITMAP
1000
3810
27F8
7E50
9350
7F50
56D0
7E50
56D0
56B0
2898
2760
C640
ENDCHAR
STARTCHAR 5272
ENCODING 21106
SWIDTH 1040 0
DWIDTH 13 0
BBX 13 13 0 -2
BITMAP
5318
7F50
D350
7E50
1050
7F50
1050
FFD0
C650
4650
4610
7E70
4620
ENDCHAR
STARTCHAR 5273
ENCODING 21107
SWIDTH 1040 0
DWIDTH 13 0
BBX 13 13 0 -2
BITMAP
2618
FF50
2650
1050
1850
2650
7F50
8050
FF50
7F10
4610
7E70
4620
ENDCHAR
STARTCHAR 5274
ENCODING 21108
SWIDTH 1040 0
DWIDTH 13 0
BBX 13 13 0 -2
BITMAP
5318
7F50
0050
FFD0
0050
7E50
4650
7E50
4650
4610
2B90
FE70
4020
ENDCHAR
STARTCHAR 5275
ENCODING 21109
SWIDTH 1040 0
DWIDTH 13 0
BBX 13 13 0 -2
BITMAP
1818
1650
3F50
66D0
BE50
2650
3E50
4050
7F50
7F10
A310
3F70
2320
ENDCHAR
STARTCHAR 527D
ENCODING 21117
SWIDTH 1040 0
DWIDTH 13 0
BBX 13 13 0 -2
BITMAP
0318
FFD0
2850
FF50
AB50
FF50
0050
FF50
D850
5810
5610
B770
2020
ENDCHAR
STARTCHAR 527F
ENCODING 21119
SWIDTH 1040 0
DWIDTH 13 0
BBX 13 13 0 -2
BITMAP
5318
A650
7F50
5350
7F50
5350
7F50
1050
1FD0
FF90
3810
5670
9320
ENDCHAR
STARTCHAR 5283
ENCODING 21123
SWIDTH 1040 0
DWIDTH 13 0
BBX 13 13 0 -2
BITMAP
1018
7F50
1650
FFD0
1650
7F50
1050
FFD0
D350
5350
7F10
5370
FFA0
ENDCHAR
STARTCHAR 5287
ENCODING 21127
SWIDTH 1040 0
DWIDTH 13 0
BBX 13 13 0 -2
BITMAP
1E18
5350
7F50
5350
7E50
5350
7F50
5350
6F50
6E10
9710
AEF0
0820
ENDCHAR
STARTCHAR 5288
ENCODING 21128
SWIDTH 1040 0
DWIDTH 13 0
BBX 13 13 0 -2
BITMAP
7E40
46F0
7EA0
43F8
BE40
A7F0
3E40
0650
0658
7FF8
0610
1870
E020
ENDCHAR
STARTCHAR 5289
ENCODING 21129
SWIDTH 1040 0
DWIDTH 13 0
BBX 13 13 0 -2
BITMAP
5318
7FD0
5750
7750
DB50
5750
3B50
5650
5750
FF10
5610
FF70
4020
ENDCHAR
STARTCHAR 528D
ENCODING 21133
SWIDTH 1040 0
DWIDTH 13 0
BBX 13 13 0 -2
BITMAP
1018
1870
2650
7F50
80D0
EF50
AB50
EF50
CE50
4610
6B10
5B70
93A0
ENDCHAR
STARTCHAR 5291
ENCODING 21137
SWIDTH 1040 0
DWIDTH 13 0
BBX 13 13 0 -2
BITMAP
1318
FFD0
28D0
F750
5650
5BD0
AB50
3F50
2350
2310
3F10
2370
C320
ENDCHAR
STARTCHAR 5292
ENCODING 21138
SWIDTH 1040 0
DWIDTH 13 0
BBX 13 13 0 -2
BITMAP
1000
3810
27F8
7E50
8350
EFD0
AB50
EF50
CF90
4690
6690
9B60
9640
ENDCHAR
STARTCHAR 5294
ENCODING 21140
SWIDTH 1040 0
DWIDTH 13 0
BBX 13 13 0 -2
BITMAP
1000
3810
27F8
7E50
8350
EFD0
AB50
EF50
CFD0
46B0
6698
9B60
9640
ENDCHAR
STARTCHAR 529B
ENCODING 21147
SWIDTH 1040 0
DWIDTH 13 0
BBX 13 13 0 -2
BITMAP
0700
0600
0610
FFF8
0610
0610
0610
0810
0810
0810
1020
20E0
C040
ENDCHAR
STARTCHAR 529F
ENCODING 21151
SWIDTH 1040 0
DWIDTH 13 0
BBX 13 13 0 -2
BITMAP
00C0
0880
FE90
27F8
2090
2690
3890
E310
C310
4310
0620
06E0
1840
ENDCHAR
STARTCHAR 52A0
ENCODING 21152
SWIDTH 1040 0
DWIDTH 13 0
BBX 13 13 0 -2
BITMAP
3000
2000
2690
FEF8
2690
2690
2690
2690
2690
2690
46F0
5890
9000
ENDCHAR
STARTCHAR 52A3
ENCODING 21155
SWIDTH 1040 0
DWIDTH 13 0
BBX 13 13 0 -2
BITMAP
0700
36C0
2630
CED8
0380
1E00
E620
3FF0
3E20
0620
0820
33C0
C080
ENDCHAR
STARTCHAR 52A9
ENCODING 21161
SWIDTH 1040 0
DWIDTH 13 0
BBX 13 13 0 -2
BITMAP
48C0
7E80
4890
7FF8
4890
7890
4890
4E90
4B10
5B10
E320
46E0
1840
ENDCHAR
STARTCHAR 52AA
ENCODING 21162
SWIDTH 1040 0
DWIDTH 13 0
BBX 13 13 0 -2
BITMAP
3020
27F0
FB20
48C0
B340
2E38
C610
7FE0
7E20
0620
0820
13C0
6080
ENDCHAR
STARTCHAR 52AB
ENCODING 21163
SWIDTH 1040 0
DWIDTH 13 0
BBX 13 13 0 -2
BITMAP
18C0
1080
7E90
17F8
1090
FE90
1090
2890
2E90
2690
5F10
E360
4E40
ENDCHAR
STARTCHAR 52AC
ENCODING 21164
SWIDTH 1040 0
DWIDTH 13 0
BBX 13 13 0 -2
BITMAP
30C0
2680
3E90
47F8
7690
D690
5690
7690
5690
5690
0B10
3B60
1640
ENDCHAR
STARTCHAR 52AD
ENCODING 21165
SWIDTH 1040 0
DWIDTH 13 0
BBX 13 13 0 -2
BITMAP
0660
FF40
2650
27F8
4650
5850
9050
7E90
4890
4890
4B20
7B60
4E40
ENDCHAR
STARTCHAR 52B1
ENCODING 21169
SWIDTH 1040 0
DWIDTH 13 0
BBX 13 13 0 -2
BITMAP
4660
7F40
4050
7FF8
5050
5F50
5650
5650
5650
5650
A690
AEF0
4B20
ENDCHAR
STARTCHAR 52B4
ENCODING 21172
SWIDTH 1040 0
DWIDTH 13 0
BBX 13 13 0 -2
BITMAP
3760
5350
7FF8
C610
0620
7FF0
0620
0820
0820
0820
1020
23C0
C080
ENDCHAR
STARTCHAR 52B5
ENCODING 21173
SWIDTH 1040 0
DWIDTH 13 0
BBX 13 13 0 -2
BITMAP
1740
2620
7FF0
0B00
FFF8
1680
1640
3FF8
F850
C850
0840
1780
6300
ENDCHAR
STARTCHAR 52B9
ENCODING 21177
SWIDTH 1040 0
DWIDTH 13 0
BBX 13 13 0 -2
BITMAP
30C0
2680
FE90
6BF8
4690
8E90
6890
1090
1390
1310
2B20
46E0
8840
ENDCHAR
STARTCHAR 52BC
ENCODING 21180
SWIDTH 1040 0
DWIDTH 13 0
BBX 13 13 0 -2
BITMAP
18C0
1080
FE90
17F8
1090
7E90
0090
7E90
4890
4890
4B20
7B60
4E40
ENDCHAR
STARTCHAR 52BE
ENCODING 21182
SWIDTH 1040 0
DWIDTH 13 0
BBX 13 13 0 -2
BITMAP
1860
1640
FF50
13F8
AE50
4850
3750
2650
4ED0
C890
1890
2770
C620
ENDCHAR
STARTCHAR 52C1
ENCODING 21185
SWIDTH 1040 0
DWIDTH 13 0
BBX 13 13 0 -2
BITMAP
0660
FF40
5650
ABF8
A850
5650
FF50
1090
1090
1090
1F20
F360
4640
ENDCHAR
STARTCHAR 52C3
ENCODING 21187
SWIDTH 1040 0
DWIDTH 13 0
BBX 13 13 0 -2
BITMAP
1860
1640
FF50
13F8
7F50
C650
7850
1750
1990
F890
5090
3360
2E40
ENDCHAR
STARTCHAR 52C5
ENCODING 21189
SWIDTH 1040 0
DWIDTH 13 0
BBX 13 13 0 -2
BITMAP
1860
1640
FF50
13F8
7E50
5650
7E50
5650
5890
3890
5690
9360
1640
ENDCHAR
STARTCHAR 52C7
ENCODING 21191
SWIDTH 1040 0
DWIDTH 13 0
BBX 12 13 0 -2
BITMAP
0040
3FE0
0880
3FE0
2620
3FE0
2620
FFF0
FE20
0620
0820
13C0
E080
ENDCHAR
STARTCHAR 52C9
ENCODING 21193
SWIDTH 1040 0
DWIDTH 13 0
BBX 13 13 0 -2
BITMAP
40C0
7880
50A0
A7F0
FEA0
96A0
FEA0
56A0
5720
5320
5360
5650
8FF8
ENDCHAR
STARTCHAR 52CD
ENCODING 21197
SWIDTH 1040 0
DWIDTH 13 0
BBX 13 13 0 -2
BITMAP
1860
1640
FF50
03F8
7E50
4650
7E50
1050
58D0
5890
5690
B760
2640
ENDCHAR
STARTCHAR 52D2
ENCODING 21202
SWIDTH 1040 0
DWIDTH 13 0
BBX 13 13 0 -2
BITMAP
50C0
FE80
5090
77F8
2090
F890
A890
F890
E390
2310
FF20
26E0
2840
ENDCHAR
STARTCHAR 52D5
ENCODING 21205
SWIDTH 1040 0
DWIDTH 13 0
BBX 13 13 0 -2
BITMAP
0E60
7840
1350
FFF8
5650
7E50
5650
5650
5690
FF90
1090
FF60
4640
ENDCHAR
STARTCHAR 52D7
ENCODING 21207
SWIDTH 1040 0
DWIDTH 13 0
BBX 13 13 0 -2
BITMAP
1040
1FE0
1040
1FC0
1040
3FC0
2650
3FF8
2650
2650
3E90
E6B0
4720
ENDCHAR
STARTCHAR 52D8
ENCODING 21208
SWIDTH 1040 0
DWIDTH 13 0
BBX 13 13 0 -2
BITMAP
2660
FFC0
2650
3FF8
2650
3E50
2650
FFD0
D690
5690
6690
7F60
4340
ENDCHAR
STARTCHAR 52D9
ENCODING 21209
SWIDTH 1040 0
DWIDTH 13 0
BBX 13 13 0 -2
BITMAP
08C0
FE90
48F8
33A0
1640
FFB8
3890
57F0
5790
5090
9310
7360
2E40
ENDCHAR
STARTCHAR 52DD
ENCODING 21213
SWIDTH 1040 0
DWIDTH 13 0
BBX 13 13 0 -2
BITMAP
58D0
76A0
5FF0
5080
7FF8
5340
56B8
7890
58F0
57E0
5320
56E0
B840
ENDCHAR
STARTCHAR 52DE
ENCODING 21214
SWIDTH 1040 0
DWIDTH 13 0
BBX 13 13 0 -2
BITMAP
1860
5350
5750
28A0
4710
7FF8
C610
3FE0
3E20
0620
0820
13C0
6080
ENDCHAR
STARTCHAR 52DF
ENCODING 21215
SWIDTH 1040 0
DWIDTH 13 0
BBX 13 13 0 -2
BITMAP
0890
FFF8
0880
1FC0
1040
1FC0
1650
FFF8
E640
2640
DFF8
0850
3380
ENDCHAR
STARTCHAR 52E0
ENCODING 21216
SWIDTH 1040 0
DWIDTH 13 0
BBX 13 13 0 -2
BITMAP
1360
FF40
5B50
B7F8
DB50
3350
CE50
3750
5790
D090
2890
D360
6640
ENDCHAR
STARTCHAR 52E2
ENCODING 21218
SWIDTH 1040 0
DWIDTH 13 0
BBX 13 13 0 -2
BITMAP
10C0
7EA0
13F0
FEA0
2BA8
DED0
3758
D628
D638
3FF0
0620
08E0
7040
ENDCHAR
STARTCHAR 52E3
ENCODING 21219
SWIDTH 1040 0
DWIDTH 13 0
BBX 13 13 0 -2
BITMAP
1660
FF40
1050
7FF8
1050
FF50
4650
7E50
4690
4690
7EA0
2760
E340
ENDCHAR
STARTCHAR 52E4
ENCODING 21220
SWIDTH 1040 0
DWIDTH 13 0
BBX 13 13 0 -2
BITMAP
2860
FF40
2850
7FF8
5650
7E50
1050
FF50
F190
1090
FE90
1760
FB40
ENDCHAR
STARTCHAR 52E6
ENCODING 21222
SWIDTH 1040 0
DWIDTH 13 0
BBX 13 13 0 -2
BITMAP
5360
A640
7F50
53F8
7F50
5350
7F50
1050
1090
FF90
3890
5760
9640
ENDCHAR
STARTCHAR 52E7
ENCODING 21223
SWIDTH 1040 0
DWIDTH 13 0
BBX 13 13 0 -2
BITMAP
3060
2640
7F50
43F8
FF50
2050
7F50
D050
D090
7F90
5090
7F60
4640
ENDCHAR
STARTCHAR 52F2
ENCODING 21234
SWIDTH 1040 0
DWIDTH 13 0
BBX 13 13 0 -2
BITMAP
0E60
7840
1350
FFF8
5650
7E50
5690
7E90
7390
1370
FF20
4890
CED8
ENDCHAR
STARTCHAR 52F3
ENCODING 21235
SWIDTH 1040 0
DWIDTH 13 0
BBX 13 13 0 -2
BITMAP
0E60
7840
1350
FFF8
5650
7E50
5650
7E50
7350
1350
FF90
26F0
DB20
ENDCHAR
STARTCHAR 52F5
ENCODING 21237
SWIDTH 1040 0
DWIDTH 13 0
BBX 13 13 0 -2
BITMAP
4360
7F40
5650
7FF8
5650
7F50
5650
7F50
6B50
6B50
BF50
B3B0
2720
ENDCHAR
STARTCHAR 52F8
ENCODING 21240
SWIDTH 1040 0
DWIDTH 13 0
BBX 13 13 0 -2
BITMAP
2860
FF40
2850
7FF8
5650
7E50
2850
5650
5690
FE90
5090
7F60
4640
ENDCHAR
STARTCHAR 52F9
ENCODING 21241
SWIDTH 1040 0
DWIDTH 13 0
BBX 13 13 0 -2
BITMAP
1800
1010
1FF8
2010
2010
4010
8010
0010
0030
0020
0020
03C0
0080
ENDCHAR
STARTCHAR 52FA
ENCODING 21242
SWIDTH 1040 0
DWIDTH 13 0
BBX 13 13 0 -2
BITMAP
1800
1010
3FF8
2010
5010
8810
0E10
0610
0630
0020
0020
03C0
0080
ENDCHAR
STARTCHAR 52FE
ENCODING 21246
SWIDTH 1040 0
DWIDTH 13 0
BBX 13 13 0 -2
BITMAP
1800
1010
3FF8
2010
4E10
8810
0B10
1090
10D0
17D0
7820
20E0
0040
ENDCHAR
STARTCHAR 52FF
ENCODING 21247
SWIDTH 1040 0
DWIDTH 13 0
BBX 13 13 0 -2
BITMAP
1800
1010
3FF8
2690
4890
8890
1310
2310
6710
4610
0820
30E0
0040
ENDCHAR
STARTCHAR 5301
ENCODING 21249
SWIDTH 1040 0
DWIDTH 13 0
BBX 13 13 0 -2
BITMAP
1800
1020
3FF0
2320
5320
8E20
0620
0B20
1340
30C0
C078
0790
0300
ENDCHAR
STARTCHAR 5302
ENCODING 21250
SWIDTH 1040 0
DWIDTH 13 0
BBX 13 13 0 -2
BITMAP
1800
1010
3FF8
2010
5B90
9310
1E10
1090
1090
1090
0FA0
0060
0040
ENDCHAR
STARTCHAR 5305
ENCODING 21253
SWIDTH 1040 0
DWIDTH 13 0
BBX 13 13 0 -2
BITMAP
1800
1020
3FF0
2020
7F20
8320
3F20
23C0
2380
2080
2010
2010
1FF8
ENDCHAR
STARTCHAR 5306
ENCODING 21254
SWIDTH 1040 0
DWIDTH 13 0
BBX 13 13 0 -2
BITMAP
1800
1010
3FF8
2650
7650
8E90
0B10
1390
7250
6650
0820
30E0
0040
ENDCHAR
STARTCHAR 5308
ENCODING 21256
SWIDTH 1040 0
DWIDTH 13 0
BBX 13 13 0 -2
BITMAP
1800
1010
3FF8
2310
76D0
A890
2E90
3390
3390
3F90
20A0
00E0
0040
ENDCHAR
STARTCHAR 530D
ENCODING 21261
SWIDTH 1040 0
DWIDTH 13 0
BBX 13 13 0 -2
BITMAP
1800
1010
3FF8
6890
BFD0
0810
3FD0
2890
2890
3F90
2890
3FB0
28A0
ENDCHAR
STARTCHAR 530F
ENCODING 21263
SWIDTH 1040 0
DWIDTH 13 0
BBX 13 13 0 -2
BITMAP
3380
2B10
FFF8
2610
77D0
8B50
FFD0
2360
3B40
7B40
0B10
3B10
10F8
ENDCHAR
STARTCHAR 5310
ENCODING 21264
SWIDTH 1040 0
DWIDTH 13 0
BBX 13 13 0 -2
BITMAP
1800
1010
3FF8
4010
BFD0
1310
3FD0
2890
2890
3F90
28A0
3FE0
2040
ENDCHAR
STARTCHAR 5315
ENCODING 21269
SWIDTH 1040 0
DWIDTH 13 0
BBX 11 13 1 -2
BITMAP
3000
2000
2000
20C0
2180
2E00
3000
E000
E000
2000
2040
2040
1FE0
ENDCHAR
STARTCHAR 5316
ENCODING 21270
SWIDTH 1040 0
DWIDTH 13 0
BBX 13 13 0 -2
BITMAP
0B80
0B00
1300
1330
3320
53C0
9300
1300
1300
1300
1310
1310
10F8
ENDCHAR
STARTCHAR 5317
ENCODING 21271
SWIDTH 1040 0
DWIDTH 13 0
BBX 13 13 0 -2
BITMAP
0F80
0B00
0B30
FB20
0BC0
0B00
0B00
1B00
FB10
EB10
4B10
08F8
0800
ENDCHAR
STARTCHAR 5319
ENCODING 21273
SWIDTH 1040 0
DWIDTH 13 0
BBX 13 13 0 -2
BITMAP
4600
7EC0
4680
7E90
46B0
FFC0
1080
5690
5690
5E90
7078
5000
8FF8
ENDCHAR
STARTCHAR 531A
ENCODING 21274
SWIDTH 1040 0
DWIDTH 13 0
BBX 12 13 1 -2
BITMAP
8040
FFE0
8000
8000
8000
8000
8000
8000
8000
8000
8020
FFF0
8000
ENDCHAR
STARTCHAR 531D
ENCODING 21277
SWIDTH 1040 0
DWIDTH 13 0
BBX 12 13 1 -2
BITMAP
8040
FFE0
8600
A640
BFE0
A640
A640
A6C0
A680
A680
8620
FFF0
8000
ENDCHAR
STARTCHAR 5320
ENCODING 21280
SWIDTH 1040 0
DWIDTH 13 0
BBX 12 13 1 -2
BITMAP
8040
FFE0
8080
9F80
9040
9FE0
9100
9100
B100
A100
8120
FFF0
8000
ENDCHAR
STARTCHAR 5321
ENCODING 21281
SWIDTH 1040 0
DWIDTH 13 0
BBX 12 13 1 -2
BITMAP
8040
FFE0
8000
BFC0
8600
9F80
8600
8600
87C0
BFC0
8020
FFF0
8000
ENDCHAR
STARTCHAR 5323
ENCODING 21283
SWIDTH 1040 0
DWIDTH 13 0
BBX 12 13 1 -2
BITMAP
8040
FFE0
8000
BFC0
A640
BFC0
A640
BFC0
A640
A640
8620
FFF0
8000
ENDCHAR
STARTCHAR 532A
ENCODING 21290
SWIDTH 1040 0
DWIDTH 13 0
BBX 12 13 1 -2
BITMAP
8040
FFE0
8D00
BDE0
8D00
BDC0
8D00
BDE0
AD00
AD00
9120
FFF0
8000
ENDCHAR
STARTCHAR 532F
ENCODING 21295
SWIDTH 1040 0
DWIDTH 13 0
BBX 12 13 1 -2
BITMAP
8040
FFE0
A140
D680
A7E0
AE80
97C0
9680
A6E0
A7E0
A020
FFF0
8000
ENDCHAR
STARTCHAR 5331
ENCODING 21297
SWIDTH 1040 0
DWIDTH 13 0
BBX 12 13 1 -2
BITMAP
8020
FFF0
9640
FFF0
9040
9FC0
9040
9FC0
9C80
8C80
9040
FFF0
8000
ENDCHAR
STARTCHAR 5333
ENCODING 21299
SWIDTH 1040 0
DWIDTH 13 0
BBX 12 13 1 -2
BITMAP
8040
FFE0
8600
8D00
9080
FFF0
9640
9FC0
9C80
8C80
9740
FFF0
8000
ENDCHAR
STARTCHAR 5338
ENCODING 21304
SWIDTH 1040 0
DWIDTH 13 0
BBX 13 12 0 -2
BITMAP
0010
FFF8
4000
4000
4000
4000
4000
4000
4000
4000
4000
3FF8
ENDCHAR
STARTCHAR 5339
ENCODING 21305
SWIDTH 1040 0
DWIDTH 13 0
BBX 12 12 1 -2
BITMAP
8040
FFE0
9600
9600
9600
A640
A640
C660
C1E0
8000
FFF0
8000
ENDCHAR
STARTCHAR 533A
ENCODING 21306
SWIDTH 1040 0
DWIDTH 13 0
BBX 12 13 1 -2
BITMAP
8040
FFE0
8000
B180
8D00
8600
8700
8C80
BCC0
B0C0
8020
FFF0
8000
ENDCHAR
STARTCHAR 533B
ENCODING 21307
SWIDTH 1040 0
DWIDTH 13 0
BBX 12 13 1 -2
BITMAP
8040
FFE0
9000
9FC0
A600
FFE0
8600
8D00
9180
9080
A040
FFF0
8000
ENDCHAR
STARTCHAR 533F
ENCODING 21311
SWIDTH 1040 0
DWIDTH 13 0
BBX 12 13 1 -2
BITMAP
8040
FFE0
8D00
BFC0
8600
FFE0
8C00
9FC0
9080
F080
90A0
FFF0
8000
ENDCHAR
STARTCHAR 5340
ENCODING 21312
SWIDTH 1040 0
DWIDTH 13 0
BBX 12 13 1 -2
BITMAP
8040
FFE0
8000
8F80
8C80
AFA0
BDF0
AD20
AD20
BDE0
8000
FFF0
8000
ENDCHAR
STARTCHAR 5341
ENCODING 21313
SWIDTH 1040 0
DWIDTH 13 0
BBX 13 13 0 -2
BITMAP
0700
0600
0600
0600
0610
FFF8
0600
0600
0600
0600
0600
0600
0600
ENDCHAR
STARTCHAR 5343
ENCODING 21315
SWIDTH 1040 0
DWIDTH 13 0
BBX 13 13 0 -2
BITMAP
0040
07E0
7E00
0600
0610
FFF8
0600
0600
0600
0600
0600
0600
0600
ENDCHAR
STARTCHAR 5345
ENCODING 21317
SWIDTH 1040 0
DWIDTH 13 0
BBX 13 13 0 -2
BITMAP
3760
2640
2640
2650
FFF8
2640
2640
2640
2640
2640
4640
4640
8640
ENDCHAR
STARTCHAR 5346
ENCODING 21318
SWIDTH 1040 0
DWIDTH 13 0
BBX 13 13 0 -2
BITMAP
0E00
0880
7FC0
0880
0890
3090
C778
0600
07F8
FFF8
0600
0600
0600
ENDCHAR
STARTCHAR 5347
ENCODING 21319
SWIDTH 1040 0
DWIDTH 13 0
BBX 13 13 0 -2
BITMAP
08C0
1E80
F080
1080
1090
FFF8
1080
1080
1080
1080
2080
2080
C080
ENDCHAR
STARTCHAR 5348
ENCODING 21320
SWIDTH 1040 0
DWIDTH 13 0
BBX 13 13 0 -2
BITMAP
1800
1020
3FF0
2600
4600
0610
FFF8
0600
0600
0600
0600
0600
0600
ENDCHAR
STARTCHAR 5349
ENCODING 21321
SWIDTH 1040 0
DWIDTH 13 0
BBX 13 13 0 -2
BITMAP
0700
0620
7FF0
0600
36C0
2680
2090
FFF8
E080
2080
2080
4080
8080
ENDCHAR
STARTCHAR 534A
ENCODING 21322
SWIDTH 1040 0
DWIDTH 13 0
BBX 13 13 0 -2
BITMAP
4760
2640
3680
0620
7FF0
0600
0610
FFF8
FE00
0600
0600
0600
0600
ENDCHAR
STARTCHAR 534D
ENCODING 21325
SWIDTH 1040 0
DWIDTH 13 0
BBX 13 13 0 -2
BITMAP
0618
FF10
0610
0610
4610
7FF0
4610
4600
4600
4600
4610
47F8
4600
ENDCHAR
STARTCHAR 5351
ENCODING 21329
SWIDTH 1040 0
DWIDTH 13 0
BBX 13 13 0 -2
BITMAP
0E00
2840
3FE0
2640
3FC0
2640
3FC0
1340
2350
2310
FFF8
0300
0300
ENDCHAR
STARTCHAR 5352
ENCODING 21330
SWIDTH 1040 0
DWIDTH 13 0
BBX 13 13 0 -2
BITMAP
0700
0620
7FF0
1080
1080
2F60
4620
FFF8
FE00
0600
0600
0600
0600
ENDCHAR
STARTCHAR 5353
ENCODING 21331
SWIDTH 1040 0
DWIDTH 13 0
BBX 13 13 0 -2
BITMAP
0620
07F0
2600
3FE0
2040
3FC0
2040
3FC0
3E10
0610
FFF8
0600
0600
ENDCHAR
STARTCHAR 5354
ENCODING 21332
SWIDTH 1040 0
DWIDTH 13 0
BBX 13 13 0 -2
BITMAP
3380
2320
2FF0
FB20
2320
2EC0
2B50
3F78
2B50
2B50
2B50
37B0
26A0
ENDCHAR
STARTCHAR 5357
ENCODING 21335
SWIDTH 1040 0
DWIDTH 13 0
BBX 13 13 0 -2
BITMAP
0700
0610
FFF8
0600
3FF0
28A0
3FE0
2620
2620
3FE0
2620
26E0
2640
ENDCHAR
STARTCHAR 5358
ENCODING 21336
SWIDTH 1040 0
DWIDTH 13 0
BBX 13 13 0 -2
BITMAP
3760
1340
3FE0
2640
3FC0
2640
3FC0
0610
0618
FFF8
0600
0600
0600
ENDCHAR
STARTCHAR 535A
ENCODING 21338
SWIDTH 1040 0
DWIDTH 13 0
BBX 13 13 0 -2
BITMAP
30E0
2090
2FF8
FE90
27F0
2690
27F0
2020
2038
3FF8
2620
2760
2040
ENDCHAR
STARTCHAR 535C
ENCODING 21340
SWIDTH 1040 0
DWIDTH 13 0
BBX 7 13 5 -2
BITMAP
E0
C0
C0
C0
F0
CC
C6
C0
C0
C0
C0
C0
C0
ENDCHAR
STARTCHAR 535E
ENCODING 21342
SWIDTH 1040 0
DWIDTH 13 0
BBX 13 13 0 -2
BITMAP
0700
0610
FFF8
0600
0700
06C0
0660
0600
0600
0600
0600
0600
0600
ENDCHAR
STARTCHAR 5360
ENCODING 21344
SWIDTH 1040 0
DWIDTH 13 0
BBX 10 13 2 -2
BITMAP
1C00
1800
1880
1FC0
1800
9900
FF80
8100
8100
8100
8100
FF00
8100
ENDCHAR
STARTCHAR 5366
ENCODING 21350
SWIDTH 1040 0
DWIDTH 13 0
BBX 13 13 0 -2
BITMAP
1860
1640
7F40
1040
FF60
1050
1658
7F40
7040
1040
1F40
F040
4040
ENDCHAR
STARTCHAR 5369
ENCODING 21353
SWIDTH 1040 0
DWIDTH 13 0
BBX 7 13 4 -2
BITMAP
84
FE
84
84
84
84
84
84
84
BC
88
80
80
ENDCHAR
STARTCHAR 536E
ENCODING 21358
SWIDTH 1040 0
DWIDTH 13 0
BBX 13 13 0 -2
BITMAP
0020
23F0
3F00
2010
3FF8
2000
2FE0
2820
6820
48E0
4850
8810
07F8
ENDCHAR
STARTCHAR 536F
ENCODING 21359
SWIDTH 1040 0
DWIDTH 13 0
BBX 13 13 0 -2
BITMAP
0600
4F10
70F8
4E90
4890
4890
4890
5890
7890
E8F0
48A0
1080
2080
ENDCHAR
STARTCHAR 5370
ENCODING 21360
SWIDTH 1040 0
DWIDTH 13 0
BBX 12 13 1 -2
BITMAP
0C00
9C20
E7F0
8620
9620
F620
8620
9620
9620
F6E0
8640
8600
0600
ENDCHAR
STARTCHAR 5371
ENCODING 21361
SWIDTH 1040 0
DWIDTH 13 0
BBX 13 13 0 -2
BITMAP
0880
1FC0
1310
3FF8
6000
AFE0
2840
2840
6840
4BC0
48A0
8820
07F0
ENDCHAR
STARTCHAR 5373
ENCODING 21363
SWIDTH 1040 0
DWIDTH 13 0
BBX 13 13 0 -2
BITMAP
4690
7EF8
4690
7E90
4690
7E90
5690
4890
4E90
5EF0
E6A0
4680
0080
ENDCHAR
STARTCHAR 5374
ENCODING 21364
SWIDTH 1040 0
DWIDTH 13 0
BBX 13 13 0 -2
BITMAP
1890
16F8
7E90
1090
1690
FF90
1090
2890
2E90
26B0
5EA0
E680
4080
ENDCHAR
STARTCHAR 5375
ENCODING 21365
SWIDTH 1040 0
DWIDTH 13 0
BBX 13 13 0 -2
BITMAP
0600
4F10
73F8
4B10
6B90
5B50
4B30
5B10
7B10
EB70
4B20
1300
6300
ENDCHAR
STARTCHAR 5377
ENCODING 21367
SWIDTH 1040 0
DWIDTH 13 0
BBX 13 13 0 -2
BITMAP
1740
2620
7FF0
0B00
FFF8
0880
1060
3FB8
F0B0
D090
17A0
1020
0FF0
ENDCHAR
STARTCHAR 5378
ENCODING 21368
SWIDTH 1040 0
DWIDTH 13 0
BBX 13 13 0 -2
BITMAP
3000
2690
7EF8
5090
9690
FF90
1090
5E90
5290
53B0
5EA0
F080
4080
ENDCHAR
STARTCHAR 537B
ENCODING 21371
SWIDTH 1040 0
DWIDTH 13 0
BBX 13 13 0 -2
BITMAP
6890
46F8
5790
9890
2690
2790
7E90
A690
A690
26B0
26A0
3E80
2680
ENDCHAR
STARTCHAR 537F
ENCODING 21375
SWIDTH 1040 0
DWIDTH 13 0
BBX 13 13 0 -2
BITMAP
1350
BF78
CB50
AF50
AB50
AF50
A850
EE70
AB50
AB50
2F40
5B40
9040
ENDCHAR
STARTCHAR 5382
ENCODING 21378
SWIDTH 1040 0
DWIDTH 13 0
BBX 13 13 0 -2
BITMAP
2010
3FF8
2000
2000
2000
2000
2000
2000
2000
2000
4000
4000
8000
ENDCHAR
STARTCHAR 5384
ENCODING 21380
SWIDTH 1040 0
DWIDTH 13 0
BBX 13 13 0 -2
BITMAP
2020
3FF0
2000
2FE0
2840
2840
2840
2BC0
6B80
4880
4810
8810
07F8
ENDCHAR
STARTCHAR 5396
ENCODING 21398
SWIDTH 1040 0
DWIDTH 13 0
BBX 13 13 0 -2
BITMAP
2010
3FF8
2700
26A0
3FA0
2650
2750
2BA8
6B78
4B50
4B20
9350
20F8
ENDCHAR
STARTCHAR 5398
ENCODING 21400
SWIDTH 1040 0
DWIDTH 13 0
BBX 13 12 0 -1
BITMAP
3FF0
2000
2FE0
2B20
2FE0
2B20
2FE0
2300
63F0
5FF0
4300
BFF8
ENDCHAR
STARTCHAR 539A
ENCODING 21402
SWIDTH 1040 0
DWIDTH 13 0
BBX 13 13 0 -2
BITMAP
2010
3FF8
2000
2FE0
2840
2FC0
2840
2FE0
6F90
4090
7FF8
8300
0700
ENDCHAR
STARTCHAR 539F
ENCODING 21407
SWIDTH 1040 0
DWIDTH 13 0
BBX 13 13 0 -2
BITMAP
2010
3FF8
2300
2FE0
2820
2FE0
2820
2FE0
6F00
4300
5B60
9710
6618
ENDCHAR
STARTCHAR 53A0
ENCODING 21408
SWIDTH 1040 0
DWIDTH 13 0
BBX 13 13 0 -2
BITMAP
2010
3FF8
2000
2F58
2B50
2F50
2B50
2F50
6B50
4B10
4F10
8B70
30A0
ENDCHAR
STARTCHAR 53A5
ENCODING 21413
SWIDTH 1040 0
DWIDTH 13 0
BBX 13 13 0 -2
BITMAP
2010
3FF8
3640
2880
3FF8
2890
2B60
3F40
79A0
48A0
48A0
9318
2610
ENDCHAR
STARTCHAR 53A6
ENCODING 21414
SWIDTH 1040 0
DWIDTH 13 0
BBX 13 13 0 -2
BITMAP
2010
3FF8
2000
3FF0
2B20
2FE0
2820
2FE0
6E40
4640
5B80
8778
3810
ENDCHAR
STARTCHAR 53A8
ENCODING 21416
SWIDTH 1040 0
DWIDTH 13 0
BBX 13 13 0 -2
BITMAP
2010
3FF8
2000
2F90
2010
2FF8
2890
2FD0
7F50
5330
4B90
BE70
1020
ENDCHAR
STARTCHAR 53A9
ENCODING 21417
SWIDTH 1040 0
DWIDTH 13 0
BBX 13 13 0 -2
BITMAP
4010
7FF8
4000
5FF0
5320
5FA0
53F8
5F20
5620
5660
97A8
B8A8
2718
ENDCHAR
STARTCHAR 53AD
ENCODING 21421
SWIDTH 1040 0
DWIDTH 13 0
BBX 13 13 0 -2
BITMAP
4020
7FF0
4000
5F60
5650
5FF0
5640
5E40
56A0
56A0
9EA0
96B8
1710
ENDCHAR
STARTCHAR 53AE
ENCODING 21422
SWIDTH 1040 0
DWIDTH 13 0
BBX 13 13 0 -2
BITMAP
2010
3FF8
2B10
2B70
3FC0
2B78
2F50
2B50
6B50
5FD0
4B50
9B90
2090
ENDCHAR
STARTCHAR 53B0
ENCODING 21424
SWIDTH 1040 0
DWIDTH 13 0
BBX 13 13 0 -2
BITMAP
2010
3FF8
2800
3E60
2B50
3F78
23D0
2F50
2B60
6B20
6F20
A358
2790
ENDCHAR
STARTCHAR 53B3
ENCODING 21427
SWIDTH 1040 0
DWIDTH 13 0
BBX 13 13 0 -2
BITMAP
1BB0
28A0
3FF8
2040
3F50
26F8
3F90
2B50
6B60
4F60
4B20
BF58
1390
ENDCHAR
STARTCHAR 53B6
ENCODING 21430
SWIDTH 1040 0
DWIDTH 13 0
BBX 13 13 0 -2
BITMAP
0700
0600
0600
0600
0800
0800
0880
1040
1060
1020
23F0
FE18
4008
ENDCHAR
STARTCHAR 53BB
ENCODING 21435
SWIDTH 1040 0
DWIDTH 13 0
BBX 13 13 0 -2
BITMAP
0700
0620
7FF0
0600
0610
FFF8
0600
0880
08C0
0840
13E0
7E30
2010
ENDCHAR
STARTCHAR 53C2
ENCODING 21442
SWIDTH 1040 0
DWIDTH 13 0
BBX 13 13 0 -2
BITMAP
0F00
0880
7FE0
2620
FFF8
1340
26B8
DB10
DAD0
06C0
3880
0700
3800
ENDCHAR
STARTCHAR 53C3
ENCODING 21443
SWIDTH 1040 0
DWIDTH 13 0
BBX 13 13 0 -2
BITMAP
0E80
0840
7FF0
20A0
5310
FFF8
4B80
1E78
FFF0
E390
1E40
0380
1E00
ENDCHAR
STARTCHAR 53C8
ENCODING 21448
SWIDTH 1040 0
DWIDTH 13 0
BBX 13 12 0 -2
BITMAP
0040
7FE0
1040
1080
0880
0B00
0600
0B00
0B00
10C0
2038
C010
ENDCHAR
STARTCHAR 53C9
ENCODING 21449
SWIDTH 1040 0
DWIDTH 13 0
BBX 13 13 0 -2
BITMAP
0040
7FE0
2840
2640
1680
1080
0B00
0600
0B00
0B00
1080
2078
C010
ENDCHAR
STARTCHAR 53CA
ENCODING 21450
SWIDTH 1040 0
DWIDTH 13 0
BBX 13 13 0 -2
BITMAP
0040
7FE0
0840
0880
08A0
17F0
1620
1340
3380
2080
4340
8E38
7010
ENDCHAR
STARTCHAR 53CB
ENCODING 21451
SWIDTH 1040 0
DWIDTH 13 0
BBX 13 13 0 -2
BITMAP
0E00
0810
FFF8
0800
0FC0
0840
1680
1680
3700
2300
4680
9878
6010
ENDCHAR
STARTCHAR 53CC
ENCODING 21452
SWIDTH 1040 0
DWIDTH 13 0
BBX 13 13 0 -2
BITMAP
0820
FFF0
0B20
0B20
6B20
1340
18C0
1680
26C0
26C0
2320
4638
8810
ENDCHAR
STARTCHAR 53CD
ENCODING 21453
SWIDTH 1040 0
DWIDTH 13 0
BBX 13 13 0 -2
BITMAP
2010
3FF8
2000
2040
3FE0
2840
2840
2680
6700
4300
46C0
9838
6010
ENDCHAR
STARTCHAR 53CE
ENCODING 21454
SWIDTH 1040 0
DWIDTH 13 0
BBX 13 13 0 -2
BITMAP
1800
5020
57F0
5620
5320
5340
5340
7080
5080
D080
1340
1638
1810
ENDCHAR
STARTCHAR 53D4
ENCODING 21460
SWIDTH 1040 0
DWIDTH 13 0
BBX 13 13 0 -2
BITMAP
1820
13F0
1F20
10A0
FFA0
10A0
5840
5640
56A0
56A0
96A0
7338
2E10
ENDCHAR
STARTCHAR 53D6
ENCODING 21462
SWIDTH 1040 0
DWIDTH 13 0
BBX 13 13 0 -2
BITMAP
0600
FF20
4BF0
7B20
48A0
78A0
48A0
5840
6840
6840
C8A0
4B38
0E10
ENDCHAR
STARTCHAR 53D7
ENCODING 21463
SWIDTH 1040 0
DWIDTH 13 0
BBX 13 13 0 -2
BITMAP
0070
7FA0
2620
5350
7FF8
C010
3FE0
0840
0E80
0680
0700
18F8
E010
ENDCHAR
STARTCHAR 53D9
ENCODING 21465
SWIDTH 1040 0
DWIDTH 13 0
BBX 13 13 0 -2
BITMAP
1000
3820
27F0
7EA0
90A0
FFA0
1040
5840
56A0
56A0
96A0
7338
2E10
ENDCHAR
STARTCHAR 53DB
ENCODING 21467
SWIDTH 1040 0
DWIDTH 13 0
BBX 13 13 0 -2
BITMAP
3610
AFF8
7600
2620
FFF0
26A0
3EA0
E640
A840
A840
28A0
5338
8E10
ENDCHAR
STARTCHAR 53DF
ENCODING 21471
SWIDTH 1040 0
DWIDTH 13 0
BBX 13 13 0 -2
BITMAP
2620
3FF0
2620
3EE0
2620
3FE0
0600
7FE0
7880
0880
0700
18F8
E010
ENDCHAR
STARTCHAR 53E1
ENCODING 21473
SWIDTH 1040 0
DWIDTH 13 0
BBX 13 13 0 -2
BITMAP
1E00
5320
7FF0
D6A0
56A0
ABA0
3EA0
6740
E640
BE40
26A0
3EB8
2710
ENDCHAR
STARTCHAR 53E2
ENCODING 21474
SWIDTH 1040 0
DWIDTH 13 0
BBX 13 13 0 -2
BITMAP
4B20
2B50
FFF8
1080
7FE0
0610
FFF8
2600
27F0
3FF0
26A0
FEF8
4710
ENDCHAR
STARTCHAR 53E3
ENCODING 21475
SWIDTH 1040 0
DWIDTH 13 0
BBX 10 12 2 -2
BITMAP
8080
FFC0
8080
8080
8080
8080
8080
8080
8080
8080
FF80
8080
ENDCHAR
STARTCHAR 53E4
ENCODING 21476
SWIDTH 1040 0
DWIDTH 13 0
BBX 13 13 0 -2
BITMAP
0700
0600
0610
FFF8
0600
0600
2640
3FE0
2040
2040
2040
3FC0
2040
ENDCHAR
STARTCHAR 53E5
ENCODING 21477
SWIDTH 1040 0
DWIDTH 13 0
BBX 13 13 0 -2
BITMAP
1800
1010
1FF8
2010
3310
5F90
9310
1310
1310
1F10
1320
00E0
0040
ENDCHAR
STARTCHAR 53E8
ENCODING 21480
SWIDTH 1040 0
DWIDTH 13 0
BBX 13 12 0 -2
BITMAP
9010
FFF8
9090
9090
9090
9090
F310
9310
9310
0620
08E0
1040
ENDCHAR
STARTCHAR 53E9
ENCODING 21481
SWIDTH 1040 0
DWIDTH 13 0
BBX 12 12 1 -2
BITMAP
9620
F7F0
9620
9620
9620
9620
F6E0
96C0
9640
0600
0600
0600
ENDCHAR
STARTCHAR 53EA
ENCODING 21482
SWIDTH 1040 0
DWIDTH 13 0
BBX 13 13 0 -2
BITMAP
2020
3FF0
2020
2020
2020
3FE0
2020
0080
18C0
1840
1020
2010
C018
ENDCHAR
STARTCHAR 53EB
ENCODING 21483
SWIDTH 1040 0
DWIDTH 13 0
BBX 13 13 0 -2
BITMAP
0030
93A0
FB20
9320
9320
9320
9338
F3E0
9320
9F20
0020
0020
0020
ENDCHAR
STARTCHAR 53EC
ENCODING 21484
SWIDTH 1040 0
DWIDTH 13 0
BBX 13 13 0 -2
BITMAP
0010
FFF8
0610
0610
0820
30E0
C040
3FE0
2040
2040
2040
3FC0
2040
ENDCHAR
STARTCHAR 53ED
ENCODING 21485
SWIDTH 1040 0
DWIDTH 13 0
BBX 13 13 0 -2
BITMAP
0680
A680
F680
A680
A680
A640
A640
E640
AE40
A840
0820
1038
2010
ENDCHAR
STARTCHAR 53EE
ENCODING 21486
SWIDTH 1040 0
DWIDTH 13 0
BBX 13 13 0 -2
BITMAP
0010
9FF8
F040
9040
9040
9040
9040
F040
9040
9040
0040
03C0
0080
ENDCHAR
STARTCHAR 53EF
ENCODING 21487
SWIDTH 1040 0
DWIDTH 13 0
BBX 13 13 0 -2
BITMAP
0010
FFF8
0020
2620
3F20
2620
2620
3E20
2620
2620
0020
00E0
0040
ENDCHAR
STARTCHAR 53F0
ENCODING 21488
SWIDTH 1040 0
DWIDTH 13 0
BBX 13 13 0 -2
BITMAP
0700
0600
0840
0820
13F0
FE18
4048
1FE0
1040
1040
1040
1FC0
1040
ENDCHAR
STARTCHAR 53F1
ENCODING 21489
SWIDTH 1040 0
DWIDTH 13 0
BBX 13 13 0 -2
BITMAP
0380
9300
FB00
9320
9370
9380
9F00
F300
9300
9300
0310
0310
00F8
ENDCHAR
STARTCHAR 53F2
ENCODING 21490
SWIDTH 1040 0
DWIDTH 13 0
BBX 13 13 0 -2
BITMAP
0700
4620
7FF0
4620
4620
7FE0
5620
0E00
0E00
0600
0B80
3078
C010
ENDCHAR
STARTCHAR 53F3
ENCODING 21491
SWIDTH 1040 0
DWIDTH 13 0
BBX 13 13 0 -2
BITMAP
0E00
0810
FFF8
0800
1000
1040
3FE0
D040
D040
1040
1040
1FC0
1040
ENDCHAR
STARTCHAR 53F6
ENCODING 21494
SWIDTH 1040 0
DWIDTH 13 0
BBX 13 13 0 -2
BITMAP
00C0
A080
F080
A090
BFF8
A080
A080
E080
A080
A080
0080
0080
0080
ENDCHAR
STARTCHAR 53F7
ENCODING 21495
SWIDTH 1040 0
DWIDTH 13 0
BBX 13 13 0 -2
BITMAP
1040
1FE0
1040
1FC0
0010
FFF8
0800
1FE0
1040
1040
0040
0780
0300
ENDCHAR
STARTCHAR 53F8
ENCODING 21496
SWIDTH 1040 0
DWIDTH 13 0
BBX 13 13 0 -2
BITMAP
0010
FFF8
0010
3F90
0010
1F90
1310
1310
1310
1F10
1310
0070
0020
ENDCHAR
STARTCHAR 53FA
ENCODING 21498
SWIDTH 1040 0
DWIDTH 13 0
BBX 13 13 0 -2
BITMAP
0300
AF80
F300
A300
A300
A680
A680
E680
AEC0
A840
0840
1038
6010
ENDCHAR
STARTCHAR 5401
ENCODING 21505
SWIDTH 1040 0
DWIDTH 13 0
BBX 13 13 0 -2
BITMAP
0020
97F0
F880
9080
9090
9FF8
9080
F080
9080
9080
0080
0780
0300
ENDCHAR
STARTCHAR 5403
ENCODING 21507
SWIDTH 1040 0
DWIDTH 13 0
BBX 13 13 0 -2
BITMAP
0700
A610
EFF8
A800
B040
AFE0
A080
E300
A200
A600
0810
0810
07F8
ENDCHAR
STARTCHAR 5404
ENCODING 21508
SWIDTH 1040 0
DWIDTH 13 0
BBX 13 13 0 -2
BITMAP
0E00
0840
0FE0
1880
2700
C680
0840
3FF8
5050
D050
1040
1FC0
1040
ENDCHAR
STARTCHAR 5408
ENCODING 21512
SWIDTH 1040 0
DWIDTH 13 0
BBX 13 13 0 -2
BITMAP
0600
0700
0880
1040
3FF8
C010
2040
3FE0
2040
2040
2040
3FC0
2040
ENDCHAR
STARTCHAR 5409
ENCODING 21513
SWIDTH 1040 0
DWIDTH 13 0
BBX 13 13 0 -2
BITMAP
0700
0610
FFF8
0600
0620
7FF0
0000
3FE0
2040
2040
2040
3FC0
2040
ENDCHAR
STARTCHAR 540A
ENCODING 21514
SWIDTH 1040 0
DWIDTH 13 0
BBX 10 13 2 -2
BITMAP
4100
7F80
4100
4100
7F00
9880
FFC0
9880
9880
9880
9B80
9900
1800
ENDCHAR
STARTCHAR 540B
ENCODING 21515
SWIDTH 1040 0
DWIDTH 13 0
BBX 13 13 0 -2
BITMAP
0060
9040
F050
9FF8
9040
9640
9740
F340
9340
9040
0040
03C0
0080
ENDCHAR
STARTCHAR 540C
ENCODING 21516
SWIDTH 1040 0
DWIDTH 13 0
BBX 12 13 1 -2
BITMAP
8020
FFF0
8020
BFA0
8020
9FA0
9120
9120
9120
9F20
9120
80E0
8040
ENDCHAR
STARTCHAR 540D
ENCODING 21517
SWIDTH 1040 0
DWIDTH 13 0
BBX 12 13 0 -2
BITMAP
0700
0640
0FE0
1040
6880
0700
0820
3FF0
F020
D020
1020
1FE0
1020
ENDCHAR
STARTCHAR 540E
ENCODING 21518
SWIDTH 1040 0
DWIDTH 13 0
BBX 13 13 0 -2
BITMAP
0040
23E0
3E00
2010
3FF8
2000
2820
2FF0
6820
4820
4820
8FE0
0820
ENDCHAR
STARTCHAR 540F
ENCODING 21519
SWIDTH 1040 0
DWIDTH 13 0
BBX 13 13 0 -2
BITMAP
0700
0610
FFF8
0600
3FE0
2620
3FE0
1620
1620
0E00
0B00
30F8
C010
ENDCHAR
STARTCHAR 5410
ENCODING 21520
SWIDTH 1040 0
DWIDTH 13 0
BBX 13 12 0 -1
BITMAP
00C0
9080
F880
90A0
9FF0
9080
9080
F080
9080
9080
0090
1FF8
ENDCHAR
STARTCHAR 5411
ENCODING 21521
SWIDTH 1040 0
DWIDTH 13 0
BBX 12 13 1 -2
BITMAP
1C00
9020
FFF0
8020
9F20
9120
9120
9F20
9120
9120
8020
80E0
8040
ENDCHAR
STARTCHAR 541B
ENCODING 21531
SWIDTH 1040 0
DWIDTH 13 0
BBX 13 13 0 -2
BITMAP
0040
3FE0
0650
FFF8
0640
3FC0
0820
1FF0
1020
3020
D020
1FE0
1020
ENDCHAR
STARTCHAR 541D
ENCODING 21533
SWIDTH 1040 0
DWIDTH 13 0
BBX 13 13 0 -2
BITMAP
0700
0610
FFF8
1040
0880
0F80
1040
3FF8
F050
D050
1040
1FC0
1040
ENDCHAR
STARTCHAR 541F
ENCODING 21535
SWIDTH 1040 0
DWIDTH 13 0
BBX 13 13 0 -2
BITMAP
0300
A380
F640
A620
AFF8
B010
AFE0
E040
A040
A040
0080
0080
0300
ENDCHAR
STARTCHAR 5420
ENCODING 21536
SWIDTH 1040 0
DWIDTH 13 0
BBX 13 13 0 -2
BITMAP
0380
A340
F360
A310
BFF8
A300
A680
E680
A6C0
A640
0820
0838
3010
ENDCHAR
STARTCHAR 5426
ENCODING 21542
SWIDTH 1040 0
DWIDTH 13 0
BBX 13 13 0 -2
BITMAP
0010
FFF8
0E00
16C0
2630
C618
2640
3FE0
2040
2040
2040
3FC0
2040
ENDCHAR
STARTCHAR 5429
ENCODING 21545
SWIDTH 1040 0
DWIDTH 13 0
BBX 13 13 0 -2
BITMAP
0340
A340
F620
A620
A818
BFF0
A320
E320
A220
A620
0640
0BC0
3080
ENDCHAR
STARTCHAR 542B
ENCODING 21547
SWIDTH 1040 0
DWIDTH 13 0
BBX 13 13 0 -2
BITMAP
0600
0700
0880
1740
2038
DFD0
0080
1340
1360
1FE0
1040
1FC0
1040
ENDCHAR
STARTCHAR 542C
ENCODING 21548
SWIDTH 1040 0
DWIDTH 13 0
BBX 13 13 0 -2
BITMAP
0020
9370
FB80
9310
93F8
9320
9320
F320
9720
9620
0620
1820
0020
ENDCHAR
STARTCHAR 542D
ENCODING 21549
SWIDTH 1040 0
DWIDTH 13 0
BBX 13 13 0 -2
BITMAP
00C0
A090
FFF8
A000
A640
A7E0
A640
E640
A640
A640
0850
0850
3038
ENDCHAR
STARTCHAR 542E
ENCODING 21550
SWIDTH 1040 0
DWIDTH 13 0
BBX 13 13 0 -2
BITMAP
0380
A300
F640
A620
BFF0
AB50
A340
E340
A240
A640
0650
0850
3038
ENDCHAR
STARTCHAR 5436
ENCODING 21558
SWIDTH 1040 0
DWIDTH 13 0
BBX 13 13 0 -2
BITMAP
0380
A890
EFF8
A890
A890
AB50
AB50
EE30
A830
A810
0810
0870
0820
ENDCHAR
STARTCHAR 5438
ENCODING 21560
SWIDTH 1040 0
DWIDTH 13 0
BBX 13 13 0 -2
BITMAP
0040
1FE0
A640
F680
A6A0
A7F0
A6A0
E8A0
A8C0
A840
10A0
2738
1810
ENDCHAR
STARTCHAR 5439
ENCODING 21561
SWIDTH 1040 0
DWIDTH 13 0
BBX 13 13 0 -2
BITMAP
0700
A610
F7F8
AE10
ABA0
B340
A300
E680
A680
A680
0840
0838
3010
ENDCHAR
STARTCHAR 543B
ENCODING 21563
SWIDTH 1040 0
DWIDTH 13 0
BBX 13 13 0 -2
BITMAP
0700
A610
EFF8
AB50
B350
A650
A690
E890
B390
9310
0620
08E0
0040
ENDCHAR
STARTCHAR 543C
ENCODING 21564
SWIDTH 1040 0
DWIDTH 13 0
BBX 13 13 0 -2
BITMAP
0360
BFC0
E340
A640
A640
A7C0
BE40
E640
A640
A640
0650
1E50
0838
ENDCHAR
STARTCHAR 543D
ENCODING 21565
SWIDTH 1040 0
DWIDTH 13 0
BBX 13 13 0 -2
BITMAP
00C0
AE80
E8A0
AFF0
A880
B090
BFF8
E080
A080
A080
0080
0080
0080
ENDCHAR
STARTCHAR 543E
ENCODING 21566
SWIDTH 1040 0
DWIDTH 13 0
BBX 13 13 0 -2
BITMAP
0020
7FF0
0600
3FE0
0840
0850
FFF8
0000
1FE0
1FE0
1040
1FC0
1040
ENDCHAR
STARTCHAR 5440
ENCODING 21568
SWIDTH 1040 0
DWIDTH 13 0
BBX 13 13 0 -2
BITMAP
0020
AFF0
F640
A640
A650
AFF8
A8C0
E340
A740
A640
0840
33C0
0080
ENDCHAR
STARTCHAR 5442
ENCODING 21570
SWIDTH 1040 0
DWIDTH 13 0
BBX 10 13 2 -2
BITMAP
4100
7F80
4100
4100
7F00
5900
A080
FFC0
8080
8080
8080
FF80
8080
ENDCHAR
STARTCHAR 5446
ENCODING 21574
SWIDTH 1040 0
DWIDTH 13 0
BBX 13 13 0 -2
BITMAP
1040
1FE0
1040
1040
1FC0
0610
FFF8
0E80
16C0
1640
2638
C610
0600
ENDCHAR
STARTCHAR 5448
ENCODING 21576
SWIDTH 1040 0
DWIDTH 13 0
BBX 13 12 0 -1
BITMAP
1040
1FE0
1040
1040
1FC0
0020
7FF0
0600
07E0
3FE0
0610
FFF8
ENDCHAR
STARTCHAR 5449
ENCODING 21577
SWIDTH 1040 0
DWIDTH 13 0
BBX 13 13 0 -2
BITMAP
0840
2FE0
2840
2FC0
2020
3FF0
2020
0020
0038
FFF8
0800
1870
E018
ENDCHAR
STARTCHAR 544A
ENCODING 21578
SWIDTH 1040 0
DWIDTH 13 0
BBX 13 13 0 -2
BITMAP
3700
2620
3FF0
4600
8610
FFF8
0000
1FE0
1040
1040
1040
1FC0
1040
ENDCHAR
STARTCHAR 544E
ENCODING 21582
SWIDTH 1040 0
DWIDTH 13 0
BBX 13 13 0 -2
BITMAP
0820
AFF0
E820
A820
AFE0
A8A0
A880
E840
A840
A840
1020
1038
2010
ENDCHAR
STARTCHAR 5451
ENCODING 21585
SWIDTH 1040 0
DWIDTH 13 0
BBX 13 13 0 -2
BITMAP
0040
03E0
7F00
0610
FFF8
0880
1040
3FF8
F050
D050
1040
1FC0
1040
ENDCHAR
STARTCHAR 545F
ENCODING 21599
SWIDTH 1040 0
DWIDTH 13 0
BBX 13 13 0 -2
BITMAP
00C0
A090
FFF8
A380
A360
AE40
A680
E300
A340
A340
0620
1FF0
0810
ENDCHAR
STARTCHAR 5468
ENCODING 21608
SWIDTH 1040 0
DWIDTH 13 0
BBX 12 13 0 -2
BITMAP
2020
3FF0
2620
2FA0
2620
3FE0
2020
2FA0
28A0
28A0
4FA0
48E0
8040
ENDCHAR
STARTCHAR 546A
ENCODING 21610
SWIDTH 1040 0
DWIDTH 13 0
BBX 13 13 0 -2
BITMAP
0620
97F0
F620
9620
9620
97E0
F340
9340
9740
0640
0650
0850
3038
ENDCHAR
STARTCHAR 5470
ENCODING 21616
SWIDTH 1040 0
DWIDTH 13 0
BBX 13 13 0 -2
BITMAP
18C0
50B0
5FE0
5090
5790
F878
4000
1FE0
1040
1040
1040
1FC0
1040
ENDCHAR
STARTCHAR 5471
ENCODING 21617
SWIDTH 1040 0
DWIDTH 13 0
BBX 13 13 0 -2
BITMAP
0020
A870
EFC0
AB40
AB40
AB40
AB40
EB20
ABA0
ABA0
1350
1FD8
2868
ENDCHAR
STARTCHAR 5473
ENCODING 21619
SWIDTH 1040 0
DWIDTH 13 0
BBX 13 13 0 -2
BITMAP
00C0
A0A0
EFF0
A080
A090
BFF8
A3C0
E6A0
A6A0
A6A0
08B8
3090
0080
ENDCHAR
STARTCHAR 5475
ENCODING 21621
SWIDTH 1040 0
DWIDTH 13 0
BBX 13 13 0 -2
BITMAP
0010
BFF8
E020
A8A0
AFA0
A8A0
A8A0
EFA0
A8A0
A8A0
0020
00E0
0040
ENDCHAR
STARTCHAR 5476
ENCODING 21622
SWIDTH 1040 0
DWIDTH 13 0
BBX 13 13 0 -2
BITMAP
0700
A610
E6F8
BF50
AB50
AB50
B350
EE20
AE20
A620
0B50
1358
2390
ENDCHAR
STARTCHAR 5477
ENCODING 21623
SWIDTH 1040 0
DWIDTH 13 0
BBX 13 13 0 -2
BITMAP
0810
AFF8
E890
A890
AFF0
A890
A890
EFF0
A890
A890
0080
0080
0080
ENDCHAR
STARTCHAR 547B
ENCODING 21627
SWIDTH 1040 0
DWIDTH 13 0
BBX 13 13 0 -2
BITMAP
00C0
A890
EFF8
A890
A890
AFF0
A890
E890
A890
AFF0
0890
0080
0080
ENDCHAR
STARTCHAR 547C
ENCODING 21628
SWIDTH 1040 0
DWIDTH 13 0
BBX 13 13 0 -2
BITMAP
0020
A0F0
FF90
A8A0
A6A0
A690
BFF8
E080
A080
A080
0080
0780
0300
ENDCHAR
STARTCHAR 547D
ENCODING 21629
SWIDTH 1040 0
DWIDTH 13 0
BBX 13 13 0 -2
BITMAP
0600
0700
0880
1FC0
2038
FBF0
2B20
2B20
2B20
2B20
3B60
2B40
0300
ENDCHAR
STARTCHAR 5480
ENCODING 21632
SWIDTH 1040 0
DWIDTH 13 0
BBX 12 12 1 -1
BITMAP
0640
A7E0
F640
A640
A7C0
A640
A640
E7C0
A640
A640
0640
3FF0
ENDCHAR
STARTCHAR 5484
ENCODING 21636
SWIDTH 1040 0
DWIDTH 13 0
BBX 13 13 0 -2
BITMAP
00C0
A080
F7B0
A6A0
A6A0
A7E0
AE98
E890
A890
A890
0890
0FF0
0810
ENDCHAR
STARTCHAR 5486
ENCODING 21638
SWIDTH 1040 0
DWIDTH 13 0
BBX 13 13 0 -2
BITMAP
0700
A620
F7F0
A820
AFA0
B8A0
A8A0
EFA0
A8E0
A8C0
0890
0810
07F8
ENDCHAR
STARTCHAR 548B
ENCODING 21643
SWIDTH 1040 0
DWIDTH 13 0
BBX 13 13 0 -2
BITMAP
0380
9310
FBF8
9680
96A0
98F0
9080
F090
9098
90F8
0080
0080
0080
ENDCHAR
STARTCHAR 548C
ENCODING 21644
SWIDTH 1040 0
DWIDTH 13 0
BBX 13 13 0 -2
BITMAP
0800
1E10
F3F8
1310
FF10
1310
3B10
5710
5710
5310
93F0
1310
1000
ENDCHAR
STARTCHAR 548E
ENCODING 21646
SWIDTH 1040 0
DWIDTH 13 0
BBX 13 13 0 -2
BITMAP
3060
2840
7E40
48A0
B310
1E10
27F8
D000
DFE0
1FE0
1040
1FC0
1040
ENDCHAR
STARTCHAR 548F
ENCODING 21647
SWIDTH 1040 0
DWIDTH 13 0
BBX 13 13 0 -2
BITMAP
03C0
A060
F780
A0B0
A6A0
BFC0
A6A0
E6A0
A8A0
A8A0
1098
2790
0300
ENDCHAR
STARTCHAR 5490
ENCODING 21648
SWIDTH 1040 0
DWIDTH 13 0
BBX 13 13 0 -2
BITMAP
0730
A620
F620
AFF8
AB20
BB20
A8A0
E8A0
A8A0
A820
0820
08E0
0840
ENDCHAR
STARTCHAR 5492
ENCODING 21650
SWIDTH 1040 0
DWIDTH 13 0
BBX 13 13 0 -2
BITMAP
4890
7EF8
4890
4890
78F0
4010
1FC0
1080
1080
1080
1090
2090
C078
ENDCHAR
STARTCHAR 54A2
ENCODING 21666
SWIDTH 1040 0
DWIDTH 13 0
BBX 13 13 0 -2
BITMAP
4B20
7BF0
4B20
7BE0
0010
FFF8
0800
1FC0
1040
1040
0080
0780
0300
ENDCHAR
STARTCHAR 54A4
ENCODING 21668
SWIDTH 1040 0
DWIDTH 13 0
BBX 13 13 0 -2
BITMAP
00C0
A890
EFF8
A850
B7C0
A320
AFF0
E300
A300
A300
0310
0310
00F8
ENDCHAR
STARTCHAR 54A5
ENCODING 21669
SWIDTH 1040 0
DWIDTH 13 0
BBX 13 12 0 -1
BITMAP
0010
BFF8
E340
A620
AFF0
A690
A0A0
EFF0
AF80
A080
0090
1FF8
ENDCHAR
STARTCHAR 54A8
ENCODING 21672
SWIDTH 1040 0
DWIDTH 13 0
BBX 13 13 0 -2
BITMAP
0380
1310
F7F8
0890
3340
C640
9838
2010
3FF0
3FE0
2040
3FC0
2040
ENDCHAR
STARTCHAR 54AB
ENCODING 21675
SWIDTH 1040 0
DWIDTH 13 0
BBX 13 13 0 -2
BITMAP
2690
3EF8
2690
2690
2690
3EF0
28A0
2890
2F98
2718
4600
4300
80F8
ENDCHAR
STARTCHAR 54AC
ENCODING 21676
SWIDTH 1040 0
DWIDTH 13 0
BBX 13 13 0 -2
BITMAP
00C0
A090
FFF8
A340
A630
BB58
A340
E080
A080
A080
0340
0638
1810
ENDCHAR
STARTCHAR 54AF
ENCODING 21679
SWIDTH 1040 0
DWIDTH 13 0
BBX 13 13 0 -2
BITMAP
0380
A320
F3F0
A720
BB40
A0C0
A720
FFF8
A620
A620
0620
07E0
0620
ENDCHAR
STARTCHAR 54B2
ENCODING 21682
SWIDTH 1040 0
DWIDTH 13 0
BBX 13 13 0 -2
BITMAP
0830
A720
F340
AFF0
A080
A090
BFF8
E080
A140
A340
0340
0638
1810
ENDCHAR
STARTCHAR 54B3
ENCODING 21683
SWIDTH 1040 0
DWIDTH 13 0
BBX 13 13 0 -2
BITMAP
00C0
9090
FFF8
9080
9760
9340
90B0
F320
9260
9640
08A0
0310
0E18
ENDCHAR
STARTCHAR 54B8
ENCODING 21688
SWIDTH 1040 0
DWIDTH 13 0
BBX 13 13 0 -2
BITMAP
00E0
2090
3FF8
2080
3FB0
20A0
2FA0
2B40
6B40
4F40
48A8
8330
0E18
ENDCHAR
STARTCHAR 54BC
ENCODING 21692
SWIDTH 1040 0
DWIDTH 13 0
BBX 12 13 1 -2
BITMAP
2080
3FC0
2080
2F80
ACA0
FFF0
8020
BFA0
A0A0
A0A0
BFA0
A0E0
8040
ENDCHAR
STARTCHAR 54BD
ENCODING 21693
SWIDTH 1040 0
DWIDTH 13 0
BBX 13 13 0 -2
BITMAP
0810
AFF8
E890
A890
AFF0
A890
AB50
EB50
AA50
AE30
0810
0FF0
0810
ENDCHAR
STARTCHAR 54BE
ENCODING 21694
SWIDTH 1040 0
DWIDTH 13 0
BBX 13 13 0 -2
BITMAP
0380
A320
EFE0
A320
A350
BFF8
A300
E760
8B40
8BC0
3320
0320
00F0
ENDCHAR
STARTCHAR 54C0
ENCODING 21696
SWIDTH 1040 0
DWIDTH 13 0
BBX 13 13 0 -2
BITMAP
0610
FFF8
0000
1FE0
1040
1040
1FC0
0B30
3BA0
30A0
D740
3838
2010
ENDCHAR
STARTCHAR 54C1
ENCODING 21697
SWIDTH 1040 0
DWIDTH 13 0
BBX 13 13 0 -2
BITMAP
1040
1FE0
1040
1040
1FC0
1040
8B10
FBF8
8B10
8B10
8B10
FBF0
8B10
ENDCHAR
STARTCHAR 54C2
ENCODING 21698
SWIDTH 1040 0
DWIDTH 13 0
BBX 13 13 0 -2
BITMAP
0010
BFF8
E340
AB50
AFF8
AB50
AB50
EB70
AA70
AE10
0810
0FF0
0810
ENDCHAR
STARTCHAR 54C4
ENCODING 21700
SWIDTH 1040 0
DWIDTH 13 0
BBX 13 13 0 -2
BITMAP
0760
A640
F650
AFF0
A640
A640
A650
FFF8
A040
A040
0E20
0810
3018
ENDCHAR
STARTCHAR 54C7
ENCODING 21703
SWIDTH 1040 0
DWIDTH 13 0
BBX 13 12 0 -1
BITMAP
00C0
A080
F7E0
A080
AFF0
A080
A0A0
EFF0
AF80
A080
0090
1FF8
ENDCHAR
STARTCHAR 54C8
ENCODING 21704
SWIDTH 1040 0
DWIDTH 13 0
BBX 13 13 0 -2
BITMAP
0080
A380
F340
A340
A620
AFF8
B010
E7E0
A620
A620
0620
07E0
0620
ENDCHAR
STARTCHAR 54C9
ENCODING 21705
SWIDTH 1040 0
DWIDTH 13 0
BBX 13 13 0 -2
BITMAP
18C0
16A0
7EB0
1080
FFF8
0080
7EB0
48A0
48E0
4840
7848
43B0
1E18
ENDCHAR
STARTCHAR 54D8
ENCODING 21720
SWIDTH 1040 0
DWIDTH 13 0
BBX 13 13 0 -2
BITMAP
0720
A6F0
E800
B710
A6F8
AE20
B620
E620
A620
A620
0620
06E0
0640
ENDCHAR
STARTCHAR 54E1
ENCODING 21729
SWIDTH 1040 0
DWIDTH 13 0
BBX 12 13 0 -2
BITMAP
1080
1FC0
1080
3FE0
2040
3FC0
2040
3FC0
2040
2040
3FC0
1060
F030
ENDCHAR
STARTCHAR 54E2
ENCODING 21730
SWIDTH 1040 0
DWIDTH 13 0
BBX 13 13 0 -2
BITMAP
0010
AFF8
F080
A7F0
A080
AFF8
A320
E320
A338
BFF8
0320
0620
1820
ENDCHAR
STARTCHAR 54E5
ENCODING 21733
SWIDTH 1040 0
DWIDTH 13 0
BBX 13 13 0 -2
BITMAP
0020
7FF0
1320
1F20
1360
0050
FFF8
0020
3F20
3F20
2320
3FE0
2340
ENDCHAR
STARTCHAR 54E6
ENCODING 21734
SWIDTH 1040 0
DWIDTH 13 0
BBX 13 13 0 -2
BITMAP
0360
A750
FE50
A640
BFF8
A640
A6D8
EF50
B668
B628
0650
1E98
0B08
ENDCHAR
STARTCHAR 54E8
ENCODING 21736
SWIDTH 1040 0
DWIDTH 13 0
BBX 13 13 0 -2
BITMAP
10D0
A898
EE90
A0A0
AFF0
A820
AFE0
E820
A820
AFE0
0820
08E0
0840
ENDCHAR
STARTCHAR 54E9
ENCODING 21737
SWIDTH 1040 0
DWIDTH 13 0
BBX 13 12 0 -1
BITMAP
0620
A7F0
F6A0
A7E0
A6A0
A7E0
A6A0
E080
A0F0
AFF0
0080
1FF8
ENDCHAR
STARTCHAR 54ED
ENCODING 21741
SWIDTH 1040 0
DWIDTH 13 0
BBX 13 13 0 -2
BITMAP
4890
7EF8
4890
78F0
4750
0620
FFF8
0600
0B00
0B00
10C0
2038
C010
ENDCHAR
STARTCHAR 54EE
ENCODING 21742
SWIDTH 1040 0
DWIDTH 13 0
BBX 13 13 0 -2
BITMAP
0380
A320
EFE0
A350
BFF8
A300
A7E0
E850
A858
BFF8
2080
0780
0300
ENDCHAR
STARTCHAR 54F2
ENCODING 21746
SWIDTH 1040 0
DWIDTH 13 0
BBX 13 13 0 -2
BITMAP
1B30
13E0
FF10
13F8
3B20
D320
9620
3FE0
3040
1040
1040
1FC0
1040
ENDCHAR
STARTCHAR 54FA
ENCODING 21754
SWIDTH 1040 0
DWIDTH 13 0
BBX 13 13 0 -2
BITMAP
03C0
A320
FFF8
A300
AFF0
AB20
AFE0
EB20
AB20
AFE0
0B20
0B60
0B40
ENDCHAR
STARTCHAR 54FD
ENCODING 21757
SWIDTH 1040 0
DWIDTH 13 0
BBX 13 13 0 -2
BITMAP
0010
BFF8
E080
AFF0
A8A0
AFE0
A8A0
EFE0
AEA0
A6A0
0380
0678
3810
ENDCHAR
STARTCHAR 5504
ENCODING 21764
SWIDTH 1040 0
DWIDTH 13 0
BBX 13 13 0 -2
BITMAP
0620
97F0
F620
97E0
9620
97E0
9620
F620
9620
97E0
0300
0730
1818
ENDCHAR
STARTCHAR 5506
ENCODING 21766
SWIDTH 1040 0
DWIDTH 13 0
BBX 13 13 0 -2
BITMAP
03A0
A310
EFF8
AB48
A340
AE38
A300
E3E0
A340
A740
1880
0778
1810
ENDCHAR
STARTCHAR 5507
ENCODING 21767
SWIDTH 1040 0
DWIDTH 13 0
BBX 13 13 0 -2
BITMAP
2020
3FF0
2000
3FF8
2B10
28A0
4B78
7FD0
F050
9040
1040
1FC0
1040
ENDCHAR
STARTCHAR 550F
ENCODING 21775
SWIDTH 1040 0
DWIDTH 13 0
BBX 13 13 0 -2
BITMAP
0030
AE20
F3C0
AEA0
A090
BFF8
A680
EFF0
B690
B690
06B0
06A0
0080
ENDCHAR
STARTCHAR 5510
ENCODING 21776
SWIDTH 1040 0
DWIDTH 13 0
BBX 13 13 0 -2
BITMAP
0380
2310
3FF8
2300
2FF0
2320
3FF8
2320
6330
4FF0
4820
8FE0
0820
ENDCHAR
STARTCHAR 5514
ENCODING 21780
SWIDTH 1040 0
DWIDTH 13 0
BBX 13 13 0 -2
BITMAP
0020
BFF0
E300
AFE0
A620
BFF8
A000
E7F0
A620
A620
0620
07E0
0620
ENDCHAR
STARTCHAR 5516
ENCODING 21782
SWIDTH 1040 0
DWIDTH 13 0
BBX 13 12 0 -1
BITMAP
0010
1FF8
A340
EB50
AFF0
AB50
AB50
EFF0
AB50
AB50
0340
1FF8
ENDCHAR
STARTCHAR 552E
ENCODING 21806
SWIDTH 1040 0
DWIDTH 13 0
BBX 13 13 0 -2
BITMAP
1B80
1320
3FF0
6300
BFE0
2310
3FF8
2000
3FE0
1FE0
1040
1FC0
1040
ENDCHAR
STARTCHAR 552F
ENCODING 21807
SWIDTH 1040 0
DWIDTH 13 0
BBX 12 13 1 -2
BITMAP
0700
A6C0
ECA0
AFF0
BC80
AFE0
AC80
EFE0
AC80
AC80
0CA0
0FF0
0C00
ENDCHAR
STARTCHAR 5531
ENCODING 21809
SWIDTH 1040 0
DWIDTH 13 0
BBX 13 13 0 -2
BITMAP
07F0
A620
F7E0
A620
A7E0
A810
AFF8
E810
A810
AFF0
0810
0FF0
0810
ENDCHAR
STARTCHAR 5533
ENCODING 21811
SWIDTH 1040 0
DWIDTH 13 0
BBX 13 13 0 -2
BITMAP
0010
BFF8
E000
AFF0
A820
AFE0
A890
EFF8
B080
9080
1340
2638
1810
ENDCHAR
STARTCHAR 5538
ENCODING 21816
SWIDTH 1040 0
DWIDTH 13 0
BBX 13 13 0 -2
BITMAP
0300
A380
F640
AFF8
B010
AFE0
A040
E680
A710
A710
16D8
3648
23E0
ENDCHAR
STARTCHAR 5539
ENCODING 21817
SWIDTH 1040 0
DWIDTH 13 0
BBX 13 13 0 -2
BITMAP
0720
A620
FFE0
A850
AB58
AF90
AB60
EB30
AB70
AB40
1320
1730
2610
ENDCHAR
STARTCHAR 553E
ENCODING 21822
SWIDTH 1040 0
DWIDTH 13 0
BBX 13 12 0 -1
BITMAP
0060
AFC0
F0A0
AFF0
A6A0
BFF8
A6A0
E6A0
A6B0
AFF0
0080
1FF8
ENDCHAR
STARTCHAR 5540
ENCODING 21824
SWIDTH 1040 0
DWIDTH 13 0
BBX 13 12 0 -1
BITMAP
0810
AFF8
E880
ABE0
A880
AFF0
E880
AFF0
B080
1080
1090
2FF8
ENDCHAR
STARTCHAR 5544
ENCODING 21828
SWIDTH 1040 0
DWIDTH 13 0
BBX 13 13 0 -2
BITMAP
0010
BFF8
E080
A720
BB30
A6A0
B8C0
E3A0
A7A0
A6A0
18B8
0790
0300
ENDCHAR
STARTCHAR 5545
ENCODING 21829
SWIDTH 1040 0
DWIDTH 13 0
BBX 13 13 0 -2
BITMAP
00A0
A0F0
F680
A7F0
A620
A7E0
A620
E7E0
A790
A090
1FF8
0080
0080
ENDCHAR
STARTCHAR 5546
ENCODING 21830
SWIDTH 1040 0
DWIDTH 13 0
BBX 13 13 0 -2
BITMAP
0700
0610
FFF8
1080
4B20
7FF0
4B20
5FE0
6B20
6B20
4F20
4BE0
4040
ENDCHAR
STARTCHAR 554C
ENCODING 21836
SWIDTH 1040 0
DWIDTH 13 0
BBX 13 12 0 -1
BITMAP
00C0
A890
EFF8
BB50
A340
AE78
A000
E7E0
A780
A080
0090
1FF8
ENDCHAR
STARTCHAR 554F
ENCODING 21839
SWIDTH 1040 0
DWIDTH 13 0
BBX 12 13 1 -2
BITMAP
9620
F7F0
9620
F7E0
9620
F7E0
8020
9F20
9120
9120
9F20
9160
8040
ENDCHAR
STARTCHAR 5553
ENCODING 21843
SWIDTH 1040 0
DWIDTH 13 0
BBX 13 13 0 -2
BITMAP
08C0
FE90
00F8
7FA0
46A0
7E60
4698
5350
D370
9FE0
1040
1FC0
1040
ENDCHAR
STARTCHAR 5556
ENCODING 21846
SWIDTH 1040 0
DWIDTH 13 0
BBX 13 13 0 -2
BITMAP
00C0
A6B0
EEA0
A340
A320
AEB0
A080
E6B0
A6A0
AEA0
0340
0638
1810
ENDCHAR
STARTCHAR 5557
ENCODING 21847
SWIDTH 1040 0
DWIDTH 13 0
BBX 13 13 0 -2
BITMAP
0380
A320
F7F0
A620
A6E0
BB90
AE78
E810
AF10
AF70
0810
0FF0
0810
ENDCHAR
STARTCHAR 555C
ENCODING 21852
SWIDTH 1040 0
DWIDTH 13 0
BBX 13 13 0 -2
BITMAP
0310
BFF8
EB50
A620
AB50
AB90
BF78
EB90
AA50
A650
0620
0B78
3390
ENDCHAR
STARTCHAR 555D
ENCODING 21853
SWIDTH 1040 0
DWIDTH 13 0
BBX 13 13 0 -2
BITMAP
0300
A790
FE78
A650
BFD0
A650
EF50
AEF0
B690
1690
1640
2630
0600
ENDCHAR
STARTCHAR 5563
ENCODING 21859
SWIDTH 1040 0
DWIDTH 13 0
BBX 13 13 0 -2
BITMAP
0700
A650
EFF8
AB50
B350
AFD0
AB50
EBD0
8B50
8B70
0BD0
1E40
1040
ENDCHAR
STARTCHAR 557B
ENCODING 21883
SWIDTH 1040 0
DWIDTH 13 0
BBX 13 13 0 -2
BITMAP
0620
7FF0
1080
7FF8
C610
3FE0
2620
2660
2640
1FC0
1040
1FC0
1040
ENDCHAR
STARTCHAR 557C
ENCODING 21884
SWIDTH 1040 0
DWIDTH 13 0
BBX 13 13 0 -2
BITMAP
00C0
A0A0
EFF0
A340
AFF8
A890
B7F0
E6A0
A6A0
A6A0
06E0
06A0
0080
ENDCHAR
STARTCHAR 557E
ENCODING 21886
SWIDTH 1040 0
DWIDTH 13 0
BBX 13 13 0 -2
BITMAP
0360
A740
FE58
A650
BFD0
A6E0
AF40
EEC0
9EA0
96A0
26B0
0698
0710
ENDCHAR
STARTCHAR 5580
ENCODING 21888
SWIDTH 1040 0
DWIDTH 13 0
BBX 13 13 0 -2
BITMAP
00C0
A890
EFF8
BB10
A7E0
BB40
A080
E7E0
A638
BE38
0620
07E0
0620
ENDCHAR
STARTCHAR 5583
ENCODING 21891
SWIDTH 1040 0
DWIDTH 13 0
BBX 13 13 0 -2
BITMAP
00C0
A090
FFF8
A080
AFF8
AB50
A890
EFF0
A890
A890
0FF0
0890
08B0
ENDCHAR
STARTCHAR 5584
ENCODING 21892
SWIDTH 1040 0
DWIDTH 13 0
BBX 13 13 0 -2
BITMAP
18C0
08A0
7FF0
0600
3FE0
1650
FFF8
0000
1FE0
1FE0
1040
1FC0
1040
ENDCHAR
STARTCHAR 5587
ENCODING 21895
SWIDTH 1040 0
DWIDTH 13 0
BBX 13 13 0 -2
BITMAP
0398
A350
FFD0
A350
AFD0
AB50
AFD0
EB50
AB90
A790
0B50
0B70
1320
ENDCHAR
STARTCHAR 5589
ENCODING 21897
SWIDTH 1040 0
DWIDTH 13 0
BBX 13 13 0 -2
BITMAP
0720
A6F0
F620
AFF8
AB00
BBF0
AE40
EFF8
A840
A840
08A0
0B38
0E10
ENDCHAR
STARTCHAR 558A
ENCODING 21898
SWIDTH 1040 0
DWIDTH 13 0
BBX 13 13 0 -2
BITMAP
0060
A850
EFF8
A840
AFD8
A850
AFA0
E8A0
A8A8
9FA8
1050
2398
0E08
ENDCHAR
STARTCHAR 558B
ENCODING 21899
SWIDTH 1040 0
DWIDTH 13 0
BBX 13 13 0 -2
BITMAP
07E0
A6A0
FFF8
A6A0
A6E0
A610
A7F0
E300
A3F8
BFF8
0740
0B38
3310
ENDCHAR
STARTCHAR 5598
ENCODING 21912
SWIDTH 1040 0
DWIDTH 13 0
BBX 13 13 0 -2
BITMAP
00C0
AE98
E890
AFF0
A010
BFF8
A300
EFF8
AB50
AB50
0B50
0B50
0B70
ENDCHAR
STARTCHAR 5599
ENCODING 21913
SWIDTH 1040 0
DWIDTH 13 0
BBX 13 13 0 -2
BITMAP
0300
A3E0
F640
AFF8
A080
A3B0
AEA0
E340
A260
AEE0
0358
1ED0
0080
ENDCHAR
STARTCHAR 559A
ENCODING 21914
SWIDTH 1040 0
DWIDTH 13 0
BBX 13 13 0 -2
BITMAP
0300
07E0
A650
FFF8
AB50
AF70
AB90
E890
A898
BFF8
0340
0638
1810
ENDCHAR
STARTCHAR 559C
ENCODING 21916
SWIDTH 1040 0
DWIDTH 13 0
BBX 13 13 0 -2
BITMAP
0620
7FF0
0600
3FE0
1040
1FC0
0880
0B10
0B18
FFF8
1040
1FC0
1040
ENDCHAR
STARTCHAR 559D
ENCODING 21917
SWIDTH 1040 0
DWIDTH 13 0
BBX 13 13 0 -2
BITMAP
0620
97E0
F620
97E0
9620
97E0
9310
F7F8
9890
9890
0B50
07F0
0020
ENDCHAR
STARTCHAR 559E
ENCODING 21918
SWIDTH 1040 0
DWIDTH 13 0
BBX 13 13 0 -2
BITMAP
0600
AF50
EB78
AF50
AB50
AF50
A850
EF50
A850
A870
0F50
0840
0840
ENDCHAR
STARTCHAR 559F
ENCODING 21919
SWIDTH 1040 0
DWIDTH 13 0
BBX 13 13 0 -2
BITMAP
0810
AFF8
E890
AFF0
A890
AFF0
A620
E7E0
A620
A620
07E0
0620
0660
ENDCHAR
STARTCHAR 55A7
ENCODING 21927
SWIDTH 1040 0
DWIDTH 13 0
BBX 13 12 0 -1
BITMAP
0380
AB10
EFF8
B810
A7E0
A620
A7E0
E620
A620
A7E0
0010
1FF8
ENDCHAR
STARTCHAR 55A8
ENCODING 21928
SWIDTH 1040 0
DWIDTH 13 0
BBX 13 13 0 -2
BITMAP
00C0
A090
EFF8
A320
A3E0
A810
AFF8
F810
A370
A360
0350
0650
1838
ENDCHAR
STARTCHAR 55A9
ENCODING 21929
SWIDTH 1040 0
DWIDTH 13 0
BBX 13 13 0 -2
BITMAP
0300
A380
F640
ABB8
B010
AF50
AB50
EFA0
ABA0
ABA0
0F50
0B50
0B50
ENDCHAR
STARTCHAR 55AA
ENCODING 21930
SWIDTH 1040 0
DWIDTH 13 0
BBX 13 13 0 -2
BITMAP
0700
0620
7FF0
0600
76E0
56A0
FFF8
1310
13A0
10A0
1740
7838
2010
ENDCHAR
STARTCHAR 55AB
ENCODING 21931
SWIDTH 1040 0
DWIDTH 13 0
BBX 13 13 0 -2
BITMAP
0690
BFF8
E650
AF50
A690
A770
BEA0
E090
A098
BFF8
0340
0638
1810
ENDCHAR
STARTCHAR 55AC
ENCODING 21932
SWIDTH 1040 0
DWIDTH 13 0
BBX 13 13 0 -2
BITMAP
00C0
3F80
0610
FFF8
1840
2FB8
C890
3FE0
28A0
28A0
2FA0
28E0
2040
ENDCHAR
STARTCHAR 55AE
ENCODING 21934
SWIDTH 1040 0
DWIDTH 13 0
BBX 13 13 0 -2
BITMAP
4890
7EF8
4890
78F0
4010
3FE0
2640
3FC0
2650
2650
FFF8
0600
0600
ENDCHAR
STARTCHAR 55B0
ENCODING 21936
SWIDTH 1040 0
DWIDTH 13 0
BBX 13 13 0 -2
BITMAP
0080
A0C0
F320
A7F8
BE20
A7E0
A620
E7E0
A6B0
A6B0
06C0
1F38
0810
ENDCHAR
STARTCHAR 55B6
ENCODING 21942
SWIDTH 1040 0
DWIDTH 13 0
BBX 13 13 0 -2
BITMAP
3760
5350
7FF8
C010
1FC0
1040
1FC0
0600
07E0
3FE0
2020
3FE0
2020
ENDCHAR
STARTCHAR 55C4
ENCODING 21956
SWIDTH 1040 0
DWIDTH 13 0
BBX 13 13 0 -2
BITMAP
0010
BFF8
E300
A7F0
A620
A7E0
A620
E7E0
A640
A640
1B80
0778
3810
ENDCHAR
STARTCHAR 55C5
ENCODING 21957
SWIDTH 1040 0
DWIDTH 13 0
BBX 13 13 0 -2
BITMAP
0380
A320
F7F0
A620
A7E0
A620
A7E0
E090
A098
9FF8
0340
0638
1810
ENDCHAR
STARTCHAR 55C7
ENCODING 21959
SWIDTH 1040 0
DWIDTH 13 0
BBX 13 13 0 -2
BITMAP
0700
0620
7FF0
2640
56A0
FFF8
28A0
28A0
28A0
2FA0
2020
3FE0
2020
ENDCHAR
STARTCHAR 55D4
ENCODING 21972
SWIDTH 1040 0
DWIDTH 13 0
BBX 13 13 0 -2
BITMAP
0620
A7C0
F620
A3F0
AB20
ABE0
AB20
EBE0
AB20
AB20
0FF8
0340
1E38
ENDCHAR
STARTCHAR 55DA
ENCODING 21978
SWIDTH 1040 0
DWIDTH 13 0
BBX 12 13 1 -2
BITMAP
0700
A640
EFE0
AC40
AFC0
AC00
AFE0
EC00
AFF0
AFF0
0D20
16A0
66C0
ENDCHAR
STARTCHAR 55DC
ENCODING 21980
SWIDTH 1040 0
DWIDTH 13 0
BBX 13 13 0 -2
BITMAP
0320
AFE0
E350
BFF8
A320
BFC0
A320
E7F0
A620
A620
07E0
0620
07E0
ENDCHAR
STARTCHAR 55DF
ENCODING 21983
SWIDTH 1040 0
DWIDTH 13 0
BBX 13 12 0 -1
BITMAP
0340
AFF0
F080
AFE0
A090
BFF8
A300
E7F0
8880
8880
3090
0FF8
ENDCHAR
STARTCHAR 55E3
ENCODING 21987
SWIDTH 1040 0
DWIDTH 13 0
BBX 13 13 0 -2
BITMAP
5010
7FF8
5010
77D0
8810
FBD0
AB50
AB50
AB50
FBD0
AB10
A870
9820
ENDCHAR
STARTCHAR 55E4
ENCODING 21988
SWIDTH 1040 0
DWIDTH 13 0
BBX 13 13 0 -2
BITMAP
0ED8
A890
EFF0
A310
BFF8
A080
A7F0
E6A0
A6A0
A7E0
0090
1FF8
0808
ENDCHAR
STARTCHAR 55F7
ENCODING 22007
SWIDTH 1040 0
DWIDTH 13 0
BBX 13 13 0 -2
BITMAP
0660
AF40
E650
BFF8
A650
BFD0
A650
EFA0
A8A0
A8A0
0B50
1758
2690
ENDCHAR
STARTCHAR 55F9
ENCODING 22009
SWIDTH 1040 0
DWIDTH 13 0
BBX 13 13 0 -2
BITMAP
1040
AFF8
E840
B3F0
AB50
A3F0
BB50
EBF0
ABC0
A840
0FF8
1840
17F8
ENDCHAR
STARTCHAR 55FD
ENCODING 22013
SWIDTH 1040 0
DWIDTH 13 0
BBX 13 13 0 -2
BITMAP
0730
A6A0
FFF8
A648
BFB0
A6A0
BFA0
EF20
B750
96D0
1650
2698
0710
ENDCHAR
STARTCHAR 55FE
ENCODING 22014
SWIDTH 1040 0
DWIDTH 13 0
BBX 13 13 0 -2
BITMAP
0760
A650
FFF8
A880
AB20
AFF0
AB40
EBF8
B340
9340
16A0
2EB8
4B10
ENDCHAR
STARTCHAR 5606
ENCODING 22022
SWIDTH 1040 0
DWIDTH 13 0
BBX 13 13 0 -2
BITMAP
0350
AFF8
F340
A7E0
A6A0
AFF0
A080
FFF8
A080
A080
0340
0638
1810
ENDCHAR
STARTCHAR 5609
ENCODING 22025
SWIDTH 1040 0
DWIDTH 13 0
BBX 13 13 0 -2
BITMAP
0620
7FF0
0600
3FE0
1040
1FC0
0890
FFF8
F000
1000
FFF0
1690
EEF0
ENDCHAR
STARTCHAR 5614
ENCODING 22036
SWIDTH 1040 0
DWIDTH 13 0
BBX 13 13 0 -2
BITMAP
0820
AFF0
E800
ABE0
AB20
ABE0
AF70
EB50
AB50
AF70
0810
0FF8
0800
ENDCHAR
STARTCHAR 5616
ENCODING 22038
SWIDTH 1040 0
DWIDTH 13 0
BBX 13 13 0 -2
BITMAP
00A0
AFF0
F080
A7E0
A090
BFF8
A620
E7E0
A620
A620
07E0
0630
1E18
ENDCHAR
STARTCHAR 5617
ENCODING 22039
SWIDTH 1040 0
DWIDTH 13 0
BBX 13 13 0 -2
BITMAP
3760
5350
7FF8
D050
1FC0
4060
7FD0
4010
4018
3FF8
1040
1FC0
1040
ENDCHAR
STARTCHAR 5618
ENCODING 22040
SWIDTH 1040 0
DWIDTH 13 0
BBX 13 12 0 -1
BITMAP
00E0
A890
EFF8
A890
AFE0
A890
EBF0
AB50
BB60
1760
1350
2FF8
ENDCHAR
STARTCHAR 561B
ENCODING 22043
SWIDTH 1040 0
DWIDTH 13 0
BBX 13 13 0 -2
BITMAP
00C0
A890
EFF8
AB20
AB20
AFF8
AB20
EBB0
BBB0
97B0
1BF8
2320
0320
ENDCHAR
STARTCHAR 5629
ENCODING 22057
SWIDTH 1040 0
DWIDTH 13 0
BBX 13 13 0 -2
BITMAP
0350
1FF8
A340
EFF0
A6A0
BFF8
A6A0
EFF0
AF80
A080
0FF0
0080
0080
ENDCHAR
STARTCHAR 562F
ENCODING 22063
SWIDTH 1040 0
DWIDTH 13 0
BBX 13 13 0 -2
BITMAP
0080
AFF0
E0A0
AFF8
A0A0
AFF8
AEB0
E890
A890
AFF0
0890
1EB0
26B0
ENDCHAR
STARTCHAR 5631
ENCODING 22065
SWIDTH 1040 0
DWIDTH 13 0
BBX 13 13 0 -2
BITMAP
0FF0
A820
EFE0
A840
AFE0
A8A0
AFE0
F090
9098
9FF8
2B50
4BD0
0830
ENDCHAR
STARTCHAR 5632
ENCODING 22066
SWIDTH 1040 0
DWIDTH 13 0
BBX 13 13 0 -2
BITMAP
0750
A678
FFD0
AB50
AF70
AB50
AF50
E670
A650
BFD0
0650
06B0
0720
ENDCHAR
STARTCHAR 5634
ENCODING 22068
SWIDTH 1040 0
DWIDTH 13 0
BBX 13 13 0 -2
BITMAP
0350
ABF0
EB40
AFD0
BB38
A7E0
A640
FFF0
A6A0
A6A0
07E0
0620
1860
ENDCHAR
STARTCHAR 5636
ENCODING 22070
SWIDTH 1040 0
DWIDTH 13 0
BBX 13 13 0 -2
BITMAP
0B10
AB70
FFC0
AB50
AF78
AB50
AF50
EB50
AB50
BFD0
0B50
1890
2090
ENDCHAR
STARTCHAR 5638
ENCODING 22072
SWIDTH 1040 0
DWIDTH 13 0
BBX 13 13 0 -2
BITMAP
0700
A610
EFF8
BB50
AB50
BFF8
AB50
EB50
AB58
9FF8
1320
2890
6ED8
ENDCHAR
STARTCHAR 5642
ENCODING 22082
SWIDTH 1040 0
DWIDTH 13 0
BBX 13 13 0 -2
BITMAP
0760
A350
FFF8
A340
AFF0
AB50
EFF0
A850
A858
1FF8
0840
07C0
0080
ENDCHAR
STARTCHAR 564C
ENCODING 22092
SWIDTH 1040 0
DWIDTH 13 0
BBX 13 13 0 -2
BITMAP
0760
A350
FFF8
A890
AFF0
A890
AFF0
E620
A620
A7E0
0620
07E0
0620
ENDCHAR
STARTCHAR 564E
ENCODING 22094
SWIDTH 1040 0
DWIDTH 13 0
BBX 13 12 0 -1
BITMAP
00A0
AFF0
F080
A7E0
A810
AFF8
B630
E7E0
A620
A620
0350
1FF8
ENDCHAR
STARTCHAR 5650
ENCODING 22096
SWIDTH 1040 0
DWIDTH 13 0
BBX 13 13 0 -2
BITMAP
78F0
4890
78F0
4010
3FE0
0610
FFF8
0000
7EF8
7EF8
4890
78F0
4890
ENDCHAR
STARTCHAR 565B
ENCODING 22107
SWIDTH 1040 0
DWIDTH 13 0
BBX 13 13 0 -2
BITMAP
00A0
06F0
A680
FFF8
A000
AFF8
A890
EFF0
ABD0
ABD0
0EB0
0FF0
0810
ENDCHAR
STARTCHAR 5664
ENCODING 22116
SWIDTH 1040 0
DWIDTH 13 0
BBX 13 13 0 -2
BITMAP
0760
A650
FFF8
A760
AED8
B650
AFF0
E000
9FF8
9FF8
0EA0
0B90
3318
ENDCHAR
STARTCHAR 5668
ENCODING 22120
SWIDTH 1040 0
DWIDTH 13 0
BBX 13 13 0 -2
BITMAP
28A0
3EF0
28A0
38E0
0610
FFF8
0880
1040
1E78
FEF8
28A0
38E0
28A0
ENDCHAR
STARTCHAR 566A
ENCODING 22122
SWIDTH 1040 0
DWIDTH 13 0
BBX 13 13 0 -2
BITMAP
03E0
A340
F3C0
A810
AF78
AB50
AF70
E090
A098
BFF8
03C0
06B8
3890
ENDCHAR
STARTCHAR 566B
ENCODING 22123
SWIDTH 1040 0
DWIDTH 13 0
BBX 13 13 0 -2
BITMAP
00C0
A0A0
EFF0
A340
BFF8
A620
A7E0
E620
A620
A7E0
0B90
1B58
10E8
ENDCHAR
STARTCHAR 566C
ENCODING 22124
SWIDTH 1040 0
DWIDTH 13 0
BBX 13 12 0 -1
BITMAP
0840
AF78
F6A0
A310
BFF0
AB40
AB40
F760
9790
9390
2310
3FF8
ENDCHAR
STARTCHAR 5674
ENCODING 22132
SWIDTH 1040 0
DWIDTH 13 0
BBX 13 13 0 -2
BITMAP
0080
AFF0
F6A0
AFF8
A620
AFE0
A820
EFE0
A820
A820
0FE0
0630
3E18
ENDCHAR
STARTCHAR 5678
ENCODING 22136
SWIDTH 1040 0
DWIDTH 13 0
BBX 13 13 0 -2
BITMAP
0E10
ABF8
EF20
B878
AB50
AB70
BF50
E870
AB50
AB50
0770
0050
03D8
ENDCHAR
STARTCHAR 567A
ENCODING 22138
SWIDTH 1040 0
DWIDTH 13 0
BBX 13 13 0 -2
BITMAP
0710
A670
FFC0
AB50
BFF8
A650
BFD0
E650
8750
8F50
1690
2710
0610
ENDCHAR
STARTCHAR 5680
ENCODING 22144
SWIDTH 1040 0
DWIDTH 13 0
BBX 13 13 0 -2
BITMAP
00C0
A890
EFF8
B8D0
A6A8
AEE8
A000
EFF0
AB50
AB50
1FF8
0080
0380
ENDCHAR
STARTCHAR 5686
ENCODING 22150
SWIDTH 1040 0
DWIDTH 13 0
BBX 13 13 0 -2
BITMAP
0320
AFF8
F320
AFF0
A340
A3C0
A810
EFF8
AB50
AB50
0BD0
0B70
0820
ENDCHAR
STARTCHAR 5687
ENCODING 22151
SWIDTH 1040 0
DWIDTH 13 0
BBX 13 13 0 -2
BITMAP
0E60
AB50
FFF0
A840
AB50
BFF8
E6A0
B6B0
D6A8
56A8
56A8
2EE0
2B40
ENDCHAR
STARTCHAR 568A
ENCODING 22154
SWIDTH 1040 0
DWIDTH 13 0
BBX 13 13 0 -2
BITMAP
0300
A7F0
F620
A7E0
A620
AFF0
A890
EFF0
8890
8890
3FF8
0320
1E20
ENDCHAR
STARTCHAR 568F
ENCODING 22159
SWIDTH 1040 0
DWIDTH 13 0
BBX 13 13 0 -2
BITMAP
00A0
AFF0
E080
AFF8
B890
A7E0
A6A0
FFF8
A690
A690
06F0
0B80
30F8
ENDCHAR
STARTCHAR 5694
ENCODING 22164
SWIDTH 1040 0
DWIDTH 13 0
BBX 13 13 0 -2
BITMAP
00A0
AFF0
E080
AFF8
B890
A7E0
A6B0
FFF8
A888
A888
06F0
0B80
30F8
ENDCHAR
STARTCHAR 56A0
ENCODING 22176
SWIDTH 1040 0
DWIDTH 13 0
BBX 13 13 0 -2
BITMAP
2658
3FD0
E350
AB50
BE50
A750
ABD0
F650
9690
9F90
1690
3FB0
1020
ENDCHAR
STARTCHAR 56A2
ENCODING 22178
SWIDTH 1040 0
DWIDTH 13 0
BBX 13 13 0 -2
BITMAP
0620
7FF0
0600
7FF8
C890
7FF0
0880
FFF8
FB10
0B10
F0A0
1F78
7010
ENDCHAR
STARTCHAR 56A5
ENCODING 22181
SWIDTH 1040 0
DWIDTH 13 0
BBX 13 13 0 -2
BITMAP
0350
BFF8
E340
A3C0
A658
BFF0
A640
EFD0
B658
B678
0B20
1690
36D8
ENDCHAR
STARTCHAR 56AE
ENCODING 22190
SWIDTH 1040 0
DWIDTH 13 0
BBX 13 13 0 -2
BITMAP
3328
27B8
D6A8
27B0
56A8
F7B8
2628
4790
C798
BFF8
2850
2FD0
2870
ENDCHAR
STARTCHAR 56B4
ENCODING 22196
SWIDTH 1040 0
DWIDTH 13 0
BBX 13 13 0 -2
BITMAP
1EF0
1690
1EF0
2010
3FF8
2040
3FF8
2690
66D0
5FD0
4B20
9F58
1390
ENDCHAR
STARTCHAR 56B6
ENCODING 22198
SWIDTH 1040 0
DWIDTH 13 0
BBX 13 13 0 -2
BITMAP
0B50
AF78
EB50
AF70
AB50
AF70
A620
EB50
AB58
BFF8
0E20
03C0
1E30
ENDCHAR
STARTCHAR 56BC
ENCODING 22204
SWIDTH 1040 0
DWIDTH 13 0
BBX 13 13 0 -2
BITMAP
0070
AFA0
E690
AFF8
AB50
AFF0
AB10
EFF8
A890
A890
0F50
0830
0820
ENDCHAR
STARTCHAR 56C0
ENCODING 22208
SWIDTH 1040 0
DWIDTH 13 0
BBX 13 13 0 -2
BITMAP
0B60
BF50
EBF8
BF50
ABF0
BF50
ABF0
FF10
8B18
8BF8
3F90
0870
0820
ENDCHAR
STARTCHAR 56C1
ENCODING 22209
SWIDTH 1040 0
DWIDTH 13 0
BBX 13 13 0 -2
BITMAP
0020
AFF0
F640
A7C0
A670
AFC0
A050
FFF8
AB50
AB50
0F78
1BD0
0310
ENDCHAR
STARTCHAR 56C2
ENCODING 22210
SWIDTH 1040 0
DWIDTH 13 0
BBX 13 13 0 -2
BITMAP
3BE0
2B20
3BE0
0010
FFF8
1040
1FC0
1040
1060
3FE0
EB38
3BE0
2B20
ENDCHAR
STARTCHAR 56C3
ENCODING 22211
SWIDTH 1040 0
DWIDTH 13 0
BBX 13 13 0 -2
BITMAP
0728
A650
FFF8
AB50
B6D0
BFF8
A650
EF78
8F50
8ED0
1650
2678
0640
ENDCHAR
STARTCHAR 56C8
ENCODING 22216
SWIDTH 1040 0
DWIDTH 13 0
BBX 13 13 0 -2
BITMAP
0350
BFF8
EB40
BEF0
ABA0
BEA8
ABD8
E000
BFF8
BFF8
0620
1FF0
0818
ENDCHAR
STARTCHAR 56CE
ENCODING 22222
SWIDTH 1040 0
DWIDTH 13 0
BBX 13 13 0 -2
BITMAP
28A0
BB10
EFF8
BB50
ABF0
BB50
EBF0
B8A0
B8A0
00E0
28A0
26E0
46A0
ENDCHAR
STARTCHAR 56D1
ENCODING 22225
SWIDTH 1040 0
DWIDTH 13 0
BBX 13 13 0 -2
BITMAP
0810
0FF8
E810
AFF0
A880
AFF0
EB50
AFF8
B6A8
16A8
1FE8
20B8
0FD0
ENDCHAR
STARTCHAR 56D3
ENCODING 22227
SWIDTH 1040 0
DWIDTH 13 0
BBX 13 13 0 -2
BITMAP
0610
A7F8
FE50
A750
B8F0
A6A0
BFF8
EB50
AB50
AFF0
0B50
0FF0
0810
ENDCHAR
STARTCHAR 56D7
ENCODING 22231
SWIDTH 1040 0
DWIDTH 13 0
BBX 12 13 1 -2
BITMAP
8020
FFF0
8020
8020
8020
8020
8020
8020
8020
8020
8020
FFE0
8020
ENDCHAR
STARTCHAR 56D8
ENCODING 22232
SWIDTH 1040 0
DWIDTH 13 0
BBX 12 13 1 -2
BITMAP
8020
FFF0
8020
BF20
A120
BF20
A120
A020
A120
A120
9FA0
8060
8040
ENDCHAR
STARTCHAR 56DA
ENCODING 22234
SWIDTH 1040 0
DWIDTH 13 0
BBX 12 13 1 -2
BITMAP
8020
FFF0
8E20
8C20
8C20
9620
9120
A1E0
C1A0
C0A0
8020
FFE0
8020
ENDCHAR
STARTCHAR 56DB
ENCODING 22235
SWIDTH 1040 0
DWIDTH 13 0
BBX 12 11 1 -1
BITMAP
8020
FFF0
9620
9620
9620
A1E0
C020
8020
8020
FFE0
8020
ENDCHAR
STARTCHAR 56DE
ENCODING 22238
SWIDTH 1040 0
DWIDTH 13 0
BBX 12 13 1 -2
BITMAP
8020
FFF0
8020
9120
9F20
9120
9120
9F20
9120
9120
8020
FFE0
8020
ENDCHAR
STARTCHAR 56E0
ENCODING 22240
SWIDTH 1040 0
DWIDTH 13 0
BBX 12 13 1 -2
BITMAP
8020
FFF0
8C20
8D20
BFA0
8C20
9620
9120
B1A0
A1A0
8020
FFE0
8020
ENDCHAR
STARTCHAR 56E3
ENCODING 22243
SWIDTH 1040 0
DWIDTH 13 0
BBX 12 13 1 -2
BITMAP
8020
FFF0
8120
8120
FFE0
A120
9120
9D20
9D20
8720
8620
FFE0
8020
ENDCHAR
STARTCHAR 56EE
ENCODING 22254
SWIDTH 1040 0
DWIDTH 13 0
BBX 12 13 1 -2
BITMAP
8020
FFF0
8C20
96A0
96A0
B720
D620
96A0
96A0
91E0
8020
FFE0
8020
ENDCHAR
STARTCHAR 56F0
ENCODING 22256
SWIDTH 1040 0
DWIDTH 13 0
BBX 12 13 1 -2
BITMAP
8020
FFF0
8C20
8D20
BFA0
8C20
9E20
ADA0
CDA0
CCA0
8C20
FFE0
8020
ENDCHAR
STARTCHAR 56F2
ENCODING 22258
SWIDTH 1040 0
DWIDTH 13 0
BBX 12 13 1 -2
BITMAP
8020
FFF0
9620
BFA0
9620
9620
BFA0
9620
9620
9620
A620
FFE0
8020
ENDCHAR
STARTCHAR 56F3
ENCODING 22259
SWIDTH 1040 0
DWIDTH 13 0
BBX 12 13 1 -2
BITMAP
8020
FFF0
9020
CDA0
AD20
AD20
8620
8D20
BDA0
B1A0
8020
FFE0
8020
ENDCHAR
STARTCHAR 56F9
ENCODING 22265
SWIDTH 1040 0
DWIDTH 13 0
BBX 12 13 1 -2
BITMAP
8020
FFF0
8E20
9120
BFA0
C060
BFA0
8CA0
8CA0
8DA0
8C20
FFE0
8020
ENDCHAR
ENDFONT
